M48
; DRILL file {KiCad (5.1.8)-1} date 05/13/21 19:04:07
; FORMAT={3:3/ absolute / metric / suppress leading zeros}
; #@! TF.CreationDate,2021-05-13T19:04:07-07:00
; #@! TF.GenerationSoftware,Kicad,Pcbnew,(5.1.8)-1
FMAT,2
METRIC,TZ
T1C0.400
T2C0.600
T3C0.650
T4C0.850
T5C1.100
T6C1.200
T7C2.200
%
G90
G05
T1
X154178Y-72136
X154432Y-74422
X154890Y-80214
X156210Y-81280
X156441Y-61953
X158242Y-70104
X158844Y-76945
X159253Y-62733
X159468Y-72124
X159766Y-77456
X160782Y-66040
X161123Y-73951
X161290Y-72390
X161725Y-74749
X161901Y-73226
X162306Y-67571
X162560Y-69342
X163322Y-81534
X165354Y-79756
X165354Y-83312
X165946Y-84050
X166624Y-77724
X166661Y-95504
X167640Y-83517
X167640Y-87376
X168402Y-95504
X169164Y-65024
X169164Y-71374
X169418Y-73406
X169903Y-67564
X170953Y-67564
X171450Y-86868
X171450Y-91694
X172688Y-90204
X172974Y-64753
X172974Y-65803
X175514Y-81534
X176530Y-83312
X176784Y-61722
X177038Y-96774
X177292Y-90678
X178308Y-86323
X179058Y-94234
X179324Y-88392
X179832Y-91440
T3
X181356Y-73660
X181356Y-74930
X181356Y-76200
X181356Y-77470
X181356Y-78740
X181356Y-80010
X181356Y-81280
X181356Y-70104
X181356Y-71374
X152146Y-78232
X152146Y-79502
X152146Y-80772
X152146Y-82042
X152146Y-83312
X152146Y-84582
X181356Y-83312
X181356Y-84582
X181356Y-85852
X181356Y-87122
T4
X178624Y-62016
X178624Y-67016
T5
X168656Y-97282
X168656Y-101782
X175156Y-97282
X175156Y-101782
X158600Y-97354
X158600Y-101854
X165100Y-97354
X165100Y-101854
T6
X158806Y-58420
X162306Y-58420
T7
X153670Y-57150
X179832Y-100076
X179832Y-57150
X153670Y-100076
T2
G00X180974Y-61016
M15
G01X181674Y-61016
M16
G05
G00X181674Y-68016
M15
G01X180974Y-68016
M16
G05
T0
M30
