%TF.GenerationSoftware,KiCad,Pcbnew,(5.1.8)-1*%
%TF.CreationDate,2021-05-13T19:04:10-07:00*%
%TF.ProjectId,Astromech3.0,41737472-6f6d-4656-9368-332e302e6b69,rev?*%
%TF.SameCoordinates,Original*%
%TF.FileFunction,Legend,Top*%
%TF.FilePolarity,Positive*%
%FSLAX46Y46*%
G04 Gerber Fmt 4.6, Leading zero omitted, Abs format (unit mm)*
G04 Created by KiCad (PCBNEW (5.1.8)-1) date 2021-05-13 19:04:10*
%MOMM*%
%LPD*%
G01*
G04 APERTURE LIST*
%ADD10C,0.250000*%
%ADD11C,0.125000*%
%ADD12C,0.150000*%
%ADD13C,0.120000*%
G04 APERTURE END LIST*
D10*
X163147523Y-66762380D02*
X163766571Y-66762380D01*
X163433238Y-67143333D01*
X163576095Y-67143333D01*
X163671333Y-67190952D01*
X163718952Y-67238571D01*
X163766571Y-67333809D01*
X163766571Y-67571904D01*
X163718952Y-67667142D01*
X163671333Y-67714761D01*
X163576095Y-67762380D01*
X163290380Y-67762380D01*
X163195142Y-67714761D01*
X163147523Y-67667142D01*
X164099904Y-67095714D02*
X164338000Y-67762380D01*
X164576095Y-67095714D01*
X164861809Y-66762380D02*
X165480857Y-66762380D01*
X165147523Y-67143333D01*
X165290380Y-67143333D01*
X165385619Y-67190952D01*
X165433238Y-67238571D01*
X165480857Y-67333809D01*
X165480857Y-67571904D01*
X165433238Y-67667142D01*
X165385619Y-67714761D01*
X165290380Y-67762380D01*
X165004666Y-67762380D01*
X164909428Y-67714761D01*
X164861809Y-67667142D01*
D11*
X177117428Y-75030000D02*
X177403142Y-75030000D01*
X177060285Y-75201428D02*
X177260285Y-74601428D01*
X177460285Y-75201428D01*
X177688857Y-75201428D02*
X177803142Y-75201428D01*
X177860285Y-75172857D01*
X177888857Y-75144285D01*
X177946000Y-75058571D01*
X177974571Y-74944285D01*
X177974571Y-74715714D01*
X177946000Y-74658571D01*
X177917428Y-74630000D01*
X177860285Y-74601428D01*
X177746000Y-74601428D01*
X177688857Y-74630000D01*
X177660285Y-74658571D01*
X177631714Y-74715714D01*
X177631714Y-74858571D01*
X177660285Y-74915714D01*
X177688857Y-74944285D01*
X177746000Y-74972857D01*
X177860285Y-74972857D01*
X177917428Y-74944285D01*
X177946000Y-74915714D01*
X177974571Y-74858571D01*
D12*
X153463714Y-77062000D02*
X153749428Y-77062000D01*
X153406571Y-77233428D02*
X153606571Y-76633428D01*
X153806571Y-77233428D01*
X154320857Y-77233428D02*
X153978000Y-77233428D01*
X154149428Y-77233428D02*
X154149428Y-76633428D01*
X154092285Y-76719142D01*
X154035142Y-76776285D01*
X153978000Y-76804857D01*
X154863714Y-76633428D02*
X154578000Y-76633428D01*
X154549428Y-76919142D01*
X154578000Y-76890571D01*
X154635142Y-76862000D01*
X154778000Y-76862000D01*
X154835142Y-76890571D01*
X154863714Y-76919142D01*
X154892285Y-76976285D01*
X154892285Y-77119142D01*
X154863714Y-77176285D01*
X154835142Y-77204857D01*
X154778000Y-77233428D01*
X154635142Y-77233428D01*
X154578000Y-77204857D01*
X154549428Y-77176285D01*
X153681142Y-84539142D02*
X153766857Y-84567714D01*
X153795428Y-84596285D01*
X153824000Y-84653428D01*
X153824000Y-84739142D01*
X153795428Y-84796285D01*
X153766857Y-84824857D01*
X153709714Y-84853428D01*
X153481142Y-84853428D01*
X153481142Y-84253428D01*
X153681142Y-84253428D01*
X153738285Y-84282000D01*
X153766857Y-84310571D01*
X153795428Y-84367714D01*
X153795428Y-84424857D01*
X153766857Y-84482000D01*
X153738285Y-84510571D01*
X153681142Y-84539142D01*
X153481142Y-84539142D01*
X154109714Y-84853428D02*
X154224000Y-84853428D01*
X154281142Y-84824857D01*
X154309714Y-84796285D01*
X154366857Y-84710571D01*
X154395428Y-84596285D01*
X154395428Y-84367714D01*
X154366857Y-84310571D01*
X154338285Y-84282000D01*
X154281142Y-84253428D01*
X154166857Y-84253428D01*
X154109714Y-84282000D01*
X154081142Y-84310571D01*
X154052571Y-84367714D01*
X154052571Y-84510571D01*
X154081142Y-84567714D01*
X154109714Y-84596285D01*
X154166857Y-84624857D01*
X154281142Y-84624857D01*
X154338285Y-84596285D01*
X154366857Y-84567714D01*
X154395428Y-84510571D01*
X153681142Y-83269142D02*
X153766857Y-83297714D01*
X153795428Y-83326285D01*
X153824000Y-83383428D01*
X153824000Y-83469142D01*
X153795428Y-83526285D01*
X153766857Y-83554857D01*
X153709714Y-83583428D01*
X153481142Y-83583428D01*
X153481142Y-82983428D01*
X153681142Y-82983428D01*
X153738285Y-83012000D01*
X153766857Y-83040571D01*
X153795428Y-83097714D01*
X153795428Y-83154857D01*
X153766857Y-83212000D01*
X153738285Y-83240571D01*
X153681142Y-83269142D01*
X153481142Y-83269142D01*
X154166857Y-83240571D02*
X154109714Y-83212000D01*
X154081142Y-83183428D01*
X154052571Y-83126285D01*
X154052571Y-83097714D01*
X154081142Y-83040571D01*
X154109714Y-83012000D01*
X154166857Y-82983428D01*
X154281142Y-82983428D01*
X154338285Y-83012000D01*
X154366857Y-83040571D01*
X154395428Y-83097714D01*
X154395428Y-83126285D01*
X154366857Y-83183428D01*
X154338285Y-83212000D01*
X154281142Y-83240571D01*
X154166857Y-83240571D01*
X154109714Y-83269142D01*
X154081142Y-83297714D01*
X154052571Y-83354857D01*
X154052571Y-83469142D01*
X154081142Y-83526285D01*
X154109714Y-83554857D01*
X154166857Y-83583428D01*
X154281142Y-83583428D01*
X154338285Y-83554857D01*
X154366857Y-83526285D01*
X154395428Y-83469142D01*
X154395428Y-83354857D01*
X154366857Y-83297714D01*
X154338285Y-83269142D01*
X154281142Y-83240571D01*
X153681142Y-81999142D02*
X153766857Y-82027714D01*
X153795428Y-82056285D01*
X153824000Y-82113428D01*
X153824000Y-82199142D01*
X153795428Y-82256285D01*
X153766857Y-82284857D01*
X153709714Y-82313428D01*
X153481142Y-82313428D01*
X153481142Y-81713428D01*
X153681142Y-81713428D01*
X153738285Y-81742000D01*
X153766857Y-81770571D01*
X153795428Y-81827714D01*
X153795428Y-81884857D01*
X153766857Y-81942000D01*
X153738285Y-81970571D01*
X153681142Y-81999142D01*
X153481142Y-81999142D01*
X154366857Y-81713428D02*
X154081142Y-81713428D01*
X154052571Y-81999142D01*
X154081142Y-81970571D01*
X154138285Y-81942000D01*
X154281142Y-81942000D01*
X154338285Y-81970571D01*
X154366857Y-81999142D01*
X154395428Y-82056285D01*
X154395428Y-82199142D01*
X154366857Y-82256285D01*
X154338285Y-82284857D01*
X154281142Y-82313428D01*
X154138285Y-82313428D01*
X154081142Y-82284857D01*
X154052571Y-82256285D01*
X153681142Y-79459142D02*
X153766857Y-79487714D01*
X153795428Y-79516285D01*
X153824000Y-79573428D01*
X153824000Y-79659142D01*
X153795428Y-79716285D01*
X153766857Y-79744857D01*
X153709714Y-79773428D01*
X153481142Y-79773428D01*
X153481142Y-79173428D01*
X153681142Y-79173428D01*
X153738285Y-79202000D01*
X153766857Y-79230571D01*
X153795428Y-79287714D01*
X153795428Y-79344857D01*
X153766857Y-79402000D01*
X153738285Y-79430571D01*
X153681142Y-79459142D01*
X153481142Y-79459142D01*
X154024000Y-79173428D02*
X154395428Y-79173428D01*
X154195428Y-79402000D01*
X154281142Y-79402000D01*
X154338285Y-79430571D01*
X154366857Y-79459142D01*
X154395428Y-79516285D01*
X154395428Y-79659142D01*
X154366857Y-79716285D01*
X154338285Y-79744857D01*
X154281142Y-79773428D01*
X154109714Y-79773428D01*
X154052571Y-79744857D01*
X154024000Y-79716285D01*
X153681142Y-80729142D02*
X153766857Y-80757714D01*
X153795428Y-80786285D01*
X153824000Y-80843428D01*
X153824000Y-80929142D01*
X153795428Y-80986285D01*
X153766857Y-81014857D01*
X153709714Y-81043428D01*
X153481142Y-81043428D01*
X153481142Y-80443428D01*
X153681142Y-80443428D01*
X153738285Y-80472000D01*
X153766857Y-80500571D01*
X153795428Y-80557714D01*
X153795428Y-80614857D01*
X153766857Y-80672000D01*
X153738285Y-80700571D01*
X153681142Y-80729142D01*
X153481142Y-80729142D01*
X154338285Y-80643428D02*
X154338285Y-81043428D01*
X154195428Y-80414857D02*
X154052571Y-80843428D01*
X154424000Y-80843428D01*
X152671428Y-69775142D02*
X152071428Y-69775142D01*
X152500000Y-69575142D01*
X152071428Y-69375142D01*
X152671428Y-69375142D01*
X152671428Y-69089428D02*
X152071428Y-69089428D01*
X152071428Y-68860857D01*
X152100000Y-68803714D01*
X152128571Y-68775142D01*
X152185714Y-68746571D01*
X152271428Y-68746571D01*
X152328571Y-68775142D01*
X152357142Y-68803714D01*
X152385714Y-68860857D01*
X152385714Y-69089428D01*
X152071428Y-68489428D02*
X152557142Y-68489428D01*
X152614285Y-68460857D01*
X152642857Y-68432285D01*
X152671428Y-68375142D01*
X152671428Y-68260857D01*
X152642857Y-68203714D01*
X152614285Y-68175142D01*
X152557142Y-68146571D01*
X152071428Y-68146571D01*
X152071428Y-67603714D02*
X152071428Y-67718000D01*
X152100000Y-67775142D01*
X152128571Y-67803714D01*
X152214285Y-67860857D01*
X152328571Y-67889428D01*
X152557142Y-67889428D01*
X152614285Y-67860857D01*
X152642857Y-67832285D01*
X152671428Y-67775142D01*
X152671428Y-67660857D01*
X152642857Y-67603714D01*
X152614285Y-67575142D01*
X152557142Y-67546571D01*
X152414285Y-67546571D01*
X152357142Y-67575142D01*
X152328571Y-67603714D01*
X152300000Y-67660857D01*
X152300000Y-67775142D01*
X152328571Y-67832285D01*
X152357142Y-67860857D01*
X152414285Y-67889428D01*
X152071428Y-67175142D02*
X152071428Y-67118000D01*
X152100000Y-67060857D01*
X152128571Y-67032285D01*
X152185714Y-67003714D01*
X152300000Y-66975142D01*
X152442857Y-66975142D01*
X152557142Y-67003714D01*
X152614285Y-67032285D01*
X152642857Y-67060857D01*
X152671428Y-67118000D01*
X152671428Y-67175142D01*
X152642857Y-67232285D01*
X152614285Y-67260857D01*
X152557142Y-67289428D01*
X152442857Y-67318000D01*
X152300000Y-67318000D01*
X152185714Y-67289428D01*
X152128571Y-67260857D01*
X152100000Y-67232285D01*
X152071428Y-67175142D01*
X152071428Y-66432285D02*
X152071428Y-66718000D01*
X152357142Y-66746571D01*
X152328571Y-66718000D01*
X152300000Y-66660857D01*
X152300000Y-66518000D01*
X152328571Y-66460857D01*
X152357142Y-66432285D01*
X152414285Y-66403714D01*
X152557142Y-66403714D01*
X152614285Y-66432285D01*
X152642857Y-66460857D01*
X152671428Y-66518000D01*
X152671428Y-66660857D01*
X152642857Y-66718000D01*
X152614285Y-66746571D01*
X152071428Y-66032285D02*
X152071428Y-65975142D01*
X152100000Y-65918000D01*
X152128571Y-65889428D01*
X152185714Y-65860857D01*
X152300000Y-65832285D01*
X152442857Y-65832285D01*
X152557142Y-65860857D01*
X152614285Y-65889428D01*
X152642857Y-65918000D01*
X152671428Y-65975142D01*
X152671428Y-66032285D01*
X152642857Y-66089428D01*
X152614285Y-66118000D01*
X152557142Y-66146571D01*
X152442857Y-66175142D01*
X152300000Y-66175142D01*
X152185714Y-66146571D01*
X152128571Y-66118000D01*
X152100000Y-66089428D01*
X152071428Y-66032285D01*
X177271428Y-81237142D02*
X177357142Y-81265714D01*
X177385714Y-81294285D01*
X177414285Y-81351428D01*
X177414285Y-81437142D01*
X177385714Y-81494285D01*
X177357142Y-81522857D01*
X177300000Y-81551428D01*
X177071428Y-81551428D01*
X177071428Y-80951428D01*
X177271428Y-80951428D01*
X177328571Y-80980000D01*
X177357142Y-81008571D01*
X177385714Y-81065714D01*
X177385714Y-81122857D01*
X177357142Y-81180000D01*
X177328571Y-81208571D01*
X177271428Y-81237142D01*
X177071428Y-81237142D01*
X177985714Y-81551428D02*
X177642857Y-81551428D01*
X177814285Y-81551428D02*
X177814285Y-80951428D01*
X177757142Y-81037142D01*
X177700000Y-81094285D01*
X177642857Y-81122857D01*
X178214285Y-81008571D02*
X178242857Y-80980000D01*
X178300000Y-80951428D01*
X178442857Y-80951428D01*
X178500000Y-80980000D01*
X178528571Y-81008571D01*
X178557142Y-81065714D01*
X178557142Y-81122857D01*
X178528571Y-81208571D01*
X178185714Y-81551428D01*
X178557142Y-81551428D01*
X177271428Y-79967142D02*
X177357142Y-79995714D01*
X177385714Y-80024285D01*
X177414285Y-80081428D01*
X177414285Y-80167142D01*
X177385714Y-80224285D01*
X177357142Y-80252857D01*
X177300000Y-80281428D01*
X177071428Y-80281428D01*
X177071428Y-79681428D01*
X177271428Y-79681428D01*
X177328571Y-79710000D01*
X177357142Y-79738571D01*
X177385714Y-79795714D01*
X177385714Y-79852857D01*
X177357142Y-79910000D01*
X177328571Y-79938571D01*
X177271428Y-79967142D01*
X177071428Y-79967142D01*
X177985714Y-80281428D02*
X177642857Y-80281428D01*
X177814285Y-80281428D02*
X177814285Y-79681428D01*
X177757142Y-79767142D01*
X177700000Y-79824285D01*
X177642857Y-79852857D01*
X178185714Y-79681428D02*
X178557142Y-79681428D01*
X178357142Y-79910000D01*
X178442857Y-79910000D01*
X178500000Y-79938571D01*
X178528571Y-79967142D01*
X178557142Y-80024285D01*
X178557142Y-80167142D01*
X178528571Y-80224285D01*
X178500000Y-80252857D01*
X178442857Y-80281428D01*
X178271428Y-80281428D01*
X178214285Y-80252857D01*
X178185714Y-80224285D01*
X177271428Y-78697142D02*
X177357142Y-78725714D01*
X177385714Y-78754285D01*
X177414285Y-78811428D01*
X177414285Y-78897142D01*
X177385714Y-78954285D01*
X177357142Y-78982857D01*
X177300000Y-79011428D01*
X177071428Y-79011428D01*
X177071428Y-78411428D01*
X177271428Y-78411428D01*
X177328571Y-78440000D01*
X177357142Y-78468571D01*
X177385714Y-78525714D01*
X177385714Y-78582857D01*
X177357142Y-78640000D01*
X177328571Y-78668571D01*
X177271428Y-78697142D01*
X177071428Y-78697142D01*
X177985714Y-79011428D02*
X177642857Y-79011428D01*
X177814285Y-79011428D02*
X177814285Y-78411428D01*
X177757142Y-78497142D01*
X177700000Y-78554285D01*
X177642857Y-78582857D01*
X178500000Y-78611428D02*
X178500000Y-79011428D01*
X178357142Y-78382857D02*
X178214285Y-78811428D01*
X178585714Y-78811428D01*
X177271428Y-77427142D02*
X177357142Y-77455714D01*
X177385714Y-77484285D01*
X177414285Y-77541428D01*
X177414285Y-77627142D01*
X177385714Y-77684285D01*
X177357142Y-77712857D01*
X177300000Y-77741428D01*
X177071428Y-77741428D01*
X177071428Y-77141428D01*
X177271428Y-77141428D01*
X177328571Y-77170000D01*
X177357142Y-77198571D01*
X177385714Y-77255714D01*
X177385714Y-77312857D01*
X177357142Y-77370000D01*
X177328571Y-77398571D01*
X177271428Y-77427142D01*
X177071428Y-77427142D01*
X177985714Y-77741428D02*
X177642857Y-77741428D01*
X177814285Y-77741428D02*
X177814285Y-77141428D01*
X177757142Y-77227142D01*
X177700000Y-77284285D01*
X177642857Y-77312857D01*
X178528571Y-77141428D02*
X178242857Y-77141428D01*
X178214285Y-77427142D01*
X178242857Y-77398571D01*
X178300000Y-77370000D01*
X178442857Y-77370000D01*
X178500000Y-77398571D01*
X178528571Y-77427142D01*
X178557142Y-77484285D01*
X178557142Y-77627142D01*
X178528571Y-77684285D01*
X178500000Y-77712857D01*
X178442857Y-77741428D01*
X178300000Y-77741428D01*
X178242857Y-77712857D01*
X178214285Y-77684285D01*
X177117428Y-76300000D02*
X177403142Y-76300000D01*
X177060285Y-76471428D02*
X177260285Y-75871428D01*
X177460285Y-76471428D01*
X177746000Y-76128571D02*
X177688857Y-76100000D01*
X177660285Y-76071428D01*
X177631714Y-76014285D01*
X177631714Y-75985714D01*
X177660285Y-75928571D01*
X177688857Y-75900000D01*
X177746000Y-75871428D01*
X177860285Y-75871428D01*
X177917428Y-75900000D01*
X177946000Y-75928571D01*
X177974571Y-75985714D01*
X177974571Y-76014285D01*
X177946000Y-76071428D01*
X177917428Y-76100000D01*
X177860285Y-76128571D01*
X177746000Y-76128571D01*
X177688857Y-76157142D01*
X177660285Y-76185714D01*
X177631714Y-76242857D01*
X177631714Y-76357142D01*
X177660285Y-76414285D01*
X177688857Y-76442857D01*
X177746000Y-76471428D01*
X177860285Y-76471428D01*
X177917428Y-76442857D01*
X177946000Y-76414285D01*
X177974571Y-76357142D01*
X177974571Y-76242857D01*
X177946000Y-76185714D01*
X177917428Y-76157142D01*
X177860285Y-76128571D01*
D11*
X177085714Y-73760000D02*
X177371428Y-73760000D01*
X177028571Y-73931428D02*
X177228571Y-73331428D01*
X177428571Y-73931428D01*
X177942857Y-73931428D02*
X177600000Y-73931428D01*
X177771428Y-73931428D02*
X177771428Y-73331428D01*
X177714285Y-73417142D01*
X177657142Y-73474285D01*
X177600000Y-73502857D01*
X178314285Y-73331428D02*
X178371428Y-73331428D01*
X178428571Y-73360000D01*
X178457142Y-73388571D01*
X178485714Y-73445714D01*
X178514285Y-73560000D01*
X178514285Y-73702857D01*
X178485714Y-73817142D01*
X178457142Y-73874285D01*
X178428571Y-73902857D01*
X178371428Y-73931428D01*
X178314285Y-73931428D01*
X178257142Y-73902857D01*
X178228571Y-73874285D01*
X178200000Y-73817142D01*
X178171428Y-73702857D01*
X178171428Y-73560000D01*
X178200000Y-73445714D01*
X178228571Y-73388571D01*
X178257142Y-73360000D01*
X178314285Y-73331428D01*
X169466692Y-81703467D02*
X169214154Y-81956005D01*
X169180482Y-82023349D01*
X169180482Y-82090692D01*
X169214154Y-82158036D01*
X169247826Y-82191707D01*
X168776421Y-81720303D02*
X168944780Y-81888662D01*
X169298333Y-81535108D01*
X168490211Y-81366749D02*
X168490211Y-81400421D01*
X168523883Y-81467765D01*
X168557555Y-81501436D01*
X168624898Y-81535108D01*
X168692242Y-81535108D01*
X168742749Y-81518272D01*
X168826929Y-81467765D01*
X168877436Y-81417257D01*
X168927944Y-81333078D01*
X168944780Y-81282570D01*
X168944780Y-81215226D01*
X168911108Y-81147883D01*
X168877436Y-81114211D01*
X168810093Y-81080539D01*
X168776421Y-81080539D01*
X168557555Y-80794330D02*
X168305017Y-81046868D01*
X168271345Y-81114211D01*
X168271345Y-81181555D01*
X168305017Y-81248898D01*
X168338688Y-81282570D01*
X167867284Y-80811165D02*
X168035643Y-80979524D01*
X168389196Y-80625971D01*
X167581074Y-80457612D02*
X167581074Y-80491284D01*
X167614746Y-80558627D01*
X167648417Y-80592299D01*
X167715761Y-80625971D01*
X167783104Y-80625971D01*
X167833612Y-80609135D01*
X167917791Y-80558627D01*
X167968299Y-80508120D01*
X168018807Y-80423940D01*
X168035643Y-80373433D01*
X168035643Y-80306089D01*
X168001971Y-80238746D01*
X167968299Y-80205074D01*
X167900956Y-80171402D01*
X167867284Y-80171402D01*
X167648417Y-79885192D02*
X167395879Y-80137730D01*
X167362208Y-80205074D01*
X167362208Y-80272417D01*
X167395879Y-80339761D01*
X167429551Y-80373433D01*
X166958147Y-79902028D02*
X167126505Y-80070387D01*
X167480059Y-79716834D01*
X166671937Y-79548475D02*
X166671937Y-79582147D01*
X166705608Y-79649490D01*
X166739280Y-79683162D01*
X166806624Y-79716834D01*
X166873967Y-79716834D01*
X166924475Y-79699998D01*
X167008654Y-79649490D01*
X167059162Y-79598982D01*
X167109669Y-79514803D01*
X167126505Y-79464295D01*
X167126505Y-79396952D01*
X167092834Y-79329608D01*
X167059162Y-79295937D01*
X166991818Y-79262265D01*
X166958147Y-79262265D01*
X166739280Y-78976055D02*
X166486742Y-79228593D01*
X166453070Y-79295937D01*
X166453070Y-79363280D01*
X166486742Y-79430624D01*
X166520414Y-79464295D01*
X166049009Y-78992891D02*
X166217368Y-79161250D01*
X166570921Y-78807696D01*
X165762799Y-78639337D02*
X165762799Y-78673009D01*
X165796471Y-78740353D01*
X165830143Y-78774024D01*
X165897486Y-78807696D01*
X165964830Y-78807696D01*
X166015337Y-78790860D01*
X166099517Y-78740353D01*
X166150024Y-78689845D01*
X166200532Y-78605666D01*
X166217368Y-78555158D01*
X166217368Y-78487815D01*
X166183696Y-78420471D01*
X166150024Y-78386799D01*
X166082681Y-78353128D01*
X166049009Y-78353128D01*
D12*
X176696857Y-71870857D02*
X176782571Y-71899428D01*
X176925428Y-71899428D01*
X176982571Y-71870857D01*
X177011142Y-71842285D01*
X177039714Y-71785142D01*
X177039714Y-71728000D01*
X177011142Y-71670857D01*
X176982571Y-71642285D01*
X176925428Y-71613714D01*
X176811142Y-71585142D01*
X176754000Y-71556571D01*
X176725428Y-71528000D01*
X176696857Y-71470857D01*
X176696857Y-71413714D01*
X176725428Y-71356571D01*
X176754000Y-71328000D01*
X176811142Y-71299428D01*
X176954000Y-71299428D01*
X177039714Y-71328000D01*
X177239714Y-71299428D02*
X177382571Y-71899428D01*
X177496857Y-71470857D01*
X177611142Y-71899428D01*
X177754000Y-71299428D01*
X178325428Y-71842285D02*
X178296857Y-71870857D01*
X178211142Y-71899428D01*
X178154000Y-71899428D01*
X178068285Y-71870857D01*
X178011142Y-71813714D01*
X177982571Y-71756571D01*
X177954000Y-71642285D01*
X177954000Y-71556571D01*
X177982571Y-71442285D01*
X178011142Y-71385142D01*
X178068285Y-71328000D01*
X178154000Y-71299428D01*
X178211142Y-71299428D01*
X178296857Y-71328000D01*
X178325428Y-71356571D01*
X178868285Y-71899428D02*
X178582571Y-71899428D01*
X178582571Y-71299428D01*
X179068285Y-71899428D02*
X179068285Y-71299428D01*
X179411142Y-71899428D02*
X179154000Y-71556571D01*
X179411142Y-71299428D02*
X179068285Y-71642285D01*
X176782571Y-70346857D02*
X176868285Y-70375428D01*
X177011142Y-70375428D01*
X177068285Y-70346857D01*
X177096857Y-70318285D01*
X177125428Y-70261142D01*
X177125428Y-70204000D01*
X177096857Y-70146857D01*
X177068285Y-70118285D01*
X177011142Y-70089714D01*
X176896857Y-70061142D01*
X176839714Y-70032571D01*
X176811142Y-70004000D01*
X176782571Y-69946857D01*
X176782571Y-69889714D01*
X176811142Y-69832571D01*
X176839714Y-69804000D01*
X176896857Y-69775428D01*
X177039714Y-69775428D01*
X177125428Y-69804000D01*
X177325428Y-69775428D02*
X177468285Y-70375428D01*
X177582571Y-69946857D01*
X177696857Y-70375428D01*
X177839714Y-69775428D01*
X178068285Y-70375428D02*
X178068285Y-69775428D01*
X178211142Y-69775428D01*
X178296857Y-69804000D01*
X178354000Y-69861142D01*
X178382571Y-69918285D01*
X178411142Y-70032571D01*
X178411142Y-70118285D01*
X178382571Y-70232571D01*
X178354000Y-70289714D01*
X178296857Y-70346857D01*
X178211142Y-70375428D01*
X178068285Y-70375428D01*
X178668285Y-70375428D02*
X178668285Y-69775428D01*
X179068285Y-69775428D02*
X179182571Y-69775428D01*
X179239714Y-69804000D01*
X179296857Y-69861142D01*
X179325428Y-69975428D01*
X179325428Y-70175428D01*
X179296857Y-70289714D01*
X179239714Y-70346857D01*
X179182571Y-70375428D01*
X179068285Y-70375428D01*
X179011142Y-70346857D01*
X178954000Y-70289714D01*
X178925428Y-70175428D01*
X178925428Y-69975428D01*
X178954000Y-69861142D01*
X179011142Y-69804000D01*
X179068285Y-69775428D01*
X180898857Y-88346000D02*
X180841714Y-88317428D01*
X180756000Y-88317428D01*
X180670285Y-88346000D01*
X180613142Y-88403142D01*
X180584571Y-88460285D01*
X180556000Y-88574571D01*
X180556000Y-88660285D01*
X180584571Y-88774571D01*
X180613142Y-88831714D01*
X180670285Y-88888857D01*
X180756000Y-88917428D01*
X180813142Y-88917428D01*
X180898857Y-88888857D01*
X180927428Y-88860285D01*
X180927428Y-88660285D01*
X180813142Y-88660285D01*
X181184571Y-88917428D02*
X181184571Y-88317428D01*
X181527428Y-88917428D01*
X181527428Y-88317428D01*
X181813142Y-88917428D02*
X181813142Y-88317428D01*
X181956000Y-88317428D01*
X182041714Y-88346000D01*
X182098857Y-88403142D01*
X182127428Y-88460285D01*
X182156000Y-88574571D01*
X182156000Y-88660285D01*
X182127428Y-88774571D01*
X182098857Y-88831714D01*
X182041714Y-88888857D01*
X181956000Y-88917428D01*
X181813142Y-88917428D01*
X179224000Y-86123428D02*
X179024000Y-85837714D01*
X178881142Y-86123428D02*
X178881142Y-85523428D01*
X179109714Y-85523428D01*
X179166857Y-85552000D01*
X179195428Y-85580571D01*
X179224000Y-85637714D01*
X179224000Y-85723428D01*
X179195428Y-85780571D01*
X179166857Y-85809142D01*
X179109714Y-85837714D01*
X178881142Y-85837714D01*
X179424000Y-85523428D02*
X179824000Y-86123428D01*
X179824000Y-85523428D02*
X179424000Y-86123428D01*
X178866857Y-84253428D02*
X179209714Y-84253428D01*
X179038285Y-84853428D02*
X179038285Y-84253428D01*
X179352571Y-84253428D02*
X179752571Y-84853428D01*
X179752571Y-84253428D02*
X179352571Y-84853428D01*
X178609714Y-82983428D02*
X178981142Y-82983428D01*
X178781142Y-83212000D01*
X178866857Y-83212000D01*
X178924000Y-83240571D01*
X178952571Y-83269142D01*
X178981142Y-83326285D01*
X178981142Y-83469142D01*
X178952571Y-83526285D01*
X178924000Y-83554857D01*
X178866857Y-83583428D01*
X178695428Y-83583428D01*
X178638285Y-83554857D01*
X178609714Y-83526285D01*
X179181142Y-83183428D02*
X179324000Y-83583428D01*
X179466857Y-83183428D01*
X179638285Y-82983428D02*
X180009714Y-82983428D01*
X179809714Y-83212000D01*
X179895428Y-83212000D01*
X179952571Y-83240571D01*
X179981142Y-83269142D01*
X180009714Y-83326285D01*
X180009714Y-83469142D01*
X179981142Y-83526285D01*
X179952571Y-83554857D01*
X179895428Y-83583428D01*
X179724000Y-83583428D01*
X179666857Y-83554857D01*
X179638285Y-83526285D01*
X153624666Y-85767047D02*
X153624666Y-86290857D01*
X153310380Y-85662285D02*
X154410380Y-86028952D01*
X153310380Y-86395619D01*
X153362761Y-86709904D02*
X153310380Y-86814666D01*
X153310380Y-87024190D01*
X153362761Y-87128952D01*
X153467523Y-87181333D01*
X153519904Y-87181333D01*
X153624666Y-87128952D01*
X153677047Y-87024190D01*
X153677047Y-86867047D01*
X153729428Y-86762285D01*
X153834190Y-86709904D01*
X153886571Y-86709904D01*
X153991333Y-86762285D01*
X154043714Y-86867047D01*
X154043714Y-87024190D01*
X153991333Y-87128952D01*
X154043714Y-87495619D02*
X154043714Y-87914666D01*
X154410380Y-87652761D02*
X153467523Y-87652761D01*
X153362761Y-87705142D01*
X153310380Y-87809904D01*
X153310380Y-87914666D01*
X153310380Y-88281333D02*
X154043714Y-88281333D01*
X153834190Y-88281333D02*
X153938952Y-88333714D01*
X153991333Y-88386095D01*
X154043714Y-88490857D01*
X154043714Y-88595619D01*
X153310380Y-89119428D02*
X153362761Y-89014666D01*
X153415142Y-88962285D01*
X153519904Y-88909904D01*
X153834190Y-88909904D01*
X153938952Y-88962285D01*
X153991333Y-89014666D01*
X154043714Y-89119428D01*
X154043714Y-89276571D01*
X153991333Y-89381333D01*
X153938952Y-89433714D01*
X153834190Y-89486095D01*
X153519904Y-89486095D01*
X153415142Y-89433714D01*
X153362761Y-89381333D01*
X153310380Y-89276571D01*
X153310380Y-89119428D01*
X153310380Y-89957523D02*
X154043714Y-89957523D01*
X153938952Y-89957523D02*
X153991333Y-90009904D01*
X154043714Y-90114666D01*
X154043714Y-90271809D01*
X153991333Y-90376571D01*
X153886571Y-90428952D01*
X153310380Y-90428952D01*
X153886571Y-90428952D02*
X153991333Y-90481333D01*
X154043714Y-90586095D01*
X154043714Y-90743238D01*
X153991333Y-90848000D01*
X153886571Y-90900380D01*
X153310380Y-90900380D01*
X153362761Y-91843238D02*
X153310380Y-91738476D01*
X153310380Y-91528952D01*
X153362761Y-91424190D01*
X153467523Y-91371809D01*
X153886571Y-91371809D01*
X153991333Y-91424190D01*
X154043714Y-91528952D01*
X154043714Y-91738476D01*
X153991333Y-91843238D01*
X153886571Y-91895619D01*
X153781809Y-91895619D01*
X153677047Y-91371809D01*
X153362761Y-92838476D02*
X153310380Y-92733714D01*
X153310380Y-92524190D01*
X153362761Y-92419428D01*
X153415142Y-92367047D01*
X153519904Y-92314666D01*
X153834190Y-92314666D01*
X153938952Y-92367047D01*
X153991333Y-92419428D01*
X154043714Y-92524190D01*
X154043714Y-92733714D01*
X153991333Y-92838476D01*
X153310380Y-93309904D02*
X154410380Y-93309904D01*
X153310380Y-93781333D02*
X153886571Y-93781333D01*
X153991333Y-93728952D01*
X154043714Y-93624190D01*
X154043714Y-93467047D01*
X153991333Y-93362285D01*
X153938952Y-93309904D01*
X154410380Y-95038476D02*
X154410380Y-95719428D01*
X153991333Y-95352761D01*
X153991333Y-95509904D01*
X153938952Y-95614666D01*
X153886571Y-95667047D01*
X153781809Y-95719428D01*
X153519904Y-95719428D01*
X153415142Y-95667047D01*
X153362761Y-95614666D01*
X153310380Y-95509904D01*
X153310380Y-95195619D01*
X153362761Y-95090857D01*
X153415142Y-95038476D01*
X153415142Y-96190857D02*
X153362761Y-96243238D01*
X153310380Y-96190857D01*
X153362761Y-96138476D01*
X153415142Y-96190857D01*
X153310380Y-96190857D01*
X154410380Y-96924190D02*
X154410380Y-97028952D01*
X154358000Y-97133714D01*
X154305619Y-97186095D01*
X154200857Y-97238476D01*
X153991333Y-97290857D01*
X153729428Y-97290857D01*
X153519904Y-97238476D01*
X153415142Y-97186095D01*
X153362761Y-97133714D01*
X153310380Y-97028952D01*
X153310380Y-96924190D01*
X153362761Y-96819428D01*
X153415142Y-96767047D01*
X153519904Y-96714666D01*
X153729428Y-96662285D01*
X153991333Y-96662285D01*
X154200857Y-96714666D01*
X154305619Y-96767047D01*
X154358000Y-96819428D01*
X154410380Y-96924190D01*
X151510380Y-87286095D02*
X152610380Y-87286095D01*
X152610380Y-87548000D01*
X152558000Y-87705142D01*
X152453238Y-87809904D01*
X152348476Y-87862285D01*
X152138952Y-87914666D01*
X151981809Y-87914666D01*
X151772285Y-87862285D01*
X151667523Y-87809904D01*
X151562761Y-87705142D01*
X151510380Y-87548000D01*
X151510380Y-87286095D01*
X151510380Y-88857523D02*
X152086571Y-88857523D01*
X152191333Y-88805142D01*
X152243714Y-88700380D01*
X152243714Y-88490857D01*
X152191333Y-88386095D01*
X151562761Y-88857523D02*
X151510380Y-88752761D01*
X151510380Y-88490857D01*
X151562761Y-88386095D01*
X151667523Y-88333714D01*
X151772285Y-88333714D01*
X151877047Y-88386095D01*
X151929428Y-88490857D01*
X151929428Y-88752761D01*
X151981809Y-88857523D01*
X151510380Y-89381333D02*
X152243714Y-89381333D01*
X152034190Y-89381333D02*
X152138952Y-89433714D01*
X152191333Y-89486095D01*
X152243714Y-89590857D01*
X152243714Y-89695619D01*
X151510380Y-90062285D02*
X152243714Y-90062285D01*
X152034190Y-90062285D02*
X152138952Y-90114666D01*
X152191333Y-90167047D01*
X152243714Y-90271809D01*
X152243714Y-90376571D01*
X151562761Y-91162285D02*
X151510380Y-91057523D01*
X151510380Y-90848000D01*
X151562761Y-90743238D01*
X151667523Y-90690857D01*
X152086571Y-90690857D01*
X152191333Y-90743238D01*
X152243714Y-90848000D01*
X152243714Y-91057523D01*
X152191333Y-91162285D01*
X152086571Y-91214666D01*
X151981809Y-91214666D01*
X151877047Y-90690857D01*
X152243714Y-91686095D02*
X151510380Y-91686095D01*
X152138952Y-91686095D02*
X152191333Y-91738476D01*
X152243714Y-91843238D01*
X152243714Y-92000380D01*
X152191333Y-92105142D01*
X152086571Y-92157523D01*
X151510380Y-92157523D01*
X151615142Y-94148000D02*
X151562761Y-94095619D01*
X151510380Y-93938476D01*
X151510380Y-93833714D01*
X151562761Y-93676571D01*
X151667523Y-93571809D01*
X151772285Y-93519428D01*
X151981809Y-93467047D01*
X152138952Y-93467047D01*
X152348476Y-93519428D01*
X152453238Y-93571809D01*
X152558000Y-93676571D01*
X152610380Y-93833714D01*
X152610380Y-93938476D01*
X152558000Y-94095619D01*
X152505619Y-94148000D01*
X151510380Y-94619428D02*
X152610380Y-94619428D01*
X151510380Y-95090857D02*
X152086571Y-95090857D01*
X152191333Y-95038476D01*
X152243714Y-94933714D01*
X152243714Y-94776571D01*
X152191333Y-94671809D01*
X152138952Y-94619428D01*
X151510380Y-95614666D02*
X152243714Y-95614666D01*
X152610380Y-95614666D02*
X152558000Y-95562285D01*
X152505619Y-95614666D01*
X152558000Y-95667047D01*
X152610380Y-95614666D01*
X152505619Y-95614666D01*
X152243714Y-96609904D02*
X151510380Y-96609904D01*
X152243714Y-96138476D02*
X151667523Y-96138476D01*
X151562761Y-96190857D01*
X151510380Y-96295619D01*
X151510380Y-96452761D01*
X151562761Y-96557523D01*
X151615142Y-96609904D01*
X170600857Y-95432571D02*
X170743714Y-95480190D01*
X170791333Y-95527809D01*
X170838952Y-95623047D01*
X170838952Y-95765904D01*
X170791333Y-95861142D01*
X170743714Y-95908761D01*
X170648476Y-95956380D01*
X170267523Y-95956380D01*
X170267523Y-94956380D01*
X170600857Y-94956380D01*
X170696095Y-95004000D01*
X170743714Y-95051619D01*
X170791333Y-95146857D01*
X170791333Y-95242095D01*
X170743714Y-95337333D01*
X170696095Y-95384952D01*
X170600857Y-95432571D01*
X170267523Y-95432571D01*
X171458000Y-94956380D02*
X171648476Y-94956380D01*
X171743714Y-95004000D01*
X171838952Y-95099238D01*
X171886571Y-95289714D01*
X171886571Y-95623047D01*
X171838952Y-95813523D01*
X171743714Y-95908761D01*
X171648476Y-95956380D01*
X171458000Y-95956380D01*
X171362761Y-95908761D01*
X171267523Y-95813523D01*
X171219904Y-95623047D01*
X171219904Y-95289714D01*
X171267523Y-95099238D01*
X171362761Y-95004000D01*
X171458000Y-94956380D01*
X172505619Y-94956380D02*
X172696095Y-94956380D01*
X172791333Y-95004000D01*
X172886571Y-95099238D01*
X172934190Y-95289714D01*
X172934190Y-95623047D01*
X172886571Y-95813523D01*
X172791333Y-95908761D01*
X172696095Y-95956380D01*
X172505619Y-95956380D01*
X172410380Y-95908761D01*
X172315142Y-95813523D01*
X172267523Y-95623047D01*
X172267523Y-95289714D01*
X172315142Y-95099238D01*
X172410380Y-95004000D01*
X172505619Y-94956380D01*
X173219904Y-94956380D02*
X173791333Y-94956380D01*
X173505619Y-95956380D02*
X173505619Y-94956380D01*
X160345619Y-95956380D02*
X160012285Y-95480190D01*
X159774190Y-95956380D02*
X159774190Y-94956380D01*
X160155142Y-94956380D01*
X160250380Y-95004000D01*
X160298000Y-95051619D01*
X160345619Y-95146857D01*
X160345619Y-95289714D01*
X160298000Y-95384952D01*
X160250380Y-95432571D01*
X160155142Y-95480190D01*
X159774190Y-95480190D01*
X160774190Y-95432571D02*
X161107523Y-95432571D01*
X161250380Y-95956380D02*
X160774190Y-95956380D01*
X160774190Y-94956380D01*
X161250380Y-94956380D01*
X161631333Y-95908761D02*
X161774190Y-95956380D01*
X162012285Y-95956380D01*
X162107523Y-95908761D01*
X162155142Y-95861142D01*
X162202761Y-95765904D01*
X162202761Y-95670666D01*
X162155142Y-95575428D01*
X162107523Y-95527809D01*
X162012285Y-95480190D01*
X161821809Y-95432571D01*
X161726571Y-95384952D01*
X161678952Y-95337333D01*
X161631333Y-95242095D01*
X161631333Y-95146857D01*
X161678952Y-95051619D01*
X161726571Y-95004000D01*
X161821809Y-94956380D01*
X162059904Y-94956380D01*
X162202761Y-95004000D01*
X162631333Y-95432571D02*
X162964666Y-95432571D01*
X163107523Y-95956380D02*
X162631333Y-95956380D01*
X162631333Y-94956380D01*
X163107523Y-94956380D01*
X163393238Y-94956380D02*
X163964666Y-94956380D01*
X163678952Y-95956380D02*
X163678952Y-94956380D01*
D13*
%TO.C,R4*%
X154786359Y-62356000D02*
X155093641Y-62356000D01*
X154786359Y-61596000D02*
X155093641Y-61596000D01*
%TO.C,C15*%
X157333836Y-71734000D02*
X157118164Y-71734000D01*
X157333836Y-71014000D02*
X157118164Y-71014000D01*
%TO.C,R6*%
X166355500Y-71357258D02*
X166355500Y-70882742D01*
X167400500Y-71357258D02*
X167400500Y-70882742D01*
%TO.C,C13*%
X160127836Y-69448000D02*
X159912164Y-69448000D01*
X160127836Y-68728000D02*
X159912164Y-68728000D01*
%TO.C,C19*%
X169566000Y-93579836D02*
X169566000Y-93364164D01*
X170286000Y-93579836D02*
X170286000Y-93364164D01*
%TO.C,C18*%
X168042000Y-93579836D02*
X168042000Y-93364164D01*
X168762000Y-93579836D02*
X168762000Y-93364164D01*
%TO.C,C12*%
X175154000Y-60051836D02*
X175154000Y-59836164D01*
X175874000Y-60051836D02*
X175874000Y-59836164D01*
%TO.C,C11*%
X164190000Y-63138164D02*
X164190000Y-63353836D01*
X163470000Y-63138164D02*
X163470000Y-63353836D01*
%TO.C,C8*%
X169524000Y-63138164D02*
X169524000Y-63353836D01*
X168804000Y-63138164D02*
X168804000Y-63353836D01*
%TO.C,C17*%
X165460000Y-63138164D02*
X165460000Y-63353836D01*
X164740000Y-63138164D02*
X164740000Y-63353836D01*
%TO.C,U1*%
X171665113Y-81598198D02*
X171983311Y-81280000D01*
X171983311Y-81280000D02*
X171665113Y-80961802D01*
X167196198Y-86067113D02*
X166878000Y-86385311D01*
X166878000Y-86385311D02*
X166559802Y-86067113D01*
X166559802Y-76492887D02*
X166878000Y-76174689D01*
X166878000Y-76174689D02*
X167196198Y-76492887D01*
X162090887Y-80961802D02*
X161772689Y-81280000D01*
X161772689Y-81280000D02*
X162090887Y-81598198D01*
X162090887Y-81598198D02*
X161178719Y-82510366D01*
%TO.C,J3*%
X178323500Y-68416000D02*
X178323500Y-67966000D01*
X180173500Y-68416000D02*
X178323500Y-68416000D01*
X182723500Y-60616000D02*
X182473500Y-60616000D01*
X182723500Y-68416000D02*
X182473500Y-68416000D01*
X180173500Y-60616000D02*
X178323500Y-60616000D01*
X178323500Y-60616000D02*
X178323500Y-61066000D01*
X177773500Y-66216000D02*
X177773500Y-65766000D01*
X177773500Y-66216000D02*
X178223500Y-66216000D01*
%TO.C,J5*%
X180246000Y-72900000D02*
X181356000Y-72900000D01*
X180246000Y-73660000D02*
X180246000Y-72900000D01*
X181919471Y-74420000D02*
X182466000Y-74420000D01*
X180246000Y-74420000D02*
X180792529Y-74420000D01*
X182466000Y-74420000D02*
X182466000Y-81975000D01*
X180246000Y-74420000D02*
X180246000Y-81975000D01*
X181663530Y-81975000D02*
X182466000Y-81975000D01*
X180246000Y-81975000D02*
X181048470Y-81975000D01*
%TO.C,U4*%
X178054000Y-94927000D02*
X180779000Y-94927000D01*
X180779000Y-94927000D02*
X180779000Y-94667000D01*
X178054000Y-94927000D02*
X175329000Y-94927000D01*
X175329000Y-94927000D02*
X175329000Y-94667000D01*
X178054000Y-89477000D02*
X180779000Y-89477000D01*
X180779000Y-89477000D02*
X180779000Y-89737000D01*
X178054000Y-89477000D02*
X175329000Y-89477000D01*
X175329000Y-89477000D02*
X175329000Y-89737000D01*
X175329000Y-89737000D02*
X173654000Y-89737000D01*
%TO.C,J6*%
X151036000Y-77472000D02*
X152146000Y-77472000D01*
X151036000Y-78232000D02*
X151036000Y-77472000D01*
X152709471Y-78992000D02*
X153256000Y-78992000D01*
X151036000Y-78992000D02*
X151582529Y-78992000D01*
X153256000Y-78992000D02*
X153256000Y-85277000D01*
X151036000Y-78992000D02*
X151036000Y-85277000D01*
X152453530Y-85277000D02*
X153256000Y-85277000D01*
X151036000Y-85277000D02*
X151838470Y-85277000D01*
%TO.C,J2*%
X180246000Y-69344000D02*
X181356000Y-69344000D01*
X180246000Y-70104000D02*
X180246000Y-69344000D01*
X181919471Y-70864000D02*
X182466000Y-70864000D01*
X180246000Y-70864000D02*
X180792529Y-70864000D01*
X182466000Y-70864000D02*
X182466000Y-72069000D01*
X180246000Y-70864000D02*
X180246000Y-72069000D01*
X181663530Y-72069000D02*
X182466000Y-72069000D01*
X180246000Y-72069000D02*
X181048470Y-72069000D01*
%TO.C,J4*%
X180246000Y-82552000D02*
X181356000Y-82552000D01*
X180246000Y-83312000D02*
X180246000Y-82552000D01*
X181919471Y-84072000D02*
X182466000Y-84072000D01*
X180246000Y-84072000D02*
X180792529Y-84072000D01*
X182466000Y-84072000D02*
X182466000Y-87817000D01*
X180246000Y-84072000D02*
X180246000Y-87817000D01*
X181663530Y-87817000D02*
X182466000Y-87817000D01*
X180246000Y-87817000D02*
X181048470Y-87817000D01*
%TO.C,SW1*%
X158350000Y-98854000D02*
X158350000Y-100354000D01*
X159600000Y-102854000D02*
X164100000Y-102854000D01*
X165350000Y-100354000D02*
X165350000Y-98854000D01*
X164100000Y-96354000D02*
X159600000Y-96354000D01*
%TO.C,R9*%
X175106359Y-65912000D02*
X175413641Y-65912000D01*
X175106359Y-65152000D02*
X175413641Y-65152000D01*
%TO.C,R8*%
X174598359Y-64642000D02*
X174905641Y-64642000D01*
X174598359Y-63882000D02*
X174905641Y-63882000D01*
%TO.C,R3*%
X156310359Y-63880000D02*
X156617641Y-63880000D01*
X156310359Y-63120000D02*
X156617641Y-63120000D01*
%TO.C,R2*%
X177928000Y-87730359D02*
X177928000Y-88037641D01*
X178688000Y-87730359D02*
X178688000Y-88037641D01*
%TO.C,R1*%
X176658000Y-85954359D02*
X176658000Y-86261641D01*
X177418000Y-85954359D02*
X177418000Y-86261641D01*
%TO.C,C1*%
X155626307Y-78663190D02*
X155778810Y-78815693D01*
X155117190Y-79172307D02*
X155269693Y-79324810D01*
%TO.C,C2*%
X155749970Y-86860781D02*
X155948781Y-86661970D01*
X156471219Y-87582030D02*
X156670030Y-87383219D01*
%TO.C,C3*%
X162044781Y-86058030D02*
X161845970Y-85859219D01*
X162766030Y-85336781D02*
X162567219Y-85137970D01*
%TO.C,C4*%
X158318810Y-79323693D02*
X158166307Y-79171190D01*
X157809693Y-79832810D02*
X157657190Y-79680307D01*
%TO.C,C5*%
X156642307Y-77647190D02*
X156794810Y-77799693D01*
X156133190Y-78156307D02*
X156285693Y-78308810D01*
%TO.C,C6*%
X159334810Y-78561693D02*
X159182307Y-78409190D01*
X158825693Y-79070810D02*
X158673190Y-78918307D01*
%TO.C,C7*%
X157063779Y-77308896D02*
X157216282Y-77461399D01*
X157572896Y-76799779D02*
X157725399Y-76952282D01*
%TO.C,C9*%
X156793693Y-80848810D02*
X156641190Y-80696307D01*
X157302810Y-80339693D02*
X157150307Y-80187190D01*
%TO.C,C10*%
X160857693Y-91262810D02*
X160705190Y-91110307D01*
X161366810Y-90753693D02*
X161214307Y-90601190D01*
%TO.C,C16*%
X160022000Y-65164580D02*
X160022000Y-64883420D01*
X159002000Y-65164580D02*
X159002000Y-64883420D01*
%TO.C,D1*%
X167613000Y-68541000D02*
X167613000Y-66256000D01*
X166143000Y-68541000D02*
X167613000Y-68541000D01*
X166143000Y-66256000D02*
X166143000Y-68541000D01*
%TO.C,D2*%
X163252591Y-87584038D02*
X164868330Y-89199777D01*
X164868330Y-89199777D02*
X165907777Y-88160330D01*
X165907777Y-88160330D02*
X164292038Y-86544591D01*
%TO.C,D3*%
X165635000Y-89116000D02*
X165635000Y-91401000D01*
X165635000Y-91401000D02*
X167105000Y-91401000D01*
X167105000Y-91401000D02*
X167105000Y-89116000D01*
%TO.C,J1*%
X160486000Y-58420000D02*
G75*
G03*
X160486000Y-58420000I-1680000J0D01*
G01*
X164116000Y-54320000D02*
X156996000Y-54320000D01*
X164116000Y-55420000D02*
X156996000Y-55420000D01*
X164116000Y-61580000D02*
X156996000Y-61580000D01*
X164116000Y-53860000D02*
X156996000Y-53860000D01*
X164116000Y-61580000D02*
X164116000Y-53860000D01*
X156996000Y-61580000D02*
X156996000Y-53860000D01*
X157531000Y-59489000D02*
X157660000Y-59361000D01*
X159781000Y-57239000D02*
X159875000Y-57146000D01*
X157736000Y-59695000D02*
X157830000Y-59601000D01*
X159951000Y-57479000D02*
X160080000Y-57351000D01*
X164356000Y-54260000D02*
X164356000Y-53620000D01*
X164356000Y-53620000D02*
X163956000Y-53620000D01*
X161415736Y-56995279D02*
G75*
G02*
X162306000Y-56740000I890264J-1424721D01*
G01*
X160880495Y-59310193D02*
G75*
G02*
X160881000Y-57529000I1425505J890193D01*
G01*
X163195894Y-59845358D02*
G75*
G02*
X161440000Y-59860000I-889894J1425358D01*
G01*
X163731358Y-57530106D02*
G75*
G02*
X163746000Y-59286000I-1425358J-889894D01*
G01*
X162277326Y-56739901D02*
G75*
G02*
X163172000Y-56980000I28674J-1680099D01*
G01*
%TO.C,R5*%
X160954282Y-84687165D02*
X160633165Y-85008282D01*
X159914835Y-83647718D02*
X159593718Y-83968835D01*
%TO.C,R7*%
X162530770Y-89101697D02*
X162866303Y-89437230D01*
X163269697Y-88362770D02*
X163605230Y-88698303D01*
%TO.C,R10*%
X165047697Y-91410770D02*
X165383230Y-91746303D01*
X164308770Y-92149697D02*
X164644303Y-92485230D01*
%TO.C,SW2*%
X169656000Y-102782000D02*
X174156000Y-102782000D01*
X168406000Y-98782000D02*
X168406000Y-100282000D01*
X174156000Y-96282000D02*
X169656000Y-96282000D01*
X175406000Y-100282000D02*
X175406000Y-98782000D01*
D12*
%TO.C,U2*%
X157852000Y-65668000D02*
X157852000Y-66193000D01*
X153552000Y-69968000D02*
X153552000Y-69443000D01*
X157852000Y-69968000D02*
X157852000Y-69443000D01*
X153552000Y-65668000D02*
X154077000Y-65668000D01*
X153552000Y-69968000D02*
X154077000Y-69968000D01*
X157852000Y-69968000D02*
X157327000Y-69968000D01*
X157852000Y-65668000D02*
X157327000Y-65668000D01*
D13*
%TO.C,U3*%
X171836000Y-61576000D02*
X171836000Y-60316000D01*
X171836000Y-54756000D02*
X171836000Y-56016000D01*
X168076000Y-61576000D02*
X171836000Y-61576000D01*
X165826000Y-54756000D02*
X171836000Y-54756000D01*
%TO.C,Y1*%
X161330940Y-88144513D02*
X158997487Y-85811060D01*
X158997487Y-85811060D02*
X156169060Y-88639487D01*
%TD*%
M02*
