%TF.GenerationSoftware,KiCad,Pcbnew,(5.1.8)-1*%
%TF.CreationDate,2021-05-13T19:04:10-07:00*%
%TF.ProjectId,Astromech3.0,41737472-6f6d-4656-9368-332e302e6b69,rev?*%
%TF.SameCoordinates,Original*%
%TF.FileFunction,Copper,L2,Bot*%
%TF.FilePolarity,Positive*%
%FSLAX46Y46*%
G04 Gerber Fmt 4.6, Leading zero omitted, Abs format (unit mm)*
G04 Created by KiCad (PCBNEW (5.1.8)-1) date 2021-05-13 19:04:10*
%MOMM*%
%LPD*%
G01*
G04 APERTURE LIST*
%TA.AperFunction,ComponentPad*%
%ADD10C,1.450000*%
%TD*%
%TA.AperFunction,ComponentPad*%
%ADD11O,1.900000X1.200000*%
%TD*%
%TA.AperFunction,ComponentPad*%
%ADD12C,3.800000*%
%TD*%
%TA.AperFunction,ComponentPad*%
%ADD13O,1.000000X1.000000*%
%TD*%
%TA.AperFunction,ComponentPad*%
%ADD14R,1.000000X1.000000*%
%TD*%
%TA.AperFunction,ComponentPad*%
%ADD15C,2.000000*%
%TD*%
%TA.AperFunction,ComponentPad*%
%ADD16R,2.400000X2.400000*%
%TD*%
%TA.AperFunction,ComponentPad*%
%ADD17C,2.400000*%
%TD*%
%TA.AperFunction,ViaPad*%
%ADD18C,0.800000*%
%TD*%
%TA.AperFunction,Conductor*%
%ADD19C,0.300000*%
%TD*%
%TA.AperFunction,Conductor*%
%ADD20C,0.250000*%
%TD*%
%TA.AperFunction,Conductor*%
%ADD21C,0.500000*%
%TD*%
%TA.AperFunction,Conductor*%
%ADD22C,1.000000*%
%TD*%
%TA.AperFunction,Conductor*%
%ADD23C,0.200000*%
%TD*%
G04 APERTURE END LIST*
D10*
%TO.P,J3,6*%
%TO.N,Net-(J3-Pad6)*%
X178623500Y-67016000D03*
X178623500Y-62016000D03*
D11*
X181323500Y-68016000D03*
X181323500Y-61016000D03*
%TD*%
D12*
%TO.P,H4,1*%
%TO.N,GND*%
X153670000Y-100076000D03*
%TD*%
D13*
%TO.P,J5,7*%
%TO.N,PB12*%
X181356000Y-81280000D03*
%TO.P,J5,6*%
%TO.N,PB13*%
X181356000Y-80010000D03*
%TO.P,J5,5*%
%TO.N,PB14*%
X181356000Y-78740000D03*
%TO.P,J5,4*%
%TO.N,PB15*%
X181356000Y-77470000D03*
%TO.P,J5,3*%
%TO.N,PA8*%
X181356000Y-76200000D03*
%TO.P,J5,2*%
%TO.N,PA9*%
X181356000Y-74930000D03*
D14*
%TO.P,J5,1*%
%TO.N,PA10*%
X181356000Y-73660000D03*
%TD*%
D13*
%TO.P,J6,6*%
%TO.N,PB9*%
X152146000Y-84582000D03*
%TO.P,J6,5*%
%TO.N,PB8*%
X152146000Y-83312000D03*
%TO.P,J6,4*%
%TO.N,PB5*%
X152146000Y-82042000D03*
%TO.P,J6,3*%
%TO.N,PB4*%
X152146000Y-80772000D03*
%TO.P,J6,2*%
%TO.N,PB3*%
X152146000Y-79502000D03*
D14*
%TO.P,J6,1*%
%TO.N,PA15*%
X152146000Y-78232000D03*
%TD*%
D13*
%TO.P,J2,2*%
%TO.N,SWCLK*%
X181356000Y-71374000D03*
D14*
%TO.P,J2,1*%
%TO.N,SWDIO*%
X181356000Y-70104000D03*
%TD*%
D12*
%TO.P,H3,1*%
%TO.N,GND*%
X179832000Y-57150000D03*
%TD*%
%TO.P,H2,1*%
%TO.N,GND*%
X153670000Y-57150000D03*
%TD*%
%TO.P,H1,1*%
%TO.N,GND*%
X179832000Y-100076000D03*
%TD*%
D13*
%TO.P,J4,4*%
%TO.N,GND*%
X181356000Y-87122000D03*
%TO.P,J4,3*%
%TO.N,UART_RX*%
X181356000Y-85852000D03*
%TO.P,J4,2*%
%TO.N,UART_TX*%
X181356000Y-84582000D03*
D14*
%TO.P,J4,1*%
%TO.N,+3V3*%
X181356000Y-83312000D03*
%TD*%
D15*
%TO.P,SW1,1*%
%TO.N,GND*%
X158600000Y-101854000D03*
%TO.P,SW1,2*%
%TO.N,RESET*%
X158600000Y-97354000D03*
%TO.P,SW1,1*%
%TO.N,GND*%
X165100000Y-101854000D03*
%TO.P,SW1,2*%
%TO.N,RESET*%
X165100000Y-97354000D03*
%TD*%
D16*
%TO.P,J1,1*%
%TO.N,I2C_SCL*%
X162306000Y-58420000D03*
D17*
%TO.P,J1,2*%
%TO.N,I2C_SDA*%
X158806000Y-58420000D03*
%TD*%
D15*
%TO.P,SW2,2*%
%TO.N,+3V3*%
X168656000Y-101782000D03*
%TO.P,SW2,1*%
%TO.N,BOOT0*%
X168656000Y-97282000D03*
%TO.P,SW2,2*%
%TO.N,+3V3*%
X175156000Y-101782000D03*
%TO.P,SW2,1*%
%TO.N,BOOT0*%
X175156000Y-97282000D03*
%TD*%
D18*
%TO.N,+3V3*%
X158242000Y-70104000D03*
X175514000Y-81534000D03*
X178308000Y-86323000D03*
X179324000Y-88392000D03*
X154432000Y-74422000D03*
X154178000Y-72136000D03*
X156210000Y-81280000D03*
X165946128Y-84050138D03*
X167640000Y-87376000D03*
X163322000Y-81534000D03*
X166624000Y-77724000D03*
X154890389Y-80214389D03*
X156440669Y-61952669D03*
X159253347Y-62733347D03*
%TO.N,GND*%
X160782000Y-66040000D03*
X176784000Y-61722000D03*
X176530000Y-83312000D03*
X177038000Y-96774000D03*
X168402000Y-95504000D03*
X166661000Y-95504000D03*
X169164000Y-65024000D03*
X162306001Y-67570500D03*
%TO.N,RESET*%
X165354000Y-83312000D03*
%TO.N,I2C_SCL*%
X162560000Y-69342000D03*
%TO.N,I2C_SDA*%
X159468361Y-72124000D03*
%TO.N,SWDIO*%
X169418000Y-73406000D03*
%TO.N,SWCLK*%
X169164000Y-71374000D03*
%TO.N,D+*%
X169902806Y-67564000D03*
X172974000Y-64753000D03*
%TO.N,D-*%
X170952806Y-67564000D03*
X172974000Y-65803000D03*
%TO.N,BOOT0*%
X165354000Y-79756000D03*
X167640000Y-83517116D03*
%TO.N,QSPI_CLK*%
X172688493Y-90204037D03*
X179832000Y-91440000D03*
%TO.N,PB9*%
X159766000Y-77456386D03*
%TO.N,PB8*%
X158843790Y-76945094D03*
%TO.N,PB5*%
X161725430Y-74748570D03*
%TO.N,PB4*%
X161122838Y-73950519D03*
%TO.N,PB3*%
X161901233Y-73225519D03*
%TO.N,PA15*%
X161290000Y-72390000D03*
%TO.N,SPI_MISO*%
X177292000Y-90678000D03*
X179058000Y-94234000D03*
%TO.N,SPI_MOSI*%
X171450000Y-86868000D03*
X171450000Y-91694000D03*
%TD*%
D19*
%TO.N,+3V3*%
X158242000Y-70104000D02*
X156972000Y-71374000D01*
D20*
X154178000Y-74168000D02*
X154432000Y-74422000D01*
X154178000Y-72136000D02*
X154178000Y-74168000D01*
X154940000Y-71374000D02*
X154178000Y-72136000D01*
X156972000Y-71374000D02*
X154940000Y-71374000D01*
D19*
X164596222Y-81534000D02*
X163322000Y-81534000D01*
X167640000Y-84577778D02*
X164596222Y-81534000D01*
X167640000Y-87376000D02*
X167640000Y-84577778D01*
X175514000Y-81534000D02*
X170683778Y-81534000D01*
D20*
X166624000Y-77724000D02*
X166624000Y-81280000D01*
D19*
X168780889Y-83436889D02*
X167640000Y-84577778D01*
D21*
X179324000Y-87339000D02*
X178308000Y-86323000D01*
X179324000Y-88392000D02*
X179324000Y-87339000D01*
X177292000Y-81534000D02*
X175514000Y-81534000D01*
X178308000Y-82550000D02*
X177292000Y-81534000D01*
X178308000Y-83312000D02*
X181356000Y-83312000D01*
X178308000Y-86323000D02*
X178308000Y-83312000D01*
X178308000Y-83312000D02*
X178308000Y-82550000D01*
D19*
X166473768Y-84577778D02*
X165946128Y-84050138D01*
X167640000Y-84577778D02*
X166473768Y-84577778D01*
D20*
X166624000Y-81280000D02*
X168780889Y-83436889D01*
D19*
X170683778Y-81534000D02*
X168780889Y-83436889D01*
D22*
X168656000Y-101782000D02*
X175156000Y-101782000D01*
D20*
X155144389Y-80214389D02*
X156210000Y-81280000D01*
X154890389Y-80214389D02*
X155144389Y-80214389D01*
X159253347Y-62733347D02*
X159258000Y-62738000D01*
D19*
X157221347Y-62733347D02*
X159253347Y-62733347D01*
X156440669Y-61952669D02*
X157221347Y-62733347D01*
%TO.N,GND*%
X162306000Y-67564000D02*
X160782000Y-66040000D01*
D20*
X179832000Y-58674000D02*
X179832000Y-57150000D01*
D22*
X176784000Y-60198000D02*
X179832000Y-57150000D01*
X176784000Y-61722000D02*
X176784000Y-60198000D01*
D21*
X177038000Y-97282000D02*
X179832000Y-100076000D01*
X177038000Y-96774000D02*
X177038000Y-97282000D01*
X168402000Y-95504000D02*
X166774000Y-95504000D01*
D19*
X169164000Y-65024000D02*
X170942000Y-63246000D01*
X175260000Y-63246000D02*
X176784000Y-61722000D01*
X170942000Y-63246000D02*
X175260000Y-63246000D01*
X162306000Y-67570499D02*
X162306001Y-67570500D01*
X162306000Y-67564000D02*
X162306000Y-67570499D01*
D20*
%TO.N,RESET*%
X165214925Y-97239075D02*
X165100000Y-97354000D01*
X165214925Y-83262705D02*
X165214925Y-97239075D01*
%TO.N,I2C_SCL*%
X163031001Y-59145001D02*
X162306000Y-58420000D01*
X163031001Y-68870999D02*
X163031001Y-59145001D01*
X162560000Y-69342000D02*
X163031001Y-68870999D01*
%TO.N,I2C_SDA*%
X159987654Y-59601654D02*
X158806000Y-58420000D01*
X159987654Y-71604707D02*
X159987654Y-59601654D01*
X159468361Y-72124000D02*
X159987654Y-71604707D01*
%TO.N,SWDIO*%
X181294832Y-70042832D02*
X181356000Y-70104000D01*
X182181001Y-71770001D02*
X182181001Y-70929001D01*
X181116003Y-72834999D02*
X182181001Y-71770001D01*
X182181001Y-70929001D02*
X181356000Y-70104000D01*
X169989001Y-72834999D02*
X181116003Y-72834999D01*
X169418000Y-73406000D02*
X169989001Y-72834999D01*
%TO.N,SWCLK*%
X169164000Y-71374000D02*
X181356000Y-71374000D01*
%TO.N,Net-(J3-Pad6)*%
X180323500Y-67016000D02*
X181323500Y-68016000D01*
X178623500Y-67016000D02*
X180323500Y-67016000D01*
X180323500Y-62016000D02*
X181323500Y-61016000D01*
X178623500Y-62016000D02*
X180323500Y-62016000D01*
D23*
%TO.N,D+*%
X172674000Y-65053000D02*
X172974000Y-64753000D01*
X172413806Y-65053000D02*
X172674000Y-65053000D01*
X169902806Y-67564000D02*
X172413806Y-65053000D01*
%TO.N,D-*%
X170952806Y-67150397D02*
X172600203Y-65503000D01*
X170952806Y-67564000D02*
X170952806Y-67150397D01*
X172674000Y-65503000D02*
X172974000Y-65803000D01*
X172600203Y-65503000D02*
X172674000Y-65503000D01*
D20*
%TO.N,BOOT0*%
X165862000Y-80264000D02*
X165354000Y-79756000D01*
X165862000Y-81280000D02*
X165862000Y-80264000D01*
X165862000Y-81739116D02*
X165862000Y-81280000D01*
X167640000Y-83517116D02*
X165862000Y-81739116D01*
%TO.N,QSPI_CLK*%
X178196038Y-89804038D02*
X179832000Y-91440000D01*
X173088492Y-89804038D02*
X178196038Y-89804038D01*
X172688493Y-90204037D02*
X173088492Y-89804038D01*
%TO.N,PB9*%
X157988000Y-84582000D02*
X152146000Y-84582000D01*
X159766000Y-82804000D02*
X157988000Y-84582000D01*
X159766000Y-77456386D02*
X159766000Y-82804000D01*
%TO.N,PB8*%
X157988000Y-83312000D02*
X152146000Y-83312000D01*
X158843790Y-82456210D02*
X157988000Y-83312000D01*
X158843790Y-76945094D02*
X158843790Y-82456210D01*
%TO.N,PB5*%
X158495789Y-76220093D02*
X157988000Y-76727882D01*
X160253907Y-76220093D02*
X158495789Y-76220093D01*
X161725430Y-74748570D02*
X160253907Y-76220093D01*
X156521002Y-82042000D02*
X152146000Y-82042000D01*
X157988000Y-80575002D02*
X156521002Y-82042000D01*
X157988000Y-76727882D02*
X157988000Y-80575002D01*
%TO.N,PB4*%
X153307472Y-80772000D02*
X152146000Y-80772000D01*
X160128953Y-73950519D02*
X153307472Y-80772000D01*
X161122838Y-73950519D02*
X160128953Y-73950519D01*
%TO.N,PB3*%
X161901233Y-73225519D02*
X160200481Y-73225519D01*
X153924000Y-79502000D02*
X152146000Y-79502000D01*
X160200481Y-73225519D02*
X153924000Y-79502000D01*
%TO.N,PA15*%
X154433363Y-78232000D02*
X152146000Y-78232000D01*
X160275363Y-72390000D02*
X154433363Y-78232000D01*
X161290000Y-72390000D02*
X160275363Y-72390000D01*
%TO.N,SPI_MISO*%
X179058000Y-92444000D02*
X179058000Y-94234000D01*
X177292000Y-90678000D02*
X179058000Y-92444000D01*
%TO.N,SPI_MOSI*%
X171450000Y-86868000D02*
X171450000Y-91694000D01*
%TD*%
M02*
