M48
; DRILL file {KiCad (5.1.8)-1} date 12/28/20 13:01:43
; FORMAT={3:3/ absolute / metric / suppress leading zeros}
; #@! TF.CreationDate,2020-12-28T13:01:43-08:00
; #@! TF.GenerationSoftware,Kicad,Pcbnew,(5.1.8)-1
FMAT,2
METRIC,TZ
T1C0.400
T2C0.600
T3C0.850
T4C1.200
T5C4.300
T6C0.900
%
G90
G05
T1
X104720Y-119280
X105960Y-120370
X106930Y-122600
X108230Y-123730
X109510Y-122630
X109710Y-105110
X111330Y-105110
X112450Y-116590
X113900Y-85390
X115330Y-106580
X115570Y-90170
X116332Y-90932
X117060Y-107890
X118250Y-120080
X118610Y-113780
X119860Y-121440
X119960Y-114770
X120630Y-91260
X121158Y-87884
X121480Y-120080
X122190Y-81400
X123350Y-82630
X123760Y-108440
X124870Y-99320
X125190Y-120430
X125240Y-101580
X126530Y-121540
X127480Y-93840
X128520Y-120620
X129300Y-101380
X129320Y-97550
X129660Y-119040
X130048Y-91694
X130272Y-97025
X131180Y-96400
X131310Y-104520
X131572Y-91694
X132450Y-100120
X132860Y-122260
X134060Y-120720
X134112Y-75438
X135200Y-106070
X135382Y-90424
X135450Y-110400
X136652Y-84836
X136652Y-86360
X136750Y-92820
X137360Y-109570
X137663Y-91699
X137668Y-89408
X138176Y-110744
X138430Y-120390
X138600Y-76390
X138938Y-111506
X139700Y-112268
X139760Y-118790
X140208Y-89662
X140462Y-113030
X141224Y-112268
X141986Y-111506
X142000Y-108458
X142748Y-110744
X143600Y-120420
X146558Y-107188
X147066Y-90678
X147670Y-86600
X148200Y-99975
X149000Y-101200
X149200Y-99475
X150160Y-107320
X150180Y-93710
X150200Y-98963
X150200Y-101400
X150400Y-102600
X151480Y-95330
X151530Y-115220
X151800Y-104200
X152600Y-105400
X152800Y-101400
X153200Y-102600
X154600Y-104200
X155020Y-115070
X155200Y-100600
X155956Y-90424
X156000Y-105400
X157709Y-94426
X158216Y-95534
X159287Y-95487
X161720Y-98670
X161720Y-110390
X164200Y-118000
X170600Y-115600
X172970Y-80410
X173020Y-71070
X173020Y-85020
X175580Y-71080
X176800Y-71110
X178120Y-71070
T2
X92100Y-75000
X93045Y-72720
X93045Y-77280
X95325Y-71775
X95325Y-78225
X97605Y-72720
X97605Y-77280
X98550Y-75000
X92100Y-130500
X93045Y-128220
X93045Y-132780
X95325Y-127275
X95325Y-133725
X97605Y-128220
X97605Y-132780
X98550Y-130500
X182150Y-75000
X183095Y-72720
X183095Y-77280
X185375Y-71775
X185375Y-78225
X187655Y-72720
X187655Y-77280
X188600Y-75000
X182100Y-130500
X183045Y-128220
X183045Y-132780
X185325Y-127275
X185325Y-133725
X187605Y-128220
X187605Y-132780
X188550Y-130500
T3
X165650Y-130138
X170650Y-130138
T4
X185120Y-82670
X185120Y-86170
X185120Y-89670
X185120Y-93170
X185120Y-96670
X148010Y-130120
X151510Y-130120
X155010Y-130120
X158510Y-130120
X106100Y-130170
X109600Y-130170
X113100Y-130170
X116600Y-130170
X120100Y-130170
X123600Y-130170
X127100Y-130170
X130600Y-130170
X134100Y-130170
X137600Y-130170
X141100Y-130170
X95760Y-88700
X95760Y-92200
X95760Y-95700
X95760Y-99200
X95760Y-102700
X95760Y-106200
X185110Y-101830
X185110Y-105330
X185110Y-108830
X185110Y-112330
X185110Y-115830
X106790Y-75580
X110290Y-75580
X113790Y-75580
X117290Y-75580
T5
X95325Y-75000
X95325Y-130500
X185375Y-75000
X185325Y-130500
T6
X134910Y-72120
X137910Y-72120
T2
G00X164650Y-133188
M15
G01X164650Y-132487
M16
G05
G00X171650Y-132487
M15
G01X171650Y-133188
M16
G05
T0
M30
