%TF.GenerationSoftware,KiCad,Pcbnew,(5.1.8)-1*%
%TF.CreationDate,2020-12-28T13:01:50-08:00*%
%TF.ProjectId,STMboard,53544d62-6f61-4726-942e-6b696361645f,rev?*%
%TF.SameCoordinates,Original*%
%TF.FileFunction,Legend,Bot*%
%TF.FilePolarity,Positive*%
%FSLAX46Y46*%
G04 Gerber Fmt 4.6, Leading zero omitted, Abs format (unit mm)*
G04 Created by KiCad (PCBNEW (5.1.8)-1) date 2020-12-28 13:01:50*
%MOMM*%
%LPD*%
G01*
G04 APERTURE LIST*
%ADD10C,0.200000*%
%ADD11C,0.150000*%
G04 APERTURE END LIST*
D10*
X166938095Y-134327619D02*
X166938095Y-133518095D01*
X166985714Y-133422857D01*
X167033333Y-133375238D01*
X167128571Y-133327619D01*
X167319047Y-133327619D01*
X167414285Y-133375238D01*
X167461904Y-133422857D01*
X167509523Y-133518095D01*
X167509523Y-134327619D01*
X167938095Y-133375238D02*
X168080952Y-133327619D01*
X168319047Y-133327619D01*
X168414285Y-133375238D01*
X168461904Y-133422857D01*
X168509523Y-133518095D01*
X168509523Y-133613333D01*
X168461904Y-133708571D01*
X168414285Y-133756190D01*
X168319047Y-133803809D01*
X168128571Y-133851428D01*
X168033333Y-133899047D01*
X167985714Y-133946666D01*
X167938095Y-134041904D01*
X167938095Y-134137142D01*
X167985714Y-134232380D01*
X168033333Y-134280000D01*
X168128571Y-134327619D01*
X168366666Y-134327619D01*
X168509523Y-134280000D01*
X169271428Y-133851428D02*
X169414285Y-133803809D01*
X169461904Y-133756190D01*
X169509523Y-133660952D01*
X169509523Y-133518095D01*
X169461904Y-133422857D01*
X169414285Y-133375238D01*
X169319047Y-133327619D01*
X168938095Y-133327619D01*
X168938095Y-134327619D01*
X169271428Y-134327619D01*
X169366666Y-134280000D01*
X169414285Y-134232380D01*
X169461904Y-134137142D01*
X169461904Y-134041904D01*
X169414285Y-133946666D01*
X169366666Y-133899047D01*
X169271428Y-133851428D01*
X168938095Y-133851428D01*
X187592380Y-115729523D02*
X187592380Y-115253333D01*
X188068571Y-115205714D01*
X188020952Y-115253333D01*
X187973333Y-115348571D01*
X187973333Y-115586666D01*
X188020952Y-115681904D01*
X188068571Y-115729523D01*
X188163809Y-115777142D01*
X188401904Y-115777142D01*
X188497142Y-115729523D01*
X188544761Y-115681904D01*
X188592380Y-115586666D01*
X188592380Y-115348571D01*
X188544761Y-115253333D01*
X188497142Y-115205714D01*
X187592380Y-116062857D02*
X188592380Y-116396190D01*
X187592380Y-116729523D01*
X188582380Y-110825714D02*
X187582380Y-110825714D01*
X187582380Y-111206666D01*
X187630000Y-111301904D01*
X187677619Y-111349523D01*
X187772857Y-111397142D01*
X187915714Y-111397142D01*
X188010952Y-111349523D01*
X188058571Y-111301904D01*
X188106190Y-111206666D01*
X188106190Y-110825714D01*
X188487142Y-112397142D02*
X188534761Y-112349523D01*
X188582380Y-112206666D01*
X188582380Y-112111428D01*
X188534761Y-111968571D01*
X188439523Y-111873333D01*
X188344285Y-111825714D01*
X188153809Y-111778095D01*
X188010952Y-111778095D01*
X187820476Y-111825714D01*
X187725238Y-111873333D01*
X187630000Y-111968571D01*
X187582380Y-112111428D01*
X187582380Y-112206666D01*
X187630000Y-112349523D01*
X187677619Y-112397142D01*
X188582380Y-113349523D02*
X188582380Y-112778095D01*
X188582380Y-113063809D02*
X187582380Y-113063809D01*
X187725238Y-112968571D01*
X187820476Y-112873333D01*
X187868095Y-112778095D01*
X187582380Y-114254285D02*
X187582380Y-113778095D01*
X188058571Y-113730476D01*
X188010952Y-113778095D01*
X187963333Y-113873333D01*
X187963333Y-114111428D01*
X188010952Y-114206666D01*
X188058571Y-114254285D01*
X188153809Y-114301904D01*
X188391904Y-114301904D01*
X188487142Y-114254285D01*
X188534761Y-114206666D01*
X188582380Y-114111428D01*
X188582380Y-113873333D01*
X188534761Y-113778095D01*
X188487142Y-113730476D01*
X188572380Y-107511904D02*
X187572380Y-107511904D01*
X187572380Y-107892857D01*
X187620000Y-107988095D01*
X187667619Y-108035714D01*
X187762857Y-108083333D01*
X187905714Y-108083333D01*
X188000952Y-108035714D01*
X188048571Y-107988095D01*
X188096190Y-107892857D01*
X188096190Y-107511904D01*
X188477142Y-109083333D02*
X188524761Y-109035714D01*
X188572380Y-108892857D01*
X188572380Y-108797619D01*
X188524761Y-108654761D01*
X188429523Y-108559523D01*
X188334285Y-108511904D01*
X188143809Y-108464285D01*
X188000952Y-108464285D01*
X187810476Y-108511904D01*
X187715238Y-108559523D01*
X187620000Y-108654761D01*
X187572380Y-108797619D01*
X187572380Y-108892857D01*
X187620000Y-109035714D01*
X187667619Y-109083333D01*
X187572380Y-109940476D02*
X187572380Y-109750000D01*
X187620000Y-109654761D01*
X187667619Y-109607142D01*
X187810476Y-109511904D01*
X188000952Y-109464285D01*
X188381904Y-109464285D01*
X188477142Y-109511904D01*
X188524761Y-109559523D01*
X188572380Y-109654761D01*
X188572380Y-109845238D01*
X188524761Y-109940476D01*
X188477142Y-109988095D01*
X188381904Y-110035714D01*
X188143809Y-110035714D01*
X188048571Y-109988095D01*
X188000952Y-109940476D01*
X187953333Y-109845238D01*
X187953333Y-109654761D01*
X188000952Y-109559523D01*
X188048571Y-109511904D01*
X188143809Y-109464285D01*
X188572380Y-103981904D02*
X187572380Y-103981904D01*
X187572380Y-104362857D01*
X187620000Y-104458095D01*
X187667619Y-104505714D01*
X187762857Y-104553333D01*
X187905714Y-104553333D01*
X188000952Y-104505714D01*
X188048571Y-104458095D01*
X188096190Y-104362857D01*
X188096190Y-103981904D01*
X188477142Y-105553333D02*
X188524761Y-105505714D01*
X188572380Y-105362857D01*
X188572380Y-105267619D01*
X188524761Y-105124761D01*
X188429523Y-105029523D01*
X188334285Y-104981904D01*
X188143809Y-104934285D01*
X188000952Y-104934285D01*
X187810476Y-104981904D01*
X187715238Y-105029523D01*
X187620000Y-105124761D01*
X187572380Y-105267619D01*
X187572380Y-105362857D01*
X187620000Y-105505714D01*
X187667619Y-105553333D01*
X187572380Y-105886666D02*
X187572380Y-106553333D01*
X188572380Y-106124761D01*
X188572380Y-100321904D02*
X187572380Y-100321904D01*
X187572380Y-100702857D01*
X187620000Y-100798095D01*
X187667619Y-100845714D01*
X187762857Y-100893333D01*
X187905714Y-100893333D01*
X188000952Y-100845714D01*
X188048571Y-100798095D01*
X188096190Y-100702857D01*
X188096190Y-100321904D01*
X188477142Y-101893333D02*
X188524761Y-101845714D01*
X188572380Y-101702857D01*
X188572380Y-101607619D01*
X188524761Y-101464761D01*
X188429523Y-101369523D01*
X188334285Y-101321904D01*
X188143809Y-101274285D01*
X188000952Y-101274285D01*
X187810476Y-101321904D01*
X187715238Y-101369523D01*
X187620000Y-101464761D01*
X187572380Y-101607619D01*
X187572380Y-101702857D01*
X187620000Y-101845714D01*
X187667619Y-101893333D01*
X188000952Y-102464761D02*
X187953333Y-102369523D01*
X187905714Y-102321904D01*
X187810476Y-102274285D01*
X187762857Y-102274285D01*
X187667619Y-102321904D01*
X187620000Y-102369523D01*
X187572380Y-102464761D01*
X187572380Y-102655238D01*
X187620000Y-102750476D01*
X187667619Y-102798095D01*
X187762857Y-102845714D01*
X187810476Y-102845714D01*
X187905714Y-102798095D01*
X187953333Y-102750476D01*
X188000952Y-102655238D01*
X188000952Y-102464761D01*
X188048571Y-102369523D01*
X188096190Y-102321904D01*
X188191428Y-102274285D01*
X188381904Y-102274285D01*
X188477142Y-102321904D01*
X188524761Y-102369523D01*
X188572380Y-102464761D01*
X188572380Y-102655238D01*
X188524761Y-102750476D01*
X188477142Y-102798095D01*
X188381904Y-102845714D01*
X188191428Y-102845714D01*
X188096190Y-102798095D01*
X188048571Y-102750476D01*
X188000952Y-102655238D01*
X187622380Y-96309523D02*
X187622380Y-95833333D01*
X188098571Y-95785714D01*
X188050952Y-95833333D01*
X188003333Y-95928571D01*
X188003333Y-96166666D01*
X188050952Y-96261904D01*
X188098571Y-96309523D01*
X188193809Y-96357142D01*
X188431904Y-96357142D01*
X188527142Y-96309523D01*
X188574761Y-96261904D01*
X188622380Y-96166666D01*
X188622380Y-95928571D01*
X188574761Y-95833333D01*
X188527142Y-95785714D01*
X187622380Y-96642857D02*
X188622380Y-96976190D01*
X187622380Y-97309523D01*
X188582380Y-91591904D02*
X187582380Y-91591904D01*
X187582380Y-91972857D01*
X187630000Y-92068095D01*
X187677619Y-92115714D01*
X187772857Y-92163333D01*
X187915714Y-92163333D01*
X188010952Y-92115714D01*
X188058571Y-92068095D01*
X188106190Y-91972857D01*
X188106190Y-91591904D01*
X188487142Y-93163333D02*
X188534761Y-93115714D01*
X188582380Y-92972857D01*
X188582380Y-92877619D01*
X188534761Y-92734761D01*
X188439523Y-92639523D01*
X188344285Y-92591904D01*
X188153809Y-92544285D01*
X188010952Y-92544285D01*
X187820476Y-92591904D01*
X187725238Y-92639523D01*
X187630000Y-92734761D01*
X187582380Y-92877619D01*
X187582380Y-92972857D01*
X187630000Y-93115714D01*
X187677619Y-93163333D01*
X188582380Y-93639523D02*
X188582380Y-93830000D01*
X188534761Y-93925238D01*
X188487142Y-93972857D01*
X188344285Y-94068095D01*
X188153809Y-94115714D01*
X187772857Y-94115714D01*
X187677619Y-94068095D01*
X187630000Y-94020476D01*
X187582380Y-93925238D01*
X187582380Y-93734761D01*
X187630000Y-93639523D01*
X187677619Y-93591904D01*
X187772857Y-93544285D01*
X188010952Y-93544285D01*
X188106190Y-93591904D01*
X188153809Y-93639523D01*
X188201428Y-93734761D01*
X188201428Y-93925238D01*
X188153809Y-94020476D01*
X188106190Y-94068095D01*
X188010952Y-94115714D01*
X188632380Y-88083333D02*
X187632380Y-88083333D01*
X187632380Y-88464285D01*
X187680000Y-88559523D01*
X187727619Y-88607142D01*
X187822857Y-88654761D01*
X187965714Y-88654761D01*
X188060952Y-88607142D01*
X188108571Y-88559523D01*
X188156190Y-88464285D01*
X188156190Y-88083333D01*
X188346666Y-89035714D02*
X188346666Y-89511904D01*
X188632380Y-88940476D02*
X187632380Y-89273809D01*
X188632380Y-89607142D01*
X188060952Y-90083333D02*
X188013333Y-89988095D01*
X187965714Y-89940476D01*
X187870476Y-89892857D01*
X187822857Y-89892857D01*
X187727619Y-89940476D01*
X187680000Y-89988095D01*
X187632380Y-90083333D01*
X187632380Y-90273809D01*
X187680000Y-90369047D01*
X187727619Y-90416666D01*
X187822857Y-90464285D01*
X187870476Y-90464285D01*
X187965714Y-90416666D01*
X188013333Y-90369047D01*
X188060952Y-90273809D01*
X188060952Y-90083333D01*
X188108571Y-89988095D01*
X188156190Y-89940476D01*
X188251428Y-89892857D01*
X188441904Y-89892857D01*
X188537142Y-89940476D01*
X188584761Y-89988095D01*
X188632380Y-90083333D01*
X188632380Y-90273809D01*
X188584761Y-90369047D01*
X188537142Y-90416666D01*
X188441904Y-90464285D01*
X188251428Y-90464285D01*
X188156190Y-90416666D01*
X188108571Y-90369047D01*
X188060952Y-90273809D01*
X188622380Y-84593333D02*
X187622380Y-84593333D01*
X187622380Y-84974285D01*
X187670000Y-85069523D01*
X187717619Y-85117142D01*
X187812857Y-85164761D01*
X187955714Y-85164761D01*
X188050952Y-85117142D01*
X188098571Y-85069523D01*
X188146190Y-84974285D01*
X188146190Y-84593333D01*
X188336666Y-85545714D02*
X188336666Y-86021904D01*
X188622380Y-85450476D02*
X187622380Y-85783809D01*
X188622380Y-86117142D01*
X188622380Y-86498095D02*
X188622380Y-86688571D01*
X188574761Y-86783809D01*
X188527142Y-86831428D01*
X188384285Y-86926666D01*
X188193809Y-86974285D01*
X187812857Y-86974285D01*
X187717619Y-86926666D01*
X187670000Y-86879047D01*
X187622380Y-86783809D01*
X187622380Y-86593333D01*
X187670000Y-86498095D01*
X187717619Y-86450476D01*
X187812857Y-86402857D01*
X188050952Y-86402857D01*
X188146190Y-86450476D01*
X188193809Y-86498095D01*
X188241428Y-86593333D01*
X188241428Y-86783809D01*
X188193809Y-86879047D01*
X188146190Y-86926666D01*
X188050952Y-86974285D01*
X188542380Y-80587142D02*
X187542380Y-80587142D01*
X187542380Y-80968095D01*
X187590000Y-81063333D01*
X187637619Y-81110952D01*
X187732857Y-81158571D01*
X187875714Y-81158571D01*
X187970952Y-81110952D01*
X188018571Y-81063333D01*
X188066190Y-80968095D01*
X188066190Y-80587142D01*
X188256666Y-81539523D02*
X188256666Y-82015714D01*
X188542380Y-81444285D02*
X187542380Y-81777619D01*
X188542380Y-82110952D01*
X188542380Y-82968095D02*
X188542380Y-82396666D01*
X188542380Y-82682380D02*
X187542380Y-82682380D01*
X187685238Y-82587142D01*
X187780476Y-82491904D01*
X187828095Y-82396666D01*
X187542380Y-83587142D02*
X187542380Y-83682380D01*
X187590000Y-83777619D01*
X187637619Y-83825238D01*
X187732857Y-83872857D01*
X187923333Y-83920476D01*
X188161428Y-83920476D01*
X188351904Y-83872857D01*
X188447142Y-83825238D01*
X188494761Y-83777619D01*
X188542380Y-83682380D01*
X188542380Y-83587142D01*
X188494761Y-83491904D01*
X188447142Y-83444285D01*
X188351904Y-83396666D01*
X188161428Y-83349047D01*
X187923333Y-83349047D01*
X187732857Y-83396666D01*
X187637619Y-83444285D01*
X187590000Y-83491904D01*
X187542380Y-83587142D01*
X118588095Y-72152380D02*
X117969047Y-72152380D01*
X118302380Y-72533333D01*
X118159523Y-72533333D01*
X118064285Y-72580952D01*
X118016666Y-72628571D01*
X117969047Y-72723809D01*
X117969047Y-72961904D01*
X118016666Y-73057142D01*
X118064285Y-73104761D01*
X118159523Y-73152380D01*
X118445238Y-73152380D01*
X118540476Y-73104761D01*
X118588095Y-73057142D01*
X117683333Y-72152380D02*
X117350000Y-73152380D01*
X117016666Y-72152380D01*
X116778571Y-72152380D02*
X116159523Y-72152380D01*
X116492857Y-72533333D01*
X116350000Y-72533333D01*
X116254761Y-72580952D01*
X116207142Y-72628571D01*
X116159523Y-72723809D01*
X116159523Y-72961904D01*
X116207142Y-73057142D01*
X116254761Y-73104761D01*
X116350000Y-73152380D01*
X116635714Y-73152380D01*
X116730952Y-73104761D01*
X116778571Y-73057142D01*
X114930476Y-73174761D02*
X114787619Y-73222380D01*
X114549523Y-73222380D01*
X114454285Y-73174761D01*
X114406666Y-73127142D01*
X114359047Y-73031904D01*
X114359047Y-72936666D01*
X114406666Y-72841428D01*
X114454285Y-72793809D01*
X114549523Y-72746190D01*
X114740000Y-72698571D01*
X114835238Y-72650952D01*
X114882857Y-72603333D01*
X114930476Y-72508095D01*
X114930476Y-72412857D01*
X114882857Y-72317619D01*
X114835238Y-72270000D01*
X114740000Y-72222380D01*
X114501904Y-72222380D01*
X114359047Y-72270000D01*
X113359047Y-73127142D02*
X113406666Y-73174761D01*
X113549523Y-73222380D01*
X113644761Y-73222380D01*
X113787619Y-73174761D01*
X113882857Y-73079523D01*
X113930476Y-72984285D01*
X113978095Y-72793809D01*
X113978095Y-72650952D01*
X113930476Y-72460476D01*
X113882857Y-72365238D01*
X113787619Y-72270000D01*
X113644761Y-72222380D01*
X113549523Y-72222380D01*
X113406666Y-72270000D01*
X113359047Y-72317619D01*
X112454285Y-73222380D02*
X112930476Y-73222380D01*
X112930476Y-72222380D01*
X111454285Y-73214761D02*
X111311428Y-73262380D01*
X111073333Y-73262380D01*
X110978095Y-73214761D01*
X110930476Y-73167142D01*
X110882857Y-73071904D01*
X110882857Y-72976666D01*
X110930476Y-72881428D01*
X110978095Y-72833809D01*
X111073333Y-72786190D01*
X111263809Y-72738571D01*
X111359047Y-72690952D01*
X111406666Y-72643333D01*
X111454285Y-72548095D01*
X111454285Y-72452857D01*
X111406666Y-72357619D01*
X111359047Y-72310000D01*
X111263809Y-72262380D01*
X111025714Y-72262380D01*
X110882857Y-72310000D01*
X110454285Y-73262380D02*
X110454285Y-72262380D01*
X110216190Y-72262380D01*
X110073333Y-72310000D01*
X109978095Y-72405238D01*
X109930476Y-72500476D01*
X109882857Y-72690952D01*
X109882857Y-72833809D01*
X109930476Y-73024285D01*
X109978095Y-73119523D01*
X110073333Y-73214761D01*
X110216190Y-73262380D01*
X110454285Y-73262380D01*
X109501904Y-72976666D02*
X109025714Y-72976666D01*
X109597142Y-73262380D02*
X109263809Y-72262380D01*
X108930476Y-73262380D01*
D11*
X155146666Y-134092380D02*
X155480000Y-133616190D01*
X155718095Y-134092380D02*
X155718095Y-133092380D01*
X155337142Y-133092380D01*
X155241904Y-133140000D01*
X155194285Y-133187619D01*
X155146666Y-133282857D01*
X155146666Y-133425714D01*
X155194285Y-133520952D01*
X155241904Y-133568571D01*
X155337142Y-133616190D01*
X155718095Y-133616190D01*
X154813333Y-133092380D02*
X154146666Y-134092380D01*
X154146666Y-133092380D02*
X154813333Y-134092380D01*
X152101904Y-133052380D02*
X151530476Y-133052380D01*
X151816190Y-134052380D02*
X151816190Y-133052380D01*
X151292380Y-133052380D02*
X150625714Y-134052380D01*
X150625714Y-133052380D02*
X151292380Y-134052380D01*
X149008095Y-133092380D02*
X148389047Y-133092380D01*
X148722380Y-133473333D01*
X148579523Y-133473333D01*
X148484285Y-133520952D01*
X148436666Y-133568571D01*
X148389047Y-133663809D01*
X148389047Y-133901904D01*
X148436666Y-133997142D01*
X148484285Y-134044761D01*
X148579523Y-134092380D01*
X148865238Y-134092380D01*
X148960476Y-134044761D01*
X149008095Y-133997142D01*
X148103333Y-133092380D02*
X147770000Y-134092380D01*
X147436666Y-133092380D01*
X147198571Y-133092380D02*
X146579523Y-133092380D01*
X146912857Y-133473333D01*
X146770000Y-133473333D01*
X146674761Y-133520952D01*
X146627142Y-133568571D01*
X146579523Y-133663809D01*
X146579523Y-133901904D01*
X146627142Y-133997142D01*
X146674761Y-134044761D01*
X146770000Y-134092380D01*
X147055714Y-134092380D01*
X147150952Y-134044761D01*
X147198571Y-133997142D01*
D10*
X157898095Y-134050000D02*
X157802857Y-134097619D01*
X157660000Y-134097619D01*
X157517142Y-134050000D01*
X157421904Y-133954761D01*
X157374285Y-133859523D01*
X157326666Y-133669047D01*
X157326666Y-133526190D01*
X157374285Y-133335714D01*
X157421904Y-133240476D01*
X157517142Y-133145238D01*
X157660000Y-133097619D01*
X157755238Y-133097619D01*
X157898095Y-133145238D01*
X157945714Y-133192857D01*
X157945714Y-133526190D01*
X157755238Y-133526190D01*
X158374285Y-133097619D02*
X158374285Y-134097619D01*
X158945714Y-133097619D01*
X158945714Y-134097619D01*
X159421904Y-133097619D02*
X159421904Y-134097619D01*
X159660000Y-134097619D01*
X159802857Y-134050000D01*
X159898095Y-133954761D01*
X159945714Y-133859523D01*
X159993333Y-133669047D01*
X159993333Y-133526190D01*
X159945714Y-133335714D01*
X159898095Y-133240476D01*
X159802857Y-133145238D01*
X159660000Y-133097619D01*
X159421904Y-133097619D01*
X107471904Y-72380000D02*
X107567142Y-72332380D01*
X107710000Y-72332380D01*
X107852857Y-72380000D01*
X107948095Y-72475238D01*
X107995714Y-72570476D01*
X108043333Y-72760952D01*
X108043333Y-72903809D01*
X107995714Y-73094285D01*
X107948095Y-73189523D01*
X107852857Y-73284761D01*
X107710000Y-73332380D01*
X107614761Y-73332380D01*
X107471904Y-73284761D01*
X107424285Y-73237142D01*
X107424285Y-72903809D01*
X107614761Y-72903809D01*
X106995714Y-73332380D02*
X106995714Y-72332380D01*
X106424285Y-73332380D01*
X106424285Y-72332380D01*
X105948095Y-73332380D02*
X105948095Y-72332380D01*
X105710000Y-72332380D01*
X105567142Y-72380000D01*
X105471904Y-72475238D01*
X105424285Y-72570476D01*
X105376666Y-72760952D01*
X105376666Y-72903809D01*
X105424285Y-73094285D01*
X105471904Y-73189523D01*
X105567142Y-73284761D01*
X105710000Y-73332380D01*
X105948095Y-73332380D01*
X92347619Y-105304285D02*
X93347619Y-105304285D01*
X93347619Y-104923333D01*
X93300000Y-104828095D01*
X93252380Y-104780476D01*
X93157142Y-104732857D01*
X93014285Y-104732857D01*
X92919047Y-104780476D01*
X92871428Y-104828095D01*
X92823809Y-104923333D01*
X92823809Y-105304285D01*
X92442857Y-103732857D02*
X92395238Y-103780476D01*
X92347619Y-103923333D01*
X92347619Y-104018571D01*
X92395238Y-104161428D01*
X92490476Y-104256666D01*
X92585714Y-104304285D01*
X92776190Y-104351904D01*
X92919047Y-104351904D01*
X93109523Y-104304285D01*
X93204761Y-104256666D01*
X93300000Y-104161428D01*
X93347619Y-104018571D01*
X93347619Y-103923333D01*
X93300000Y-103780476D01*
X93252380Y-103732857D01*
X92347619Y-102780476D02*
X92347619Y-103351904D01*
X92347619Y-103066190D02*
X93347619Y-103066190D01*
X93204761Y-103161428D01*
X93109523Y-103256666D01*
X93061904Y-103351904D01*
X93347619Y-101875714D02*
X93347619Y-102351904D01*
X92871428Y-102399523D01*
X92919047Y-102351904D01*
X92966666Y-102256666D01*
X92966666Y-102018571D01*
X92919047Y-101923333D01*
X92871428Y-101875714D01*
X92776190Y-101828095D01*
X92538095Y-101828095D01*
X92442857Y-101875714D01*
X92395238Y-101923333D01*
X92347619Y-102018571D01*
X92347619Y-102256666D01*
X92395238Y-102351904D01*
X92442857Y-102399523D01*
X92327619Y-108838095D02*
X93327619Y-108838095D01*
X93327619Y-108457142D01*
X93280000Y-108361904D01*
X93232380Y-108314285D01*
X93137142Y-108266666D01*
X92994285Y-108266666D01*
X92899047Y-108314285D01*
X92851428Y-108361904D01*
X92803809Y-108457142D01*
X92803809Y-108838095D01*
X92422857Y-107266666D02*
X92375238Y-107314285D01*
X92327619Y-107457142D01*
X92327619Y-107552380D01*
X92375238Y-107695238D01*
X92470476Y-107790476D01*
X92565714Y-107838095D01*
X92756190Y-107885714D01*
X92899047Y-107885714D01*
X93089523Y-107838095D01*
X93184761Y-107790476D01*
X93280000Y-107695238D01*
X93327619Y-107552380D01*
X93327619Y-107457142D01*
X93280000Y-107314285D01*
X93232380Y-107266666D01*
X92899047Y-106695238D02*
X92946666Y-106790476D01*
X92994285Y-106838095D01*
X93089523Y-106885714D01*
X93137142Y-106885714D01*
X93232380Y-106838095D01*
X93280000Y-106790476D01*
X93327619Y-106695238D01*
X93327619Y-106504761D01*
X93280000Y-106409523D01*
X93232380Y-106361904D01*
X93137142Y-106314285D01*
X93089523Y-106314285D01*
X92994285Y-106361904D01*
X92946666Y-106409523D01*
X92899047Y-106504761D01*
X92899047Y-106695238D01*
X92851428Y-106790476D01*
X92803809Y-106838095D01*
X92708571Y-106885714D01*
X92518095Y-106885714D01*
X92422857Y-106838095D01*
X92375238Y-106790476D01*
X92327619Y-106695238D01*
X92327619Y-106504761D01*
X92375238Y-106409523D01*
X92422857Y-106361904D01*
X92518095Y-106314285D01*
X92708571Y-106314285D01*
X92803809Y-106361904D01*
X92851428Y-106409523D01*
X92899047Y-106504761D01*
X92347619Y-101254285D02*
X93347619Y-101254285D01*
X93347619Y-100873333D01*
X93300000Y-100778095D01*
X93252380Y-100730476D01*
X93157142Y-100682857D01*
X93014285Y-100682857D01*
X92919047Y-100730476D01*
X92871428Y-100778095D01*
X92823809Y-100873333D01*
X92823809Y-101254285D01*
X92442857Y-99682857D02*
X92395238Y-99730476D01*
X92347619Y-99873333D01*
X92347619Y-99968571D01*
X92395238Y-100111428D01*
X92490476Y-100206666D01*
X92585714Y-100254285D01*
X92776190Y-100301904D01*
X92919047Y-100301904D01*
X93109523Y-100254285D01*
X93204761Y-100206666D01*
X93300000Y-100111428D01*
X93347619Y-99968571D01*
X93347619Y-99873333D01*
X93300000Y-99730476D01*
X93252380Y-99682857D01*
X92347619Y-98730476D02*
X92347619Y-99301904D01*
X92347619Y-99016190D02*
X93347619Y-99016190D01*
X93204761Y-99111428D01*
X93109523Y-99206666D01*
X93061904Y-99301904D01*
X93014285Y-97873333D02*
X92347619Y-97873333D01*
X93395238Y-98111428D02*
X92680952Y-98349523D01*
X92680952Y-97730476D01*
X92287619Y-97104285D02*
X93287619Y-97104285D01*
X93287619Y-96723333D01*
X93240000Y-96628095D01*
X93192380Y-96580476D01*
X93097142Y-96532857D01*
X92954285Y-96532857D01*
X92859047Y-96580476D01*
X92811428Y-96628095D01*
X92763809Y-96723333D01*
X92763809Y-97104285D01*
X92382857Y-95532857D02*
X92335238Y-95580476D01*
X92287619Y-95723333D01*
X92287619Y-95818571D01*
X92335238Y-95961428D01*
X92430476Y-96056666D01*
X92525714Y-96104285D01*
X92716190Y-96151904D01*
X92859047Y-96151904D01*
X93049523Y-96104285D01*
X93144761Y-96056666D01*
X93240000Y-95961428D01*
X93287619Y-95818571D01*
X93287619Y-95723333D01*
X93240000Y-95580476D01*
X93192380Y-95532857D01*
X92287619Y-94580476D02*
X92287619Y-95151904D01*
X92287619Y-94866190D02*
X93287619Y-94866190D01*
X93144761Y-94961428D01*
X93049523Y-95056666D01*
X93001904Y-95151904D01*
X93287619Y-94247142D02*
X93287619Y-93628095D01*
X92906666Y-93961428D01*
X92906666Y-93818571D01*
X92859047Y-93723333D01*
X92811428Y-93675714D01*
X92716190Y-93628095D01*
X92478095Y-93628095D01*
X92382857Y-93675714D01*
X92335238Y-93723333D01*
X92287619Y-93818571D01*
X92287619Y-94104285D01*
X92335238Y-94199523D01*
X92382857Y-94247142D01*
X93190000Y-92341904D02*
X93237619Y-92437142D01*
X93237619Y-92580000D01*
X93190000Y-92722857D01*
X93094761Y-92818095D01*
X92999523Y-92865714D01*
X92809047Y-92913333D01*
X92666190Y-92913333D01*
X92475714Y-92865714D01*
X92380476Y-92818095D01*
X92285238Y-92722857D01*
X92237619Y-92580000D01*
X92237619Y-92484761D01*
X92285238Y-92341904D01*
X92332857Y-92294285D01*
X92666190Y-92294285D01*
X92666190Y-92484761D01*
X92237619Y-91865714D02*
X93237619Y-91865714D01*
X92237619Y-91294285D01*
X93237619Y-91294285D01*
X92237619Y-90818095D02*
X93237619Y-90818095D01*
X93237619Y-90580000D01*
X93190000Y-90437142D01*
X93094761Y-90341904D01*
X92999523Y-90294285D01*
X92809047Y-90246666D01*
X92666190Y-90246666D01*
X92475714Y-90294285D01*
X92380476Y-90341904D01*
X92285238Y-90437142D01*
X92237619Y-90580000D01*
X92237619Y-90818095D01*
X92437619Y-88139047D02*
X92437619Y-88710476D01*
X92437619Y-88424761D02*
X93437619Y-88424761D01*
X93294761Y-88520000D01*
X93199523Y-88615238D01*
X93151904Y-88710476D01*
X93342380Y-87758095D02*
X93390000Y-87710476D01*
X93437619Y-87615238D01*
X93437619Y-87377142D01*
X93390000Y-87281904D01*
X93342380Y-87234285D01*
X93247142Y-87186666D01*
X93151904Y-87186666D01*
X93009047Y-87234285D01*
X92437619Y-87805714D01*
X92437619Y-87186666D01*
X93437619Y-86900952D02*
X92437619Y-86567619D01*
X93437619Y-86234285D01*
D11*
X141841904Y-132420000D02*
X141937142Y-132372380D01*
X142080000Y-132372380D01*
X142222857Y-132420000D01*
X142318095Y-132515238D01*
X142365714Y-132610476D01*
X142413333Y-132800952D01*
X142413333Y-132943809D01*
X142365714Y-133134285D01*
X142318095Y-133229523D01*
X142222857Y-133324761D01*
X142080000Y-133372380D01*
X141984761Y-133372380D01*
X141841904Y-133324761D01*
X141794285Y-133277142D01*
X141794285Y-132943809D01*
X141984761Y-132943809D01*
X141365714Y-133372380D02*
X141365714Y-132372380D01*
X140794285Y-133372380D01*
X140794285Y-132372380D01*
X140318095Y-133372380D02*
X140318095Y-132372380D01*
X140080000Y-132372380D01*
X139937142Y-132420000D01*
X139841904Y-132515238D01*
X139794285Y-132610476D01*
X139746666Y-132800952D01*
X139746666Y-132943809D01*
X139794285Y-133134285D01*
X139841904Y-133229523D01*
X139937142Y-133324761D01*
X140080000Y-133372380D01*
X140318095Y-133372380D01*
X107268095Y-132302380D02*
X106649047Y-132302380D01*
X106982380Y-132683333D01*
X106839523Y-132683333D01*
X106744285Y-132730952D01*
X106696666Y-132778571D01*
X106649047Y-132873809D01*
X106649047Y-133111904D01*
X106696666Y-133207142D01*
X106744285Y-133254761D01*
X106839523Y-133302380D01*
X107125238Y-133302380D01*
X107220476Y-133254761D01*
X107268095Y-133207142D01*
X106363333Y-132302380D02*
X106030000Y-133302380D01*
X105696666Y-132302380D01*
X105458571Y-132302380D02*
X104839523Y-132302380D01*
X105172857Y-132683333D01*
X105030000Y-132683333D01*
X104934761Y-132730952D01*
X104887142Y-132778571D01*
X104839523Y-132873809D01*
X104839523Y-133111904D01*
X104887142Y-133207142D01*
X104934761Y-133254761D01*
X105030000Y-133302380D01*
X105315714Y-133302380D01*
X105410952Y-133254761D01*
X105458571Y-133207142D01*
X138818095Y-133432380D02*
X138818095Y-132432380D01*
X138437142Y-132432380D01*
X138341904Y-132480000D01*
X138294285Y-132527619D01*
X138246666Y-132622857D01*
X138246666Y-132765714D01*
X138294285Y-132860952D01*
X138341904Y-132908571D01*
X138437142Y-132956190D01*
X138818095Y-132956190D01*
X137484761Y-132908571D02*
X137341904Y-132956190D01*
X137294285Y-133003809D01*
X137246666Y-133099047D01*
X137246666Y-133241904D01*
X137294285Y-133337142D01*
X137341904Y-133384761D01*
X137437142Y-133432380D01*
X137818095Y-133432380D01*
X137818095Y-132432380D01*
X137484761Y-132432380D01*
X137389523Y-132480000D01*
X137341904Y-132527619D01*
X137294285Y-132622857D01*
X137294285Y-132718095D01*
X137341904Y-132813333D01*
X137389523Y-132860952D01*
X137484761Y-132908571D01*
X137818095Y-132908571D01*
X136865714Y-132527619D02*
X136818095Y-132480000D01*
X136722857Y-132432380D01*
X136484761Y-132432380D01*
X136389523Y-132480000D01*
X136341904Y-132527619D01*
X136294285Y-132622857D01*
X136294285Y-132718095D01*
X136341904Y-132860952D01*
X136913333Y-133432380D01*
X136294285Y-133432380D01*
X135298095Y-133462380D02*
X135298095Y-132462380D01*
X134917142Y-132462380D01*
X134821904Y-132510000D01*
X134774285Y-132557619D01*
X134726666Y-132652857D01*
X134726666Y-132795714D01*
X134774285Y-132890952D01*
X134821904Y-132938571D01*
X134917142Y-132986190D01*
X135298095Y-132986190D01*
X133964761Y-132938571D02*
X133821904Y-132986190D01*
X133774285Y-133033809D01*
X133726666Y-133129047D01*
X133726666Y-133271904D01*
X133774285Y-133367142D01*
X133821904Y-133414761D01*
X133917142Y-133462380D01*
X134298095Y-133462380D01*
X134298095Y-132462380D01*
X133964761Y-132462380D01*
X133869523Y-132510000D01*
X133821904Y-132557619D01*
X133774285Y-132652857D01*
X133774285Y-132748095D01*
X133821904Y-132843333D01*
X133869523Y-132890952D01*
X133964761Y-132938571D01*
X134298095Y-132938571D01*
X132774285Y-133462380D02*
X133345714Y-133462380D01*
X133060000Y-133462380D02*
X133060000Y-132462380D01*
X133155238Y-132605238D01*
X133250476Y-132700476D01*
X133345714Y-132748095D01*
X131848095Y-133482380D02*
X131848095Y-132482380D01*
X131467142Y-132482380D01*
X131371904Y-132530000D01*
X131324285Y-132577619D01*
X131276666Y-132672857D01*
X131276666Y-132815714D01*
X131324285Y-132910952D01*
X131371904Y-132958571D01*
X131467142Y-133006190D01*
X131848095Y-133006190D01*
X130514761Y-132958571D02*
X130371904Y-133006190D01*
X130324285Y-133053809D01*
X130276666Y-133149047D01*
X130276666Y-133291904D01*
X130324285Y-133387142D01*
X130371904Y-133434761D01*
X130467142Y-133482380D01*
X130848095Y-133482380D01*
X130848095Y-132482380D01*
X130514761Y-132482380D01*
X130419523Y-132530000D01*
X130371904Y-132577619D01*
X130324285Y-132672857D01*
X130324285Y-132768095D01*
X130371904Y-132863333D01*
X130419523Y-132910952D01*
X130514761Y-132958571D01*
X130848095Y-132958571D01*
X129657619Y-132482380D02*
X129562380Y-132482380D01*
X129467142Y-132530000D01*
X129419523Y-132577619D01*
X129371904Y-132672857D01*
X129324285Y-132863333D01*
X129324285Y-133101428D01*
X129371904Y-133291904D01*
X129419523Y-133387142D01*
X129467142Y-133434761D01*
X129562380Y-133482380D01*
X129657619Y-133482380D01*
X129752857Y-133434761D01*
X129800476Y-133387142D01*
X129848095Y-133291904D01*
X129895714Y-133101428D01*
X129895714Y-132863333D01*
X129848095Y-132672857D01*
X129800476Y-132577619D01*
X129752857Y-132530000D01*
X129657619Y-132482380D01*
X128308095Y-133522380D02*
X128308095Y-132522380D01*
X127927142Y-132522380D01*
X127831904Y-132570000D01*
X127784285Y-132617619D01*
X127736666Y-132712857D01*
X127736666Y-132855714D01*
X127784285Y-132950952D01*
X127831904Y-132998571D01*
X127927142Y-133046190D01*
X128308095Y-133046190D01*
X126736666Y-133427142D02*
X126784285Y-133474761D01*
X126927142Y-133522380D01*
X127022380Y-133522380D01*
X127165238Y-133474761D01*
X127260476Y-133379523D01*
X127308095Y-133284285D01*
X127355714Y-133093809D01*
X127355714Y-132950952D01*
X127308095Y-132760476D01*
X127260476Y-132665238D01*
X127165238Y-132570000D01*
X127022380Y-132522380D01*
X126927142Y-132522380D01*
X126784285Y-132570000D01*
X126736666Y-132617619D01*
X125831904Y-132522380D02*
X126308095Y-132522380D01*
X126355714Y-132998571D01*
X126308095Y-132950952D01*
X126212857Y-132903333D01*
X125974761Y-132903333D01*
X125879523Y-132950952D01*
X125831904Y-132998571D01*
X125784285Y-133093809D01*
X125784285Y-133331904D01*
X125831904Y-133427142D01*
X125879523Y-133474761D01*
X125974761Y-133522380D01*
X126212857Y-133522380D01*
X126308095Y-133474761D01*
X126355714Y-133427142D01*
X124788095Y-133442380D02*
X124788095Y-132442380D01*
X124407142Y-132442380D01*
X124311904Y-132490000D01*
X124264285Y-132537619D01*
X124216666Y-132632857D01*
X124216666Y-132775714D01*
X124264285Y-132870952D01*
X124311904Y-132918571D01*
X124407142Y-132966190D01*
X124788095Y-132966190D01*
X123216666Y-133347142D02*
X123264285Y-133394761D01*
X123407142Y-133442380D01*
X123502380Y-133442380D01*
X123645238Y-133394761D01*
X123740476Y-133299523D01*
X123788095Y-133204285D01*
X123835714Y-133013809D01*
X123835714Y-132870952D01*
X123788095Y-132680476D01*
X123740476Y-132585238D01*
X123645238Y-132490000D01*
X123502380Y-132442380D01*
X123407142Y-132442380D01*
X123264285Y-132490000D01*
X123216666Y-132537619D01*
X122359523Y-132775714D02*
X122359523Y-133442380D01*
X122597619Y-132394761D02*
X122835714Y-133109047D01*
X122216666Y-133109047D01*
X120986666Y-133432380D02*
X120986666Y-132432380D01*
X120605714Y-132432380D01*
X120510476Y-132480000D01*
X120462857Y-132527619D01*
X120415238Y-132622857D01*
X120415238Y-132765714D01*
X120462857Y-132860952D01*
X120510476Y-132908571D01*
X120605714Y-132956190D01*
X120986666Y-132956190D01*
X120034285Y-133146666D02*
X119558095Y-133146666D01*
X120129523Y-133432380D02*
X119796190Y-132432380D01*
X119462857Y-133432380D01*
X119224761Y-132432380D02*
X118558095Y-132432380D01*
X118986666Y-133432380D01*
X117676666Y-133322380D02*
X117676666Y-132322380D01*
X117295714Y-132322380D01*
X117200476Y-132370000D01*
X117152857Y-132417619D01*
X117105238Y-132512857D01*
X117105238Y-132655714D01*
X117152857Y-132750952D01*
X117200476Y-132798571D01*
X117295714Y-132846190D01*
X117676666Y-132846190D01*
X116724285Y-133036666D02*
X116248095Y-133036666D01*
X116819523Y-133322380D02*
X116486190Y-132322380D01*
X116152857Y-133322380D01*
X115390952Y-132322380D02*
X115581428Y-132322380D01*
X115676666Y-132370000D01*
X115724285Y-132417619D01*
X115819523Y-132560476D01*
X115867142Y-132750952D01*
X115867142Y-133131904D01*
X115819523Y-133227142D01*
X115771904Y-133274761D01*
X115676666Y-133322380D01*
X115486190Y-133322380D01*
X115390952Y-133274761D01*
X115343333Y-133227142D01*
X115295714Y-133131904D01*
X115295714Y-132893809D01*
X115343333Y-132798571D01*
X115390952Y-132750952D01*
X115486190Y-132703333D01*
X115676666Y-132703333D01*
X115771904Y-132750952D01*
X115819523Y-132798571D01*
X115867142Y-132893809D01*
X114196666Y-133392380D02*
X114196666Y-132392380D01*
X113815714Y-132392380D01*
X113720476Y-132440000D01*
X113672857Y-132487619D01*
X113625238Y-132582857D01*
X113625238Y-132725714D01*
X113672857Y-132820952D01*
X113720476Y-132868571D01*
X113815714Y-132916190D01*
X114196666Y-132916190D01*
X113244285Y-133106666D02*
X112768095Y-133106666D01*
X113339523Y-133392380D02*
X113006190Y-132392380D01*
X112672857Y-133392380D01*
X111863333Y-132392380D02*
X112339523Y-132392380D01*
X112387142Y-132868571D01*
X112339523Y-132820952D01*
X112244285Y-132773333D01*
X112006190Y-132773333D01*
X111910952Y-132820952D01*
X111863333Y-132868571D01*
X111815714Y-132963809D01*
X111815714Y-133201904D01*
X111863333Y-133297142D01*
X111910952Y-133344761D01*
X112006190Y-133392380D01*
X112244285Y-133392380D01*
X112339523Y-133344761D01*
X112387142Y-133297142D01*
X110476666Y-133322380D02*
X110476666Y-132322380D01*
X110095714Y-132322380D01*
X110000476Y-132370000D01*
X109952857Y-132417619D01*
X109905238Y-132512857D01*
X109905238Y-132655714D01*
X109952857Y-132750952D01*
X110000476Y-132798571D01*
X110095714Y-132846190D01*
X110476666Y-132846190D01*
X109524285Y-133036666D02*
X109048095Y-133036666D01*
X109619523Y-133322380D02*
X109286190Y-132322380D01*
X108952857Y-133322380D01*
X108190952Y-132655714D02*
X108190952Y-133322380D01*
X108429047Y-132274761D02*
X108667142Y-132989047D01*
X108048095Y-132989047D01*
M02*
