%TF.GenerationSoftware,KiCad,Pcbnew,(5.1.8)-1*%
%TF.CreationDate,2020-12-28T13:01:50-08:00*%
%TF.ProjectId,STMboard,53544d62-6f61-4726-942e-6b696361645f,rev?*%
%TF.SameCoordinates,Original*%
%TF.FileFunction,Copper,L1,Top*%
%TF.FilePolarity,Positive*%
%FSLAX46Y46*%
G04 Gerber Fmt 4.6, Leading zero omitted, Abs format (unit mm)*
G04 Created by KiCad (PCBNEW (5.1.8)-1) date 2020-12-28 13:01:50*
%MOMM*%
%LPD*%
G01*
G04 APERTURE LIST*
%TA.AperFunction,SMDPad,CuDef*%
%ADD10R,0.740000X2.400000*%
%TD*%
%TA.AperFunction,ComponentPad*%
%ADD11R,2.400000X2.400000*%
%TD*%
%TA.AperFunction,ComponentPad*%
%ADD12C,2.400000*%
%TD*%
%TA.AperFunction,ComponentPad*%
%ADD13C,0.900000*%
%TD*%
%TA.AperFunction,ComponentPad*%
%ADD14C,8.600000*%
%TD*%
%TA.AperFunction,SMDPad,CuDef*%
%ADD15R,0.900000X1.200000*%
%TD*%
%TA.AperFunction,SMDPad,CuDef*%
%ADD16R,1.200000X0.900000*%
%TD*%
%TA.AperFunction,SMDPad,CuDef*%
%ADD17R,1.200000X1.400000*%
%TD*%
%TA.AperFunction,SMDPad,CuDef*%
%ADD18R,1.500000X1.900000*%
%TD*%
%TA.AperFunction,ComponentPad*%
%ADD19C,1.450000*%
%TD*%
%TA.AperFunction,SMDPad,CuDef*%
%ADD20R,0.400000X1.350000*%
%TD*%
%TA.AperFunction,ComponentPad*%
%ADD21O,1.200000X1.900000*%
%TD*%
%TA.AperFunction,SMDPad,CuDef*%
%ADD22R,1.200000X1.900000*%
%TD*%
%TA.AperFunction,SMDPad,CuDef*%
%ADD23R,2.500000X1.900000*%
%TD*%
%TA.AperFunction,SMDPad,CuDef*%
%ADD24R,0.800000X0.900000*%
%TD*%
%TA.AperFunction,SMDPad,CuDef*%
%ADD25R,0.700000X1.500000*%
%TD*%
%TA.AperFunction,SMDPad,CuDef*%
%ADD26R,1.000000X0.800000*%
%TD*%
%TA.AperFunction,SMDPad,CuDef*%
%ADD27R,1.060000X0.650000*%
%TD*%
%TA.AperFunction,SMDPad,CuDef*%
%ADD28R,0.650000X1.060000*%
%TD*%
%TA.AperFunction,ViaPad*%
%ADD29C,0.800000*%
%TD*%
%TA.AperFunction,Conductor*%
%ADD30C,0.300000*%
%TD*%
%TA.AperFunction,Conductor*%
%ADD31C,0.500000*%
%TD*%
%TA.AperFunction,Conductor*%
%ADD32C,0.250000*%
%TD*%
%TA.AperFunction,Conductor*%
%ADD33C,0.750000*%
%TD*%
%TA.AperFunction,Conductor*%
%ADD34C,1.000000*%
%TD*%
%TA.AperFunction,Conductor*%
%ADD35C,0.261112*%
%TD*%
G04 APERTURE END LIST*
%TO.P,L2,2*%
%TO.N,+3.3VA*%
%TA.AperFunction,SMDPad,CuDef*%
G36*
G01*
X130462500Y-103845000D02*
X130117500Y-103845000D01*
G75*
G02*
X129970000Y-103697500I0J147500D01*
G01*
X129970000Y-103402500D01*
G75*
G02*
X130117500Y-103255000I147500J0D01*
G01*
X130462500Y-103255000D01*
G75*
G02*
X130610000Y-103402500I0J-147500D01*
G01*
X130610000Y-103697500D01*
G75*
G02*
X130462500Y-103845000I-147500J0D01*
G01*
G37*
%TD.AperFunction*%
%TO.P,L2,1*%
%TO.N,+3V3*%
%TA.AperFunction,SMDPad,CuDef*%
G36*
G01*
X130462500Y-104815000D02*
X130117500Y-104815000D01*
G75*
G02*
X129970000Y-104667500I0J147500D01*
G01*
X129970000Y-104372500D01*
G75*
G02*
X130117500Y-104225000I147500J0D01*
G01*
X130462500Y-104225000D01*
G75*
G02*
X130610000Y-104372500I0J-147500D01*
G01*
X130610000Y-104667500D01*
G75*
G02*
X130462500Y-104815000I-147500J0D01*
G01*
G37*
%TD.AperFunction*%
%TD*%
%TO.P,FB1,1*%
%TO.N,BUCK_IN*%
%TA.AperFunction,SMDPad,CuDef*%
G36*
G01*
X126550000Y-117511250D02*
X126550000Y-116748750D01*
G75*
G02*
X126768750Y-116530000I218750J0D01*
G01*
X127206250Y-116530000D01*
G75*
G02*
X127425000Y-116748750I0J-218750D01*
G01*
X127425000Y-117511250D01*
G75*
G02*
X127206250Y-117730000I-218750J0D01*
G01*
X126768750Y-117730000D01*
G75*
G02*
X126550000Y-117511250I0J218750D01*
G01*
G37*
%TD.AperFunction*%
%TO.P,FB1,2*%
%TO.N,Net-(D2-Pad1)*%
%TA.AperFunction,SMDPad,CuDef*%
G36*
G01*
X128675000Y-117511250D02*
X128675000Y-116748750D01*
G75*
G02*
X128893750Y-116530000I218750J0D01*
G01*
X129331250Y-116530000D01*
G75*
G02*
X129550000Y-116748750I0J-218750D01*
G01*
X129550000Y-117511250D01*
G75*
G02*
X129331250Y-117730000I-218750J0D01*
G01*
X128893750Y-117730000D01*
G75*
G02*
X128675000Y-117511250I0J218750D01*
G01*
G37*
%TD.AperFunction*%
%TD*%
%TO.P,C13,2*%
%TO.N,BUCK_SW*%
%TA.AperFunction,SMDPad,CuDef*%
G36*
G01*
X115008000Y-113200000D02*
X115008000Y-112860000D01*
G75*
G02*
X115148000Y-112720000I140000J0D01*
G01*
X115428000Y-112720000D01*
G75*
G02*
X115568000Y-112860000I0J-140000D01*
G01*
X115568000Y-113200000D01*
G75*
G02*
X115428000Y-113340000I-140000J0D01*
G01*
X115148000Y-113340000D01*
G75*
G02*
X115008000Y-113200000I0J140000D01*
G01*
G37*
%TD.AperFunction*%
%TO.P,C13,1*%
%TO.N,BUCK_BST*%
%TA.AperFunction,SMDPad,CuDef*%
G36*
G01*
X114048000Y-113200000D02*
X114048000Y-112860000D01*
G75*
G02*
X114188000Y-112720000I140000J0D01*
G01*
X114468000Y-112720000D01*
G75*
G02*
X114608000Y-112860000I0J-140000D01*
G01*
X114608000Y-113200000D01*
G75*
G02*
X114468000Y-113340000I-140000J0D01*
G01*
X114188000Y-113340000D01*
G75*
G02*
X114048000Y-113200000I0J140000D01*
G01*
G37*
%TD.AperFunction*%
%TD*%
D10*
%TO.P,J3,10*%
%TO.N,NRST*%
X173020000Y-76870000D03*
%TO.P,J3,9*%
%TO.N,GND*%
X173020000Y-72970000D03*
%TO.P,J3,8*%
%TO.N,Net-(J3-Pad8)*%
X174290000Y-76870000D03*
%TO.P,J3,7*%
%TO.N,Net-(J3-Pad7)*%
X174290000Y-72970000D03*
%TO.P,J3,6*%
%TO.N,SWO*%
X175560000Y-76870000D03*
%TO.P,J3,5*%
%TO.N,GND*%
X175560000Y-72970000D03*
%TO.P,J3,4*%
%TO.N,SWCLK*%
X176830000Y-76870000D03*
%TO.P,J3,3*%
%TO.N,GND*%
X176830000Y-72970000D03*
%TO.P,J3,2*%
%TO.N,SWDIO*%
X178100000Y-76870000D03*
%TO.P,J3,1*%
%TO.N,+3V3*%
X178100000Y-72970000D03*
%TD*%
%TO.P,C12,1*%
%TO.N,Net-(C12-Pad1)*%
%TA.AperFunction,SMDPad,CuDef*%
G36*
G01*
X120125000Y-82830000D02*
X120125000Y-82330000D01*
G75*
G02*
X120350000Y-82105000I225000J0D01*
G01*
X120800000Y-82105000D01*
G75*
G02*
X121025000Y-82330000I0J-225000D01*
G01*
X121025000Y-82830000D01*
G75*
G02*
X120800000Y-83055000I-225000J0D01*
G01*
X120350000Y-83055000D01*
G75*
G02*
X120125000Y-82830000I0J225000D01*
G01*
G37*
%TD.AperFunction*%
%TO.P,C12,2*%
%TO.N,GND*%
%TA.AperFunction,SMDPad,CuDef*%
G36*
G01*
X121675000Y-82830000D02*
X121675000Y-82330000D01*
G75*
G02*
X121900000Y-82105000I225000J0D01*
G01*
X122350000Y-82105000D01*
G75*
G02*
X122575000Y-82330000I0J-225000D01*
G01*
X122575000Y-82830000D01*
G75*
G02*
X122350000Y-83055000I-225000J0D01*
G01*
X121900000Y-83055000D01*
G75*
G02*
X121675000Y-82830000I0J225000D01*
G01*
G37*
%TD.AperFunction*%
%TD*%
%TO.P,C4,1*%
%TO.N,Net-(C4-Pad1)*%
%TA.AperFunction,SMDPad,CuDef*%
G36*
G01*
X148295000Y-95590000D02*
X148295000Y-95090000D01*
G75*
G02*
X148520000Y-94865000I225000J0D01*
G01*
X148970000Y-94865000D01*
G75*
G02*
X149195000Y-95090000I0J-225000D01*
G01*
X149195000Y-95590000D01*
G75*
G02*
X148970000Y-95815000I-225000J0D01*
G01*
X148520000Y-95815000D01*
G75*
G02*
X148295000Y-95590000I0J225000D01*
G01*
G37*
%TD.AperFunction*%
%TO.P,C4,2*%
%TO.N,GND*%
%TA.AperFunction,SMDPad,CuDef*%
G36*
G01*
X149845000Y-95590000D02*
X149845000Y-95090000D01*
G75*
G02*
X150070000Y-94865000I225000J0D01*
G01*
X150520000Y-94865000D01*
G75*
G02*
X150745000Y-95090000I0J-225000D01*
G01*
X150745000Y-95590000D01*
G75*
G02*
X150520000Y-95815000I-225000J0D01*
G01*
X150070000Y-95815000D01*
G75*
G02*
X149845000Y-95590000I0J225000D01*
G01*
G37*
%TD.AperFunction*%
%TD*%
%TO.P,U1,1*%
%TO.N,+3V3*%
%TA.AperFunction,SMDPad,CuDef*%
G36*
G01*
X133550000Y-96325000D02*
X133550000Y-96175000D01*
G75*
G02*
X133625000Y-96100000I75000J0D01*
G01*
X135025000Y-96100000D01*
G75*
G02*
X135100000Y-96175000I0J-75000D01*
G01*
X135100000Y-96325000D01*
G75*
G02*
X135025000Y-96400000I-75000J0D01*
G01*
X133625000Y-96400000D01*
G75*
G02*
X133550000Y-96325000I0J75000D01*
G01*
G37*
%TD.AperFunction*%
%TO.P,U1,2*%
%TO.N,PC13*%
%TA.AperFunction,SMDPad,CuDef*%
G36*
G01*
X133550000Y-96825000D02*
X133550000Y-96675000D01*
G75*
G02*
X133625000Y-96600000I75000J0D01*
G01*
X135025000Y-96600000D01*
G75*
G02*
X135100000Y-96675000I0J-75000D01*
G01*
X135100000Y-96825000D01*
G75*
G02*
X135025000Y-96900000I-75000J0D01*
G01*
X133625000Y-96900000D01*
G75*
G02*
X133550000Y-96825000I0J75000D01*
G01*
G37*
%TD.AperFunction*%
%TO.P,U1,3*%
%TO.N,PC14*%
%TA.AperFunction,SMDPad,CuDef*%
G36*
G01*
X133550000Y-97325000D02*
X133550000Y-97175000D01*
G75*
G02*
X133625000Y-97100000I75000J0D01*
G01*
X135025000Y-97100000D01*
G75*
G02*
X135100000Y-97175000I0J-75000D01*
G01*
X135100000Y-97325000D01*
G75*
G02*
X135025000Y-97400000I-75000J0D01*
G01*
X133625000Y-97400000D01*
G75*
G02*
X133550000Y-97325000I0J75000D01*
G01*
G37*
%TD.AperFunction*%
%TO.P,U1,4*%
%TO.N,PC15*%
%TA.AperFunction,SMDPad,CuDef*%
G36*
G01*
X133550000Y-97825000D02*
X133550000Y-97675000D01*
G75*
G02*
X133625000Y-97600000I75000J0D01*
G01*
X135025000Y-97600000D01*
G75*
G02*
X135100000Y-97675000I0J-75000D01*
G01*
X135100000Y-97825000D01*
G75*
G02*
X135025000Y-97900000I-75000J0D01*
G01*
X133625000Y-97900000D01*
G75*
G02*
X133550000Y-97825000I0J75000D01*
G01*
G37*
%TD.AperFunction*%
%TO.P,U1,5*%
%TO.N,HSE_IN*%
%TA.AperFunction,SMDPad,CuDef*%
G36*
G01*
X133550000Y-98325000D02*
X133550000Y-98175000D01*
G75*
G02*
X133625000Y-98100000I75000J0D01*
G01*
X135025000Y-98100000D01*
G75*
G02*
X135100000Y-98175000I0J-75000D01*
G01*
X135100000Y-98325000D01*
G75*
G02*
X135025000Y-98400000I-75000J0D01*
G01*
X133625000Y-98400000D01*
G75*
G02*
X133550000Y-98325000I0J75000D01*
G01*
G37*
%TD.AperFunction*%
%TO.P,U1,6*%
%TO.N,HSE_OUT*%
%TA.AperFunction,SMDPad,CuDef*%
G36*
G01*
X133550000Y-98825000D02*
X133550000Y-98675000D01*
G75*
G02*
X133625000Y-98600000I75000J0D01*
G01*
X135025000Y-98600000D01*
G75*
G02*
X135100000Y-98675000I0J-75000D01*
G01*
X135100000Y-98825000D01*
G75*
G02*
X135025000Y-98900000I-75000J0D01*
G01*
X133625000Y-98900000D01*
G75*
G02*
X133550000Y-98825000I0J75000D01*
G01*
G37*
%TD.AperFunction*%
%TO.P,U1,7*%
%TO.N,NRST*%
%TA.AperFunction,SMDPad,CuDef*%
G36*
G01*
X133550000Y-99325000D02*
X133550000Y-99175000D01*
G75*
G02*
X133625000Y-99100000I75000J0D01*
G01*
X135025000Y-99100000D01*
G75*
G02*
X135100000Y-99175000I0J-75000D01*
G01*
X135100000Y-99325000D01*
G75*
G02*
X135025000Y-99400000I-75000J0D01*
G01*
X133625000Y-99400000D01*
G75*
G02*
X133550000Y-99325000I0J75000D01*
G01*
G37*
%TD.AperFunction*%
%TO.P,U1,8*%
%TO.N,PC8*%
%TA.AperFunction,SMDPad,CuDef*%
G36*
G01*
X133550000Y-99825000D02*
X133550000Y-99675000D01*
G75*
G02*
X133625000Y-99600000I75000J0D01*
G01*
X135025000Y-99600000D01*
G75*
G02*
X135100000Y-99675000I0J-75000D01*
G01*
X135100000Y-99825000D01*
G75*
G02*
X135025000Y-99900000I-75000J0D01*
G01*
X133625000Y-99900000D01*
G75*
G02*
X133550000Y-99825000I0J75000D01*
G01*
G37*
%TD.AperFunction*%
%TO.P,U1,9*%
%TO.N,Net-(U1-Pad9)*%
%TA.AperFunction,SMDPad,CuDef*%
G36*
G01*
X133550000Y-100325000D02*
X133550000Y-100175000D01*
G75*
G02*
X133625000Y-100100000I75000J0D01*
G01*
X135025000Y-100100000D01*
G75*
G02*
X135100000Y-100175000I0J-75000D01*
G01*
X135100000Y-100325000D01*
G75*
G02*
X135025000Y-100400000I-75000J0D01*
G01*
X133625000Y-100400000D01*
G75*
G02*
X133550000Y-100325000I0J75000D01*
G01*
G37*
%TD.AperFunction*%
%TO.P,U1,10*%
%TO.N,Net-(U1-Pad10)*%
%TA.AperFunction,SMDPad,CuDef*%
G36*
G01*
X133550000Y-100825000D02*
X133550000Y-100675000D01*
G75*
G02*
X133625000Y-100600000I75000J0D01*
G01*
X135025000Y-100600000D01*
G75*
G02*
X135100000Y-100675000I0J-75000D01*
G01*
X135100000Y-100825000D01*
G75*
G02*
X135025000Y-100900000I-75000J0D01*
G01*
X133625000Y-100900000D01*
G75*
G02*
X133550000Y-100825000I0J75000D01*
G01*
G37*
%TD.AperFunction*%
%TO.P,U1,11*%
%TO.N,Net-(U1-Pad11)*%
%TA.AperFunction,SMDPad,CuDef*%
G36*
G01*
X133550000Y-101325000D02*
X133550000Y-101175000D01*
G75*
G02*
X133625000Y-101100000I75000J0D01*
G01*
X135025000Y-101100000D01*
G75*
G02*
X135100000Y-101175000I0J-75000D01*
G01*
X135100000Y-101325000D01*
G75*
G02*
X135025000Y-101400000I-75000J0D01*
G01*
X133625000Y-101400000D01*
G75*
G02*
X133550000Y-101325000I0J75000D01*
G01*
G37*
%TD.AperFunction*%
%TO.P,U1,12*%
%TO.N,GND*%
%TA.AperFunction,SMDPad,CuDef*%
G36*
G01*
X133550000Y-101825000D02*
X133550000Y-101675000D01*
G75*
G02*
X133625000Y-101600000I75000J0D01*
G01*
X135025000Y-101600000D01*
G75*
G02*
X135100000Y-101675000I0J-75000D01*
G01*
X135100000Y-101825000D01*
G75*
G02*
X135025000Y-101900000I-75000J0D01*
G01*
X133625000Y-101900000D01*
G75*
G02*
X133550000Y-101825000I0J75000D01*
G01*
G37*
%TD.AperFunction*%
%TO.P,U1,13*%
%TO.N,+3.3VA*%
%TA.AperFunction,SMDPad,CuDef*%
G36*
G01*
X133550000Y-102325000D02*
X133550000Y-102175000D01*
G75*
G02*
X133625000Y-102100000I75000J0D01*
G01*
X135025000Y-102100000D01*
G75*
G02*
X135100000Y-102175000I0J-75000D01*
G01*
X135100000Y-102325000D01*
G75*
G02*
X135025000Y-102400000I-75000J0D01*
G01*
X133625000Y-102400000D01*
G75*
G02*
X133550000Y-102325000I0J75000D01*
G01*
G37*
%TD.AperFunction*%
%TO.P,U1,14*%
%TO.N,Net-(U1-Pad14)*%
%TA.AperFunction,SMDPad,CuDef*%
G36*
G01*
X133550000Y-102825000D02*
X133550000Y-102675000D01*
G75*
G02*
X133625000Y-102600000I75000J0D01*
G01*
X135025000Y-102600000D01*
G75*
G02*
X135100000Y-102675000I0J-75000D01*
G01*
X135100000Y-102825000D01*
G75*
G02*
X135025000Y-102900000I-75000J0D01*
G01*
X133625000Y-102900000D01*
G75*
G02*
X133550000Y-102825000I0J75000D01*
G01*
G37*
%TD.AperFunction*%
%TO.P,U1,15*%
%TO.N,Net-(U1-Pad15)*%
%TA.AperFunction,SMDPad,CuDef*%
G36*
G01*
X133550000Y-103325000D02*
X133550000Y-103175000D01*
G75*
G02*
X133625000Y-103100000I75000J0D01*
G01*
X135025000Y-103100000D01*
G75*
G02*
X135100000Y-103175000I0J-75000D01*
G01*
X135100000Y-103325000D01*
G75*
G02*
X135025000Y-103400000I-75000J0D01*
G01*
X133625000Y-103400000D01*
G75*
G02*
X133550000Y-103325000I0J75000D01*
G01*
G37*
%TD.AperFunction*%
%TO.P,U1,16*%
%TO.N,LED_STATUS*%
%TA.AperFunction,SMDPad,CuDef*%
G36*
G01*
X133550000Y-103825000D02*
X133550000Y-103675000D01*
G75*
G02*
X133625000Y-103600000I75000J0D01*
G01*
X135025000Y-103600000D01*
G75*
G02*
X135100000Y-103675000I0J-75000D01*
G01*
X135100000Y-103825000D01*
G75*
G02*
X135025000Y-103900000I-75000J0D01*
G01*
X133625000Y-103900000D01*
G75*
G02*
X133550000Y-103825000I0J75000D01*
G01*
G37*
%TD.AperFunction*%
%TO.P,U1,17*%
%TO.N,Net-(U1-Pad17)*%
%TA.AperFunction,SMDPad,CuDef*%
G36*
G01*
X136100000Y-106375000D02*
X136100000Y-104975000D01*
G75*
G02*
X136175000Y-104900000I75000J0D01*
G01*
X136325000Y-104900000D01*
G75*
G02*
X136400000Y-104975000I0J-75000D01*
G01*
X136400000Y-106375000D01*
G75*
G02*
X136325000Y-106450000I-75000J0D01*
G01*
X136175000Y-106450000D01*
G75*
G02*
X136100000Y-106375000I0J75000D01*
G01*
G37*
%TD.AperFunction*%
%TO.P,U1,18*%
%TO.N,GND*%
%TA.AperFunction,SMDPad,CuDef*%
G36*
G01*
X136600000Y-106375000D02*
X136600000Y-104975000D01*
G75*
G02*
X136675000Y-104900000I75000J0D01*
G01*
X136825000Y-104900000D01*
G75*
G02*
X136900000Y-104975000I0J-75000D01*
G01*
X136900000Y-106375000D01*
G75*
G02*
X136825000Y-106450000I-75000J0D01*
G01*
X136675000Y-106450000D01*
G75*
G02*
X136600000Y-106375000I0J75000D01*
G01*
G37*
%TD.AperFunction*%
%TO.P,U1,19*%
%TO.N,+3V3*%
%TA.AperFunction,SMDPad,CuDef*%
G36*
G01*
X137100000Y-106375000D02*
X137100000Y-104975000D01*
G75*
G02*
X137175000Y-104900000I75000J0D01*
G01*
X137325000Y-104900000D01*
G75*
G02*
X137400000Y-104975000I0J-75000D01*
G01*
X137400000Y-106375000D01*
G75*
G02*
X137325000Y-106450000I-75000J0D01*
G01*
X137175000Y-106450000D01*
G75*
G02*
X137100000Y-106375000I0J75000D01*
G01*
G37*
%TD.AperFunction*%
%TO.P,U1,20*%
%TO.N,PA4*%
%TA.AperFunction,SMDPad,CuDef*%
G36*
G01*
X137600000Y-106375000D02*
X137600000Y-104975000D01*
G75*
G02*
X137675000Y-104900000I75000J0D01*
G01*
X137825000Y-104900000D01*
G75*
G02*
X137900000Y-104975000I0J-75000D01*
G01*
X137900000Y-106375000D01*
G75*
G02*
X137825000Y-106450000I-75000J0D01*
G01*
X137675000Y-106450000D01*
G75*
G02*
X137600000Y-106375000I0J75000D01*
G01*
G37*
%TD.AperFunction*%
%TO.P,U1,21*%
%TO.N,PA5*%
%TA.AperFunction,SMDPad,CuDef*%
G36*
G01*
X138100000Y-106375000D02*
X138100000Y-104975000D01*
G75*
G02*
X138175000Y-104900000I75000J0D01*
G01*
X138325000Y-104900000D01*
G75*
G02*
X138400000Y-104975000I0J-75000D01*
G01*
X138400000Y-106375000D01*
G75*
G02*
X138325000Y-106450000I-75000J0D01*
G01*
X138175000Y-106450000D01*
G75*
G02*
X138100000Y-106375000I0J75000D01*
G01*
G37*
%TD.AperFunction*%
%TO.P,U1,22*%
%TO.N,PA6*%
%TA.AperFunction,SMDPad,CuDef*%
G36*
G01*
X138600000Y-106375000D02*
X138600000Y-104975000D01*
G75*
G02*
X138675000Y-104900000I75000J0D01*
G01*
X138825000Y-104900000D01*
G75*
G02*
X138900000Y-104975000I0J-75000D01*
G01*
X138900000Y-106375000D01*
G75*
G02*
X138825000Y-106450000I-75000J0D01*
G01*
X138675000Y-106450000D01*
G75*
G02*
X138600000Y-106375000I0J75000D01*
G01*
G37*
%TD.AperFunction*%
%TO.P,U1,23*%
%TO.N,PA7*%
%TA.AperFunction,SMDPad,CuDef*%
G36*
G01*
X139100000Y-106375000D02*
X139100000Y-104975000D01*
G75*
G02*
X139175000Y-104900000I75000J0D01*
G01*
X139325000Y-104900000D01*
G75*
G02*
X139400000Y-104975000I0J-75000D01*
G01*
X139400000Y-106375000D01*
G75*
G02*
X139325000Y-106450000I-75000J0D01*
G01*
X139175000Y-106450000D01*
G75*
G02*
X139100000Y-106375000I0J75000D01*
G01*
G37*
%TD.AperFunction*%
%TO.P,U1,24*%
%TO.N,PC4*%
%TA.AperFunction,SMDPad,CuDef*%
G36*
G01*
X139600000Y-106375000D02*
X139600000Y-104975000D01*
G75*
G02*
X139675000Y-104900000I75000J0D01*
G01*
X139825000Y-104900000D01*
G75*
G02*
X139900000Y-104975000I0J-75000D01*
G01*
X139900000Y-106375000D01*
G75*
G02*
X139825000Y-106450000I-75000J0D01*
G01*
X139675000Y-106450000D01*
G75*
G02*
X139600000Y-106375000I0J75000D01*
G01*
G37*
%TD.AperFunction*%
%TO.P,U1,25*%
%TO.N,PC5*%
%TA.AperFunction,SMDPad,CuDef*%
G36*
G01*
X140100000Y-106375000D02*
X140100000Y-104975000D01*
G75*
G02*
X140175000Y-104900000I75000J0D01*
G01*
X140325000Y-104900000D01*
G75*
G02*
X140400000Y-104975000I0J-75000D01*
G01*
X140400000Y-106375000D01*
G75*
G02*
X140325000Y-106450000I-75000J0D01*
G01*
X140175000Y-106450000D01*
G75*
G02*
X140100000Y-106375000I0J75000D01*
G01*
G37*
%TD.AperFunction*%
%TO.P,U1,26*%
%TO.N,PB0*%
%TA.AperFunction,SMDPad,CuDef*%
G36*
G01*
X140600000Y-106375000D02*
X140600000Y-104975000D01*
G75*
G02*
X140675000Y-104900000I75000J0D01*
G01*
X140825000Y-104900000D01*
G75*
G02*
X140900000Y-104975000I0J-75000D01*
G01*
X140900000Y-106375000D01*
G75*
G02*
X140825000Y-106450000I-75000J0D01*
G01*
X140675000Y-106450000D01*
G75*
G02*
X140600000Y-106375000I0J75000D01*
G01*
G37*
%TD.AperFunction*%
%TO.P,U1,27*%
%TO.N,PB1*%
%TA.AperFunction,SMDPad,CuDef*%
G36*
G01*
X141100000Y-106375000D02*
X141100000Y-104975000D01*
G75*
G02*
X141175000Y-104900000I75000J0D01*
G01*
X141325000Y-104900000D01*
G75*
G02*
X141400000Y-104975000I0J-75000D01*
G01*
X141400000Y-106375000D01*
G75*
G02*
X141325000Y-106450000I-75000J0D01*
G01*
X141175000Y-106450000D01*
G75*
G02*
X141100000Y-106375000I0J75000D01*
G01*
G37*
%TD.AperFunction*%
%TO.P,U1,28*%
%TO.N,PB2*%
%TA.AperFunction,SMDPad,CuDef*%
G36*
G01*
X141600000Y-106375000D02*
X141600000Y-104975000D01*
G75*
G02*
X141675000Y-104900000I75000J0D01*
G01*
X141825000Y-104900000D01*
G75*
G02*
X141900000Y-104975000I0J-75000D01*
G01*
X141900000Y-106375000D01*
G75*
G02*
X141825000Y-106450000I-75000J0D01*
G01*
X141675000Y-106450000D01*
G75*
G02*
X141600000Y-106375000I0J75000D01*
G01*
G37*
%TD.AperFunction*%
%TO.P,U1,29*%
%TO.N,UART3_TX*%
%TA.AperFunction,SMDPad,CuDef*%
G36*
G01*
X142100000Y-106375000D02*
X142100000Y-104975000D01*
G75*
G02*
X142175000Y-104900000I75000J0D01*
G01*
X142325000Y-104900000D01*
G75*
G02*
X142400000Y-104975000I0J-75000D01*
G01*
X142400000Y-106375000D01*
G75*
G02*
X142325000Y-106450000I-75000J0D01*
G01*
X142175000Y-106450000D01*
G75*
G02*
X142100000Y-106375000I0J75000D01*
G01*
G37*
%TD.AperFunction*%
%TO.P,U1,30*%
%TO.N,UART3_RX*%
%TA.AperFunction,SMDPad,CuDef*%
G36*
G01*
X142600000Y-106375000D02*
X142600000Y-104975000D01*
G75*
G02*
X142675000Y-104900000I75000J0D01*
G01*
X142825000Y-104900000D01*
G75*
G02*
X142900000Y-104975000I0J-75000D01*
G01*
X142900000Y-106375000D01*
G75*
G02*
X142825000Y-106450000I-75000J0D01*
G01*
X142675000Y-106450000D01*
G75*
G02*
X142600000Y-106375000I0J75000D01*
G01*
G37*
%TD.AperFunction*%
%TO.P,U1,31*%
%TO.N,Net-(C2-Pad1)*%
%TA.AperFunction,SMDPad,CuDef*%
G36*
G01*
X143100000Y-106375000D02*
X143100000Y-104975000D01*
G75*
G02*
X143175000Y-104900000I75000J0D01*
G01*
X143325000Y-104900000D01*
G75*
G02*
X143400000Y-104975000I0J-75000D01*
G01*
X143400000Y-106375000D01*
G75*
G02*
X143325000Y-106450000I-75000J0D01*
G01*
X143175000Y-106450000D01*
G75*
G02*
X143100000Y-106375000I0J75000D01*
G01*
G37*
%TD.AperFunction*%
%TO.P,U1,32*%
%TO.N,+3V3*%
%TA.AperFunction,SMDPad,CuDef*%
G36*
G01*
X143600000Y-106375000D02*
X143600000Y-104975000D01*
G75*
G02*
X143675000Y-104900000I75000J0D01*
G01*
X143825000Y-104900000D01*
G75*
G02*
X143900000Y-104975000I0J-75000D01*
G01*
X143900000Y-106375000D01*
G75*
G02*
X143825000Y-106450000I-75000J0D01*
G01*
X143675000Y-106450000D01*
G75*
G02*
X143600000Y-106375000I0J75000D01*
G01*
G37*
%TD.AperFunction*%
%TO.P,U1,33*%
%TO.N,Net-(U1-Pad33)*%
%TA.AperFunction,SMDPad,CuDef*%
G36*
G01*
X144900000Y-103825000D02*
X144900000Y-103675000D01*
G75*
G02*
X144975000Y-103600000I75000J0D01*
G01*
X146375000Y-103600000D01*
G75*
G02*
X146450000Y-103675000I0J-75000D01*
G01*
X146450000Y-103825000D01*
G75*
G02*
X146375000Y-103900000I-75000J0D01*
G01*
X144975000Y-103900000D01*
G75*
G02*
X144900000Y-103825000I0J75000D01*
G01*
G37*
%TD.AperFunction*%
%TO.P,U1,34*%
%TO.N,Net-(U1-Pad34)*%
%TA.AperFunction,SMDPad,CuDef*%
G36*
G01*
X144900000Y-103325000D02*
X144900000Y-103175000D01*
G75*
G02*
X144975000Y-103100000I75000J0D01*
G01*
X146375000Y-103100000D01*
G75*
G02*
X146450000Y-103175000I0J-75000D01*
G01*
X146450000Y-103325000D01*
G75*
G02*
X146375000Y-103400000I-75000J0D01*
G01*
X144975000Y-103400000D01*
G75*
G02*
X144900000Y-103325000I0J75000D01*
G01*
G37*
%TD.AperFunction*%
%TO.P,U1,35*%
%TO.N,Net-(U1-Pad35)*%
%TA.AperFunction,SMDPad,CuDef*%
G36*
G01*
X144900000Y-102825000D02*
X144900000Y-102675000D01*
G75*
G02*
X144975000Y-102600000I75000J0D01*
G01*
X146375000Y-102600000D01*
G75*
G02*
X146450000Y-102675000I0J-75000D01*
G01*
X146450000Y-102825000D01*
G75*
G02*
X146375000Y-102900000I-75000J0D01*
G01*
X144975000Y-102900000D01*
G75*
G02*
X144900000Y-102825000I0J75000D01*
G01*
G37*
%TD.AperFunction*%
%TO.P,U1,36*%
%TO.N,STEP_2-4*%
%TA.AperFunction,SMDPad,CuDef*%
G36*
G01*
X144900000Y-102325000D02*
X144900000Y-102175000D01*
G75*
G02*
X144975000Y-102100000I75000J0D01*
G01*
X146375000Y-102100000D01*
G75*
G02*
X146450000Y-102175000I0J-75000D01*
G01*
X146450000Y-102325000D01*
G75*
G02*
X146375000Y-102400000I-75000J0D01*
G01*
X144975000Y-102400000D01*
G75*
G02*
X144900000Y-102325000I0J75000D01*
G01*
G37*
%TD.AperFunction*%
%TO.P,U1,37*%
%TO.N,STEP_2-3*%
%TA.AperFunction,SMDPad,CuDef*%
G36*
G01*
X144900000Y-101825000D02*
X144900000Y-101675000D01*
G75*
G02*
X144975000Y-101600000I75000J0D01*
G01*
X146375000Y-101600000D01*
G75*
G02*
X146450000Y-101675000I0J-75000D01*
G01*
X146450000Y-101825000D01*
G75*
G02*
X146375000Y-101900000I-75000J0D01*
G01*
X144975000Y-101900000D01*
G75*
G02*
X144900000Y-101825000I0J75000D01*
G01*
G37*
%TD.AperFunction*%
%TO.P,U1,38*%
%TO.N,STEP_2-2*%
%TA.AperFunction,SMDPad,CuDef*%
G36*
G01*
X144900000Y-101325000D02*
X144900000Y-101175000D01*
G75*
G02*
X144975000Y-101100000I75000J0D01*
G01*
X146375000Y-101100000D01*
G75*
G02*
X146450000Y-101175000I0J-75000D01*
G01*
X146450000Y-101325000D01*
G75*
G02*
X146375000Y-101400000I-75000J0D01*
G01*
X144975000Y-101400000D01*
G75*
G02*
X144900000Y-101325000I0J75000D01*
G01*
G37*
%TD.AperFunction*%
%TO.P,U1,39*%
%TO.N,STEP_2-1*%
%TA.AperFunction,SMDPad,CuDef*%
G36*
G01*
X144900000Y-100825000D02*
X144900000Y-100675000D01*
G75*
G02*
X144975000Y-100600000I75000J0D01*
G01*
X146375000Y-100600000D01*
G75*
G02*
X146450000Y-100675000I0J-75000D01*
G01*
X146450000Y-100825000D01*
G75*
G02*
X146375000Y-100900000I-75000J0D01*
G01*
X144975000Y-100900000D01*
G75*
G02*
X144900000Y-100825000I0J75000D01*
G01*
G37*
%TD.AperFunction*%
%TO.P,U1,40*%
%TO.N,STEP_1-4*%
%TA.AperFunction,SMDPad,CuDef*%
G36*
G01*
X144900000Y-100325000D02*
X144900000Y-100175000D01*
G75*
G02*
X144975000Y-100100000I75000J0D01*
G01*
X146375000Y-100100000D01*
G75*
G02*
X146450000Y-100175000I0J-75000D01*
G01*
X146450000Y-100325000D01*
G75*
G02*
X146375000Y-100400000I-75000J0D01*
G01*
X144975000Y-100400000D01*
G75*
G02*
X144900000Y-100325000I0J75000D01*
G01*
G37*
%TD.AperFunction*%
%TO.P,U1,41*%
%TO.N,STEP_1-3*%
%TA.AperFunction,SMDPad,CuDef*%
G36*
G01*
X144900000Y-99825000D02*
X144900000Y-99675000D01*
G75*
G02*
X144975000Y-99600000I75000J0D01*
G01*
X146375000Y-99600000D01*
G75*
G02*
X146450000Y-99675000I0J-75000D01*
G01*
X146450000Y-99825000D01*
G75*
G02*
X146375000Y-99900000I-75000J0D01*
G01*
X144975000Y-99900000D01*
G75*
G02*
X144900000Y-99825000I0J75000D01*
G01*
G37*
%TD.AperFunction*%
%TO.P,U1,42*%
%TO.N,STEP_1-2*%
%TA.AperFunction,SMDPad,CuDef*%
G36*
G01*
X144900000Y-99325000D02*
X144900000Y-99175000D01*
G75*
G02*
X144975000Y-99100000I75000J0D01*
G01*
X146375000Y-99100000D01*
G75*
G02*
X146450000Y-99175000I0J-75000D01*
G01*
X146450000Y-99325000D01*
G75*
G02*
X146375000Y-99400000I-75000J0D01*
G01*
X144975000Y-99400000D01*
G75*
G02*
X144900000Y-99325000I0J75000D01*
G01*
G37*
%TD.AperFunction*%
%TO.P,U1,43*%
%TO.N,STEP_1-1*%
%TA.AperFunction,SMDPad,CuDef*%
G36*
G01*
X144900000Y-98825000D02*
X144900000Y-98675000D01*
G75*
G02*
X144975000Y-98600000I75000J0D01*
G01*
X146375000Y-98600000D01*
G75*
G02*
X146450000Y-98675000I0J-75000D01*
G01*
X146450000Y-98825000D01*
G75*
G02*
X146375000Y-98900000I-75000J0D01*
G01*
X144975000Y-98900000D01*
G75*
G02*
X144900000Y-98825000I0J75000D01*
G01*
G37*
%TD.AperFunction*%
%TO.P,U1,44*%
%TO.N,USB_D-*%
%TA.AperFunction,SMDPad,CuDef*%
G36*
G01*
X144900000Y-98325000D02*
X144900000Y-98175000D01*
G75*
G02*
X144975000Y-98100000I75000J0D01*
G01*
X146375000Y-98100000D01*
G75*
G02*
X146450000Y-98175000I0J-75000D01*
G01*
X146450000Y-98325000D01*
G75*
G02*
X146375000Y-98400000I-75000J0D01*
G01*
X144975000Y-98400000D01*
G75*
G02*
X144900000Y-98325000I0J75000D01*
G01*
G37*
%TD.AperFunction*%
%TO.P,U1,45*%
%TO.N,USB_D+*%
%TA.AperFunction,SMDPad,CuDef*%
G36*
G01*
X144900000Y-97825000D02*
X144900000Y-97675000D01*
G75*
G02*
X144975000Y-97600000I75000J0D01*
G01*
X146375000Y-97600000D01*
G75*
G02*
X146450000Y-97675000I0J-75000D01*
G01*
X146450000Y-97825000D01*
G75*
G02*
X146375000Y-97900000I-75000J0D01*
G01*
X144975000Y-97900000D01*
G75*
G02*
X144900000Y-97825000I0J75000D01*
G01*
G37*
%TD.AperFunction*%
%TO.P,U1,46*%
%TO.N,SWDIO*%
%TA.AperFunction,SMDPad,CuDef*%
G36*
G01*
X144900000Y-97325000D02*
X144900000Y-97175000D01*
G75*
G02*
X144975000Y-97100000I75000J0D01*
G01*
X146375000Y-97100000D01*
G75*
G02*
X146450000Y-97175000I0J-75000D01*
G01*
X146450000Y-97325000D01*
G75*
G02*
X146375000Y-97400000I-75000J0D01*
G01*
X144975000Y-97400000D01*
G75*
G02*
X144900000Y-97325000I0J75000D01*
G01*
G37*
%TD.AperFunction*%
%TO.P,U1,47*%
%TO.N,Net-(C4-Pad1)*%
%TA.AperFunction,SMDPad,CuDef*%
G36*
G01*
X144900000Y-96825000D02*
X144900000Y-96675000D01*
G75*
G02*
X144975000Y-96600000I75000J0D01*
G01*
X146375000Y-96600000D01*
G75*
G02*
X146450000Y-96675000I0J-75000D01*
G01*
X146450000Y-96825000D01*
G75*
G02*
X146375000Y-96900000I-75000J0D01*
G01*
X144975000Y-96900000D01*
G75*
G02*
X144900000Y-96825000I0J75000D01*
G01*
G37*
%TD.AperFunction*%
%TO.P,U1,48*%
%TO.N,+3V3*%
%TA.AperFunction,SMDPad,CuDef*%
G36*
G01*
X144900000Y-96325000D02*
X144900000Y-96175000D01*
G75*
G02*
X144975000Y-96100000I75000J0D01*
G01*
X146375000Y-96100000D01*
G75*
G02*
X146450000Y-96175000I0J-75000D01*
G01*
X146450000Y-96325000D01*
G75*
G02*
X146375000Y-96400000I-75000J0D01*
G01*
X144975000Y-96400000D01*
G75*
G02*
X144900000Y-96325000I0J75000D01*
G01*
G37*
%TD.AperFunction*%
%TO.P,U1,49*%
%TO.N,SWCLK*%
%TA.AperFunction,SMDPad,CuDef*%
G36*
G01*
X143600000Y-95025000D02*
X143600000Y-93625000D01*
G75*
G02*
X143675000Y-93550000I75000J0D01*
G01*
X143825000Y-93550000D01*
G75*
G02*
X143900000Y-93625000I0J-75000D01*
G01*
X143900000Y-95025000D01*
G75*
G02*
X143825000Y-95100000I-75000J0D01*
G01*
X143675000Y-95100000D01*
G75*
G02*
X143600000Y-95025000I0J75000D01*
G01*
G37*
%TD.AperFunction*%
%TO.P,U1,50*%
%TO.N,Net-(U1-Pad50)*%
%TA.AperFunction,SMDPad,CuDef*%
G36*
G01*
X143100000Y-95025000D02*
X143100000Y-93625000D01*
G75*
G02*
X143175000Y-93550000I75000J0D01*
G01*
X143325000Y-93550000D01*
G75*
G02*
X143400000Y-93625000I0J-75000D01*
G01*
X143400000Y-95025000D01*
G75*
G02*
X143325000Y-95100000I-75000J0D01*
G01*
X143175000Y-95100000D01*
G75*
G02*
X143100000Y-95025000I0J75000D01*
G01*
G37*
%TD.AperFunction*%
%TO.P,U1,51*%
%TO.N,Net-(U1-Pad51)*%
%TA.AperFunction,SMDPad,CuDef*%
G36*
G01*
X142600000Y-95025000D02*
X142600000Y-93625000D01*
G75*
G02*
X142675000Y-93550000I75000J0D01*
G01*
X142825000Y-93550000D01*
G75*
G02*
X142900000Y-93625000I0J-75000D01*
G01*
X142900000Y-95025000D01*
G75*
G02*
X142825000Y-95100000I-75000J0D01*
G01*
X142675000Y-95100000D01*
G75*
G02*
X142600000Y-95025000I0J75000D01*
G01*
G37*
%TD.AperFunction*%
%TO.P,U1,52*%
%TO.N,Net-(U1-Pad52)*%
%TA.AperFunction,SMDPad,CuDef*%
G36*
G01*
X142100000Y-95025000D02*
X142100000Y-93625000D01*
G75*
G02*
X142175000Y-93550000I75000J0D01*
G01*
X142325000Y-93550000D01*
G75*
G02*
X142400000Y-93625000I0J-75000D01*
G01*
X142400000Y-95025000D01*
G75*
G02*
X142325000Y-95100000I-75000J0D01*
G01*
X142175000Y-95100000D01*
G75*
G02*
X142100000Y-95025000I0J75000D01*
G01*
G37*
%TD.AperFunction*%
%TO.P,U1,53*%
%TO.N,Net-(U1-Pad53)*%
%TA.AperFunction,SMDPad,CuDef*%
G36*
G01*
X141600000Y-95025000D02*
X141600000Y-93625000D01*
G75*
G02*
X141675000Y-93550000I75000J0D01*
G01*
X141825000Y-93550000D01*
G75*
G02*
X141900000Y-93625000I0J-75000D01*
G01*
X141900000Y-95025000D01*
G75*
G02*
X141825000Y-95100000I-75000J0D01*
G01*
X141675000Y-95100000D01*
G75*
G02*
X141600000Y-95025000I0J75000D01*
G01*
G37*
%TD.AperFunction*%
%TO.P,U1,54*%
%TO.N,Net-(U1-Pad54)*%
%TA.AperFunction,SMDPad,CuDef*%
G36*
G01*
X141100000Y-95025000D02*
X141100000Y-93625000D01*
G75*
G02*
X141175000Y-93550000I75000J0D01*
G01*
X141325000Y-93550000D01*
G75*
G02*
X141400000Y-93625000I0J-75000D01*
G01*
X141400000Y-95025000D01*
G75*
G02*
X141325000Y-95100000I-75000J0D01*
G01*
X141175000Y-95100000D01*
G75*
G02*
X141100000Y-95025000I0J75000D01*
G01*
G37*
%TD.AperFunction*%
%TO.P,U1,55*%
%TO.N,SWO*%
%TA.AperFunction,SMDPad,CuDef*%
G36*
G01*
X140600000Y-95025000D02*
X140600000Y-93625000D01*
G75*
G02*
X140675000Y-93550000I75000J0D01*
G01*
X140825000Y-93550000D01*
G75*
G02*
X140900000Y-93625000I0J-75000D01*
G01*
X140900000Y-95025000D01*
G75*
G02*
X140825000Y-95100000I-75000J0D01*
G01*
X140675000Y-95100000D01*
G75*
G02*
X140600000Y-95025000I0J75000D01*
G01*
G37*
%TD.AperFunction*%
%TO.P,U1,56*%
%TO.N,Net-(U1-Pad56)*%
%TA.AperFunction,SMDPad,CuDef*%
G36*
G01*
X140100000Y-95025000D02*
X140100000Y-93625000D01*
G75*
G02*
X140175000Y-93550000I75000J0D01*
G01*
X140325000Y-93550000D01*
G75*
G02*
X140400000Y-93625000I0J-75000D01*
G01*
X140400000Y-95025000D01*
G75*
G02*
X140325000Y-95100000I-75000J0D01*
G01*
X140175000Y-95100000D01*
G75*
G02*
X140100000Y-95025000I0J75000D01*
G01*
G37*
%TD.AperFunction*%
%TO.P,U1,57*%
%TO.N,Net-(U1-Pad57)*%
%TA.AperFunction,SMDPad,CuDef*%
G36*
G01*
X139600000Y-95025000D02*
X139600000Y-93625000D01*
G75*
G02*
X139675000Y-93550000I75000J0D01*
G01*
X139825000Y-93550000D01*
G75*
G02*
X139900000Y-93625000I0J-75000D01*
G01*
X139900000Y-95025000D01*
G75*
G02*
X139825000Y-95100000I-75000J0D01*
G01*
X139675000Y-95100000D01*
G75*
G02*
X139600000Y-95025000I0J75000D01*
G01*
G37*
%TD.AperFunction*%
%TO.P,U1,58*%
%TO.N,I2C1_SCL*%
%TA.AperFunction,SMDPad,CuDef*%
G36*
G01*
X139100000Y-95025000D02*
X139100000Y-93625000D01*
G75*
G02*
X139175000Y-93550000I75000J0D01*
G01*
X139325000Y-93550000D01*
G75*
G02*
X139400000Y-93625000I0J-75000D01*
G01*
X139400000Y-95025000D01*
G75*
G02*
X139325000Y-95100000I-75000J0D01*
G01*
X139175000Y-95100000D01*
G75*
G02*
X139100000Y-95025000I0J75000D01*
G01*
G37*
%TD.AperFunction*%
%TO.P,U1,59*%
%TO.N,I2C1_SDA*%
%TA.AperFunction,SMDPad,CuDef*%
G36*
G01*
X138600000Y-95025000D02*
X138600000Y-93625000D01*
G75*
G02*
X138675000Y-93550000I75000J0D01*
G01*
X138825000Y-93550000D01*
G75*
G02*
X138900000Y-93625000I0J-75000D01*
G01*
X138900000Y-95025000D01*
G75*
G02*
X138825000Y-95100000I-75000J0D01*
G01*
X138675000Y-95100000D01*
G75*
G02*
X138600000Y-95025000I0J75000D01*
G01*
G37*
%TD.AperFunction*%
%TO.P,U1,60*%
%TO.N,BOOT0*%
%TA.AperFunction,SMDPad,CuDef*%
G36*
G01*
X138100000Y-95025000D02*
X138100000Y-93625000D01*
G75*
G02*
X138175000Y-93550000I75000J0D01*
G01*
X138325000Y-93550000D01*
G75*
G02*
X138400000Y-93625000I0J-75000D01*
G01*
X138400000Y-95025000D01*
G75*
G02*
X138325000Y-95100000I-75000J0D01*
G01*
X138175000Y-95100000D01*
G75*
G02*
X138100000Y-95025000I0J75000D01*
G01*
G37*
%TD.AperFunction*%
%TO.P,U1,61*%
%TO.N,Net-(U1-Pad61)*%
%TA.AperFunction,SMDPad,CuDef*%
G36*
G01*
X137600000Y-95025000D02*
X137600000Y-93625000D01*
G75*
G02*
X137675000Y-93550000I75000J0D01*
G01*
X137825000Y-93550000D01*
G75*
G02*
X137900000Y-93625000I0J-75000D01*
G01*
X137900000Y-95025000D01*
G75*
G02*
X137825000Y-95100000I-75000J0D01*
G01*
X137675000Y-95100000D01*
G75*
G02*
X137600000Y-95025000I0J75000D01*
G01*
G37*
%TD.AperFunction*%
%TO.P,U1,62*%
%TO.N,Net-(U1-Pad62)*%
%TA.AperFunction,SMDPad,CuDef*%
G36*
G01*
X137100000Y-95025000D02*
X137100000Y-93625000D01*
G75*
G02*
X137175000Y-93550000I75000J0D01*
G01*
X137325000Y-93550000D01*
G75*
G02*
X137400000Y-93625000I0J-75000D01*
G01*
X137400000Y-95025000D01*
G75*
G02*
X137325000Y-95100000I-75000J0D01*
G01*
X137175000Y-95100000D01*
G75*
G02*
X137100000Y-95025000I0J75000D01*
G01*
G37*
%TD.AperFunction*%
%TO.P,U1,63*%
%TO.N,GND*%
%TA.AperFunction,SMDPad,CuDef*%
G36*
G01*
X136600000Y-95025000D02*
X136600000Y-93625000D01*
G75*
G02*
X136675000Y-93550000I75000J0D01*
G01*
X136825000Y-93550000D01*
G75*
G02*
X136900000Y-93625000I0J-75000D01*
G01*
X136900000Y-95025000D01*
G75*
G02*
X136825000Y-95100000I-75000J0D01*
G01*
X136675000Y-95100000D01*
G75*
G02*
X136600000Y-95025000I0J75000D01*
G01*
G37*
%TD.AperFunction*%
%TO.P,U1,64*%
%TO.N,+3V3*%
%TA.AperFunction,SMDPad,CuDef*%
G36*
G01*
X136100000Y-95025000D02*
X136100000Y-93625000D01*
G75*
G02*
X136175000Y-93550000I75000J0D01*
G01*
X136325000Y-93550000D01*
G75*
G02*
X136400000Y-93625000I0J-75000D01*
G01*
X136400000Y-95025000D01*
G75*
G02*
X136325000Y-95100000I-75000J0D01*
G01*
X136175000Y-95100000D01*
G75*
G02*
X136100000Y-95025000I0J75000D01*
G01*
G37*
%TD.AperFunction*%
%TD*%
D11*
%TO.P,J8,1*%
%TO.N,+5V*%
X185110000Y-115830000D03*
D12*
%TO.P,J8,2*%
%TO.N,Net-(J8-Pad2)*%
X185110000Y-112330000D03*
%TO.P,J8,3*%
%TO.N,Net-(J8-Pad3)*%
X185110000Y-108830000D03*
%TO.P,J8,4*%
%TO.N,Net-(J8-Pad4)*%
X185110000Y-105330000D03*
%TO.P,J8,5*%
%TO.N,Net-(J8-Pad5)*%
X185110000Y-101830000D03*
%TD*%
%TO.P,R3,2*%
%TO.N,BUCK_IN*%
%TA.AperFunction,SMDPad,CuDef*%
G36*
G01*
X124415000Y-117535000D02*
X123865000Y-117535000D01*
G75*
G02*
X123665000Y-117335000I0J200000D01*
G01*
X123665000Y-116935000D01*
G75*
G02*
X123865000Y-116735000I200000J0D01*
G01*
X124415000Y-116735000D01*
G75*
G02*
X124615000Y-116935000I0J-200000D01*
G01*
X124615000Y-117335000D01*
G75*
G02*
X124415000Y-117535000I-200000J0D01*
G01*
G37*
%TD.AperFunction*%
%TO.P,R3,1*%
%TO.N,BUCK_EN*%
%TA.AperFunction,SMDPad,CuDef*%
G36*
G01*
X124415000Y-119185000D02*
X123865000Y-119185000D01*
G75*
G02*
X123665000Y-118985000I0J200000D01*
G01*
X123665000Y-118585000D01*
G75*
G02*
X123865000Y-118385000I200000J0D01*
G01*
X124415000Y-118385000D01*
G75*
G02*
X124615000Y-118585000I0J-200000D01*
G01*
X124615000Y-118985000D01*
G75*
G02*
X124415000Y-119185000I-200000J0D01*
G01*
G37*
%TD.AperFunction*%
%TD*%
D13*
%TO.P,H1,1*%
%TO.N,GND*%
X187655419Y-72719581D03*
X185375000Y-71775000D03*
X183094581Y-72719581D03*
X182150000Y-75000000D03*
X183094581Y-77280419D03*
X185375000Y-78225000D03*
X187655419Y-77280419D03*
X188600000Y-75000000D03*
D14*
X185375000Y-75000000D03*
%TD*%
%TO.P,C1,2*%
%TO.N,GND*%
%TA.AperFunction,SMDPad,CuDef*%
G36*
G01*
X130485000Y-94746000D02*
X130485000Y-95246000D01*
G75*
G02*
X130260000Y-95471000I-225000J0D01*
G01*
X129810000Y-95471000D01*
G75*
G02*
X129585000Y-95246000I0J225000D01*
G01*
X129585000Y-94746000D01*
G75*
G02*
X129810000Y-94521000I225000J0D01*
G01*
X130260000Y-94521000D01*
G75*
G02*
X130485000Y-94746000I0J-225000D01*
G01*
G37*
%TD.AperFunction*%
%TO.P,C1,1*%
%TO.N,+3V3*%
%TA.AperFunction,SMDPad,CuDef*%
G36*
G01*
X132035000Y-94746000D02*
X132035000Y-95246000D01*
G75*
G02*
X131810000Y-95471000I-225000J0D01*
G01*
X131360000Y-95471000D01*
G75*
G02*
X131135000Y-95246000I0J225000D01*
G01*
X131135000Y-94746000D01*
G75*
G02*
X131360000Y-94521000I225000J0D01*
G01*
X131810000Y-94521000D01*
G75*
G02*
X132035000Y-94746000I0J-225000D01*
G01*
G37*
%TD.AperFunction*%
%TD*%
%TO.P,C2,2*%
%TO.N,GND*%
%TA.AperFunction,SMDPad,CuDef*%
G36*
G01*
X147775000Y-108940000D02*
X147775000Y-108440000D01*
G75*
G02*
X148000000Y-108215000I225000J0D01*
G01*
X148450000Y-108215000D01*
G75*
G02*
X148675000Y-108440000I0J-225000D01*
G01*
X148675000Y-108940000D01*
G75*
G02*
X148450000Y-109165000I-225000J0D01*
G01*
X148000000Y-109165000D01*
G75*
G02*
X147775000Y-108940000I0J225000D01*
G01*
G37*
%TD.AperFunction*%
%TO.P,C2,1*%
%TO.N,Net-(C2-Pad1)*%
%TA.AperFunction,SMDPad,CuDef*%
G36*
G01*
X146225000Y-108940000D02*
X146225000Y-108440000D01*
G75*
G02*
X146450000Y-108215000I225000J0D01*
G01*
X146900000Y-108215000D01*
G75*
G02*
X147125000Y-108440000I0J-225000D01*
G01*
X147125000Y-108940000D01*
G75*
G02*
X146900000Y-109165000I-225000J0D01*
G01*
X146450000Y-109165000D01*
G75*
G02*
X146225000Y-108940000I0J225000D01*
G01*
G37*
%TD.AperFunction*%
%TD*%
%TO.P,C3,1*%
%TO.N,+3V3*%
%TA.AperFunction,SMDPad,CuDef*%
G36*
G01*
X132035000Y-92968000D02*
X132035000Y-93468000D01*
G75*
G02*
X131810000Y-93693000I-225000J0D01*
G01*
X131360000Y-93693000D01*
G75*
G02*
X131135000Y-93468000I0J225000D01*
G01*
X131135000Y-92968000D01*
G75*
G02*
X131360000Y-92743000I225000J0D01*
G01*
X131810000Y-92743000D01*
G75*
G02*
X132035000Y-92968000I0J-225000D01*
G01*
G37*
%TD.AperFunction*%
%TO.P,C3,2*%
%TO.N,GND*%
%TA.AperFunction,SMDPad,CuDef*%
G36*
G01*
X130485000Y-92968000D02*
X130485000Y-93468000D01*
G75*
G02*
X130260000Y-93693000I-225000J0D01*
G01*
X129810000Y-93693000D01*
G75*
G02*
X129585000Y-93468000I0J225000D01*
G01*
X129585000Y-92968000D01*
G75*
G02*
X129810000Y-92743000I225000J0D01*
G01*
X130260000Y-92743000D01*
G75*
G02*
X130485000Y-92968000I0J-225000D01*
G01*
G37*
%TD.AperFunction*%
%TD*%
%TO.P,C5,1*%
%TO.N,+3V3*%
%TA.AperFunction,SMDPad,CuDef*%
G36*
G01*
X146095000Y-106168000D02*
X146095000Y-105668000D01*
G75*
G02*
X146320000Y-105443000I225000J0D01*
G01*
X146770000Y-105443000D01*
G75*
G02*
X146995000Y-105668000I0J-225000D01*
G01*
X146995000Y-106168000D01*
G75*
G02*
X146770000Y-106393000I-225000J0D01*
G01*
X146320000Y-106393000D01*
G75*
G02*
X146095000Y-106168000I0J225000D01*
G01*
G37*
%TD.AperFunction*%
%TO.P,C5,2*%
%TO.N,GND*%
%TA.AperFunction,SMDPad,CuDef*%
G36*
G01*
X147645000Y-106168000D02*
X147645000Y-105668000D01*
G75*
G02*
X147870000Y-105443000I225000J0D01*
G01*
X148320000Y-105443000D01*
G75*
G02*
X148545000Y-105668000I0J-225000D01*
G01*
X148545000Y-106168000D01*
G75*
G02*
X148320000Y-106393000I-225000J0D01*
G01*
X147870000Y-106393000D01*
G75*
G02*
X147645000Y-106168000I0J225000D01*
G01*
G37*
%TD.AperFunction*%
%TD*%
%TO.P,C6,2*%
%TO.N,GND*%
%TA.AperFunction,SMDPad,CuDef*%
G36*
G01*
X134295000Y-91698000D02*
X134295000Y-92198000D01*
G75*
G02*
X134070000Y-92423000I-225000J0D01*
G01*
X133620000Y-92423000D01*
G75*
G02*
X133395000Y-92198000I0J225000D01*
G01*
X133395000Y-91698000D01*
G75*
G02*
X133620000Y-91473000I225000J0D01*
G01*
X134070000Y-91473000D01*
G75*
G02*
X134295000Y-91698000I0J-225000D01*
G01*
G37*
%TD.AperFunction*%
%TO.P,C6,1*%
%TO.N,+3V3*%
%TA.AperFunction,SMDPad,CuDef*%
G36*
G01*
X135845000Y-91698000D02*
X135845000Y-92198000D01*
G75*
G02*
X135620000Y-92423000I-225000J0D01*
G01*
X135170000Y-92423000D01*
G75*
G02*
X134945000Y-92198000I0J225000D01*
G01*
X134945000Y-91698000D01*
G75*
G02*
X135170000Y-91473000I225000J0D01*
G01*
X135620000Y-91473000D01*
G75*
G02*
X135845000Y-91698000I0J-225000D01*
G01*
G37*
%TD.AperFunction*%
%TD*%
%TO.P,C7,1*%
%TO.N,BUCK_IN*%
%TA.AperFunction,SMDPad,CuDef*%
G36*
G01*
X119237999Y-116568000D02*
X120538001Y-116568000D01*
G75*
G02*
X120788000Y-116817999I0J-249999D01*
G01*
X120788000Y-117468001D01*
G75*
G02*
X120538001Y-117718000I-249999J0D01*
G01*
X119237999Y-117718000D01*
G75*
G02*
X118988000Y-117468001I0J249999D01*
G01*
X118988000Y-116817999D01*
G75*
G02*
X119237999Y-116568000I249999J0D01*
G01*
G37*
%TD.AperFunction*%
%TO.P,C7,2*%
%TO.N,GND*%
%TA.AperFunction,SMDPad,CuDef*%
G36*
G01*
X119237999Y-119518000D02*
X120538001Y-119518000D01*
G75*
G02*
X120788000Y-119767999I0J-249999D01*
G01*
X120788000Y-120418001D01*
G75*
G02*
X120538001Y-120668000I-249999J0D01*
G01*
X119237999Y-120668000D01*
G75*
G02*
X118988000Y-120418001I0J249999D01*
G01*
X118988000Y-119767999D01*
G75*
G02*
X119237999Y-119518000I249999J0D01*
G01*
G37*
%TD.AperFunction*%
%TD*%
%TO.P,C8,1*%
%TO.N,+3V3*%
%TA.AperFunction,SMDPad,CuDef*%
G36*
G01*
X135670000Y-109685000D02*
X135170000Y-109685000D01*
G75*
G02*
X134945000Y-109460000I0J225000D01*
G01*
X134945000Y-109010000D01*
G75*
G02*
X135170000Y-108785000I225000J0D01*
G01*
X135670000Y-108785000D01*
G75*
G02*
X135895000Y-109010000I0J-225000D01*
G01*
X135895000Y-109460000D01*
G75*
G02*
X135670000Y-109685000I-225000J0D01*
G01*
G37*
%TD.AperFunction*%
%TO.P,C8,2*%
%TO.N,GND*%
%TA.AperFunction,SMDPad,CuDef*%
G36*
G01*
X135670000Y-108135000D02*
X135170000Y-108135000D01*
G75*
G02*
X134945000Y-107910000I0J225000D01*
G01*
X134945000Y-107460000D01*
G75*
G02*
X135170000Y-107235000I225000J0D01*
G01*
X135670000Y-107235000D01*
G75*
G02*
X135895000Y-107460000I0J-225000D01*
G01*
X135895000Y-107910000D01*
G75*
G02*
X135670000Y-108135000I-225000J0D01*
G01*
G37*
%TD.AperFunction*%
%TD*%
%TO.P,C9,2*%
%TO.N,GND*%
%TA.AperFunction,SMDPad,CuDef*%
G36*
G01*
X148370000Y-93980000D02*
X148370000Y-93480000D01*
G75*
G02*
X148595000Y-93255000I225000J0D01*
G01*
X149045000Y-93255000D01*
G75*
G02*
X149270000Y-93480000I0J-225000D01*
G01*
X149270000Y-93980000D01*
G75*
G02*
X149045000Y-94205000I-225000J0D01*
G01*
X148595000Y-94205000D01*
G75*
G02*
X148370000Y-93980000I0J225000D01*
G01*
G37*
%TD.AperFunction*%
%TO.P,C9,1*%
%TO.N,+3V3*%
%TA.AperFunction,SMDPad,CuDef*%
G36*
G01*
X146820000Y-93980000D02*
X146820000Y-93480000D01*
G75*
G02*
X147045000Y-93255000I225000J0D01*
G01*
X147495000Y-93255000D01*
G75*
G02*
X147720000Y-93480000I0J-225000D01*
G01*
X147720000Y-93980000D01*
G75*
G02*
X147495000Y-94205000I-225000J0D01*
G01*
X147045000Y-94205000D01*
G75*
G02*
X146820000Y-93980000I0J225000D01*
G01*
G37*
%TD.AperFunction*%
%TD*%
%TO.P,C10,2*%
%TO.N,GND*%
%TA.AperFunction,SMDPad,CuDef*%
G36*
G01*
X134295000Y-88396000D02*
X134295000Y-88896000D01*
G75*
G02*
X134070000Y-89121000I-225000J0D01*
G01*
X133620000Y-89121000D01*
G75*
G02*
X133395000Y-88896000I0J225000D01*
G01*
X133395000Y-88396000D01*
G75*
G02*
X133620000Y-88171000I225000J0D01*
G01*
X134070000Y-88171000D01*
G75*
G02*
X134295000Y-88396000I0J-225000D01*
G01*
G37*
%TD.AperFunction*%
%TO.P,C10,1*%
%TO.N,+3V3*%
%TA.AperFunction,SMDPad,CuDef*%
G36*
G01*
X135845000Y-88396000D02*
X135845000Y-88896000D01*
G75*
G02*
X135620000Y-89121000I-225000J0D01*
G01*
X135170000Y-89121000D01*
G75*
G02*
X134945000Y-88896000I0J225000D01*
G01*
X134945000Y-88396000D01*
G75*
G02*
X135170000Y-88171000I225000J0D01*
G01*
X135620000Y-88171000D01*
G75*
G02*
X135845000Y-88396000I0J-225000D01*
G01*
G37*
%TD.AperFunction*%
%TD*%
%TO.P,C11,1*%
%TO.N,Net-(C11-Pad1)*%
%TA.AperFunction,SMDPad,CuDef*%
G36*
G01*
X117393000Y-91436000D02*
X117393000Y-90936000D01*
G75*
G02*
X117618000Y-90711000I225000J0D01*
G01*
X118068000Y-90711000D01*
G75*
G02*
X118293000Y-90936000I0J-225000D01*
G01*
X118293000Y-91436000D01*
G75*
G02*
X118068000Y-91661000I-225000J0D01*
G01*
X117618000Y-91661000D01*
G75*
G02*
X117393000Y-91436000I0J225000D01*
G01*
G37*
%TD.AperFunction*%
%TO.P,C11,2*%
%TO.N,GND*%
%TA.AperFunction,SMDPad,CuDef*%
G36*
G01*
X118943000Y-91436000D02*
X118943000Y-90936000D01*
G75*
G02*
X119168000Y-90711000I225000J0D01*
G01*
X119618000Y-90711000D01*
G75*
G02*
X119843000Y-90936000I0J-225000D01*
G01*
X119843000Y-91436000D01*
G75*
G02*
X119618000Y-91661000I-225000J0D01*
G01*
X119168000Y-91661000D01*
G75*
G02*
X118943000Y-91436000I0J225000D01*
G01*
G37*
%TD.AperFunction*%
%TD*%
%TO.P,C14,1*%
%TO.N,+3V3*%
%TA.AperFunction,SMDPad,CuDef*%
G36*
G01*
X133368000Y-119999999D02*
X133368000Y-121300001D01*
G75*
G02*
X133118001Y-121550000I-249999J0D01*
G01*
X132467999Y-121550000D01*
G75*
G02*
X132218000Y-121300001I0J249999D01*
G01*
X132218000Y-119999999D01*
G75*
G02*
X132467999Y-119750000I249999J0D01*
G01*
X133118001Y-119750000D01*
G75*
G02*
X133368000Y-119999999I0J-249999D01*
G01*
G37*
%TD.AperFunction*%
%TO.P,C14,2*%
%TO.N,GND*%
%TA.AperFunction,SMDPad,CuDef*%
G36*
G01*
X130418000Y-119999999D02*
X130418000Y-121300001D01*
G75*
G02*
X130168001Y-121550000I-249999J0D01*
G01*
X129517999Y-121550000D01*
G75*
G02*
X129268000Y-121300001I0J249999D01*
G01*
X129268000Y-119999999D01*
G75*
G02*
X129517999Y-119750000I249999J0D01*
G01*
X130168001Y-119750000D01*
G75*
G02*
X130418000Y-119999999I0J-249999D01*
G01*
G37*
%TD.AperFunction*%
%TD*%
%TO.P,C15,2*%
%TO.N,GND*%
%TA.AperFunction,SMDPad,CuDef*%
G36*
G01*
X142124000Y-121046001D02*
X142124000Y-119745999D01*
G75*
G02*
X142373999Y-119496000I249999J0D01*
G01*
X143024001Y-119496000D01*
G75*
G02*
X143274000Y-119745999I0J-249999D01*
G01*
X143274000Y-121046001D01*
G75*
G02*
X143024001Y-121296000I-249999J0D01*
G01*
X142373999Y-121296000D01*
G75*
G02*
X142124000Y-121046001I0J249999D01*
G01*
G37*
%TD.AperFunction*%
%TO.P,C15,1*%
%TO.N,+3V3*%
%TA.AperFunction,SMDPad,CuDef*%
G36*
G01*
X139174000Y-121046001D02*
X139174000Y-119745999D01*
G75*
G02*
X139423999Y-119496000I249999J0D01*
G01*
X140074001Y-119496000D01*
G75*
G02*
X140324000Y-119745999I0J-249999D01*
G01*
X140324000Y-121046001D01*
G75*
G02*
X140074001Y-121296000I-249999J0D01*
G01*
X139423999Y-121296000D01*
G75*
G02*
X139174000Y-121046001I0J249999D01*
G01*
G37*
%TD.AperFunction*%
%TD*%
%TO.P,C16,1*%
%TO.N,HSE_IN*%
%TA.AperFunction,SMDPad,CuDef*%
G36*
G01*
X126240000Y-94912000D02*
X126240000Y-94572000D01*
G75*
G02*
X126380000Y-94432000I140000J0D01*
G01*
X126660000Y-94432000D01*
G75*
G02*
X126800000Y-94572000I0J-140000D01*
G01*
X126800000Y-94912000D01*
G75*
G02*
X126660000Y-95052000I-140000J0D01*
G01*
X126380000Y-95052000D01*
G75*
G02*
X126240000Y-94912000I0J140000D01*
G01*
G37*
%TD.AperFunction*%
%TO.P,C16,2*%
%TO.N,GND*%
%TA.AperFunction,SMDPad,CuDef*%
G36*
G01*
X127200000Y-94912000D02*
X127200000Y-94572000D01*
G75*
G02*
X127340000Y-94432000I140000J0D01*
G01*
X127620000Y-94432000D01*
G75*
G02*
X127760000Y-94572000I0J-140000D01*
G01*
X127760000Y-94912000D01*
G75*
G02*
X127620000Y-95052000I-140000J0D01*
G01*
X127340000Y-95052000D01*
G75*
G02*
X127200000Y-94912000I0J140000D01*
G01*
G37*
%TD.AperFunction*%
%TD*%
%TO.P,C17,2*%
%TO.N,GND*%
%TA.AperFunction,SMDPad,CuDef*%
G36*
G01*
X131996000Y-101654000D02*
X131656000Y-101654000D01*
G75*
G02*
X131516000Y-101514000I0J140000D01*
G01*
X131516000Y-101234000D01*
G75*
G02*
X131656000Y-101094000I140000J0D01*
G01*
X131996000Y-101094000D01*
G75*
G02*
X132136000Y-101234000I0J-140000D01*
G01*
X132136000Y-101514000D01*
G75*
G02*
X131996000Y-101654000I-140000J0D01*
G01*
G37*
%TD.AperFunction*%
%TO.P,C17,1*%
%TO.N,+3.3VA*%
%TA.AperFunction,SMDPad,CuDef*%
G36*
G01*
X131996000Y-102614000D02*
X131656000Y-102614000D01*
G75*
G02*
X131516000Y-102474000I0J140000D01*
G01*
X131516000Y-102194000D01*
G75*
G02*
X131656000Y-102054000I140000J0D01*
G01*
X131996000Y-102054000D01*
G75*
G02*
X132136000Y-102194000I0J-140000D01*
G01*
X132136000Y-102474000D01*
G75*
G02*
X131996000Y-102614000I-140000J0D01*
G01*
G37*
%TD.AperFunction*%
%TD*%
%TO.P,C18,2*%
%TO.N,GND*%
%TA.AperFunction,SMDPad,CuDef*%
G36*
G01*
X126800000Y-101430000D02*
X126800000Y-101770000D01*
G75*
G02*
X126660000Y-101910000I-140000J0D01*
G01*
X126380000Y-101910000D01*
G75*
G02*
X126240000Y-101770000I0J140000D01*
G01*
X126240000Y-101430000D01*
G75*
G02*
X126380000Y-101290000I140000J0D01*
G01*
X126660000Y-101290000D01*
G75*
G02*
X126800000Y-101430000I0J-140000D01*
G01*
G37*
%TD.AperFunction*%
%TO.P,C18,1*%
%TO.N,Net-(C18-Pad1)*%
%TA.AperFunction,SMDPad,CuDef*%
G36*
G01*
X127760000Y-101430000D02*
X127760000Y-101770000D01*
G75*
G02*
X127620000Y-101910000I-140000J0D01*
G01*
X127340000Y-101910000D01*
G75*
G02*
X127200000Y-101770000I0J140000D01*
G01*
X127200000Y-101430000D01*
G75*
G02*
X127340000Y-101290000I140000J0D01*
G01*
X127620000Y-101290000D01*
G75*
G02*
X127760000Y-101430000I0J-140000D01*
G01*
G37*
%TD.AperFunction*%
%TD*%
%TO.P,C19,1*%
%TO.N,+3.3VA*%
%TA.AperFunction,SMDPad,CuDef*%
G36*
G01*
X130472000Y-102614000D02*
X130132000Y-102614000D01*
G75*
G02*
X129992000Y-102474000I0J140000D01*
G01*
X129992000Y-102194000D01*
G75*
G02*
X130132000Y-102054000I140000J0D01*
G01*
X130472000Y-102054000D01*
G75*
G02*
X130612000Y-102194000I0J-140000D01*
G01*
X130612000Y-102474000D01*
G75*
G02*
X130472000Y-102614000I-140000J0D01*
G01*
G37*
%TD.AperFunction*%
%TO.P,C19,2*%
%TO.N,GND*%
%TA.AperFunction,SMDPad,CuDef*%
G36*
G01*
X130472000Y-101654000D02*
X130132000Y-101654000D01*
G75*
G02*
X129992000Y-101514000I0J140000D01*
G01*
X129992000Y-101234000D01*
G75*
G02*
X130132000Y-101094000I140000J0D01*
G01*
X130472000Y-101094000D01*
G75*
G02*
X130612000Y-101234000I0J-140000D01*
G01*
X130612000Y-101514000D01*
G75*
G02*
X130472000Y-101654000I-140000J0D01*
G01*
G37*
%TD.AperFunction*%
%TD*%
%TO.P,D1,1*%
%TO.N,Net-(D1-Pad1)*%
%TA.AperFunction,SMDPad,CuDef*%
G36*
G01*
X129839000Y-108714250D02*
X129839000Y-108201750D01*
G75*
G02*
X130057750Y-107983000I218750J0D01*
G01*
X130495250Y-107983000D01*
G75*
G02*
X130714000Y-108201750I0J-218750D01*
G01*
X130714000Y-108714250D01*
G75*
G02*
X130495250Y-108933000I-218750J0D01*
G01*
X130057750Y-108933000D01*
G75*
G02*
X129839000Y-108714250I0J218750D01*
G01*
G37*
%TD.AperFunction*%
%TO.P,D1,2*%
%TO.N,LED_STATUS*%
%TA.AperFunction,SMDPad,CuDef*%
G36*
G01*
X131414000Y-108714250D02*
X131414000Y-108201750D01*
G75*
G02*
X131632750Y-107983000I218750J0D01*
G01*
X132070250Y-107983000D01*
G75*
G02*
X132289000Y-108201750I0J-218750D01*
G01*
X132289000Y-108714250D01*
G75*
G02*
X132070250Y-108933000I-218750J0D01*
G01*
X131632750Y-108933000D01*
G75*
G02*
X131414000Y-108714250I0J218750D01*
G01*
G37*
%TD.AperFunction*%
%TD*%
D15*
%TO.P,D2,2*%
%TO.N,+5V*%
X135600000Y-117130000D03*
%TO.P,D2,1*%
%TO.N,Net-(D2-Pad1)*%
X132300000Y-117130000D03*
%TD*%
D16*
%TO.P,D3,1*%
%TO.N,BUCK_SW*%
X115320000Y-111140000D03*
%TO.P,D3,2*%
%TO.N,GND*%
X115320000Y-107840000D03*
%TD*%
%TO.P,D4,2*%
%TO.N,+3V3*%
%TA.AperFunction,SMDPad,CuDef*%
G36*
G01*
X153667750Y-90012000D02*
X154180250Y-90012000D01*
G75*
G02*
X154399000Y-90230750I0J-218750D01*
G01*
X154399000Y-90668250D01*
G75*
G02*
X154180250Y-90887000I-218750J0D01*
G01*
X153667750Y-90887000D01*
G75*
G02*
X153449000Y-90668250I0J218750D01*
G01*
X153449000Y-90230750D01*
G75*
G02*
X153667750Y-90012000I218750J0D01*
G01*
G37*
%TD.AperFunction*%
%TO.P,D4,1*%
%TO.N,Net-(D4-Pad1)*%
%TA.AperFunction,SMDPad,CuDef*%
G36*
G01*
X153667750Y-88437000D02*
X154180250Y-88437000D01*
G75*
G02*
X154399000Y-88655750I0J-218750D01*
G01*
X154399000Y-89093250D01*
G75*
G02*
X154180250Y-89312000I-218750J0D01*
G01*
X153667750Y-89312000D01*
G75*
G02*
X153449000Y-89093250I0J218750D01*
G01*
X153449000Y-88655750D01*
G75*
G02*
X153667750Y-88437000I218750J0D01*
G01*
G37*
%TD.AperFunction*%
%TD*%
%TO.P,F1,1*%
%TO.N,Net-(F1-Pad1)*%
%TA.AperFunction,SMDPad,CuDef*%
G36*
G01*
X121575000Y-110465000D02*
X120325000Y-110465000D01*
G75*
G02*
X120075000Y-110215000I0J250000D01*
G01*
X120075000Y-109465000D01*
G75*
G02*
X120325000Y-109215000I250000J0D01*
G01*
X121575000Y-109215000D01*
G75*
G02*
X121825000Y-109465000I0J-250000D01*
G01*
X121825000Y-110215000D01*
G75*
G02*
X121575000Y-110465000I-250000J0D01*
G01*
G37*
%TD.AperFunction*%
%TO.P,F1,2*%
%TO.N,+12V*%
%TA.AperFunction,SMDPad,CuDef*%
G36*
G01*
X121575000Y-107665000D02*
X120325000Y-107665000D01*
G75*
G02*
X120075000Y-107415000I0J250000D01*
G01*
X120075000Y-106665000D01*
G75*
G02*
X120325000Y-106415000I250000J0D01*
G01*
X121575000Y-106415000D01*
G75*
G02*
X121825000Y-106665000I0J-250000D01*
G01*
X121825000Y-107415000D01*
G75*
G02*
X121575000Y-107665000I-250000J0D01*
G01*
G37*
%TD.AperFunction*%
%TD*%
D13*
%TO.P,H2,1*%
%TO.N,GND*%
X187605419Y-128219581D03*
X185325000Y-127275000D03*
X183044581Y-128219581D03*
X182100000Y-130500000D03*
X183044581Y-132780419D03*
X185325000Y-133725000D03*
X187605419Y-132780419D03*
X188550000Y-130500000D03*
D14*
X185325000Y-130500000D03*
%TD*%
%TO.P,H3,1*%
%TO.N,GND*%
X95325000Y-130500000D03*
D13*
X98550000Y-130500000D03*
X97605419Y-132780419D03*
X95325000Y-133725000D03*
X93044581Y-132780419D03*
X92100000Y-130500000D03*
X93044581Y-128219581D03*
X95325000Y-127275000D03*
X97605419Y-128219581D03*
%TD*%
D14*
%TO.P,H4,1*%
%TO.N,GND*%
X95325000Y-75000000D03*
D13*
X98550000Y-75000000D03*
X97605419Y-77280419D03*
X95325000Y-78225000D03*
X93044581Y-77280419D03*
X92100000Y-75000000D03*
X93044581Y-72719581D03*
X95325000Y-71775000D03*
X97605419Y-72719581D03*
%TD*%
D17*
%TO.P,HSE1,1*%
%TO.N,HSE_IN*%
X126150000Y-97198000D03*
%TO.P,HSE1,2*%
%TO.N,GND*%
X126150000Y-99398000D03*
%TO.P,HSE1,3*%
%TO.N,Net-(C18-Pad1)*%
X127850000Y-99398000D03*
%TO.P,HSE1,4*%
%TO.N,GND*%
X127850000Y-97198000D03*
%TD*%
D11*
%TO.P,J1,1*%
%TO.N,+12V*%
X95760000Y-88700000D03*
D12*
%TO.P,J1,2*%
%TO.N,GND*%
X95760000Y-92200000D03*
%TO.P,J1,3*%
%TO.N,PC13*%
X95760000Y-95700000D03*
%TO.P,J1,4*%
%TO.N,PC14*%
X95760000Y-99200000D03*
%TO.P,J1,5*%
%TO.N,PC15*%
X95760000Y-102700000D03*
%TO.P,J1,6*%
%TO.N,PC8*%
X95760000Y-106200000D03*
%TD*%
D18*
%TO.P,J2,6*%
%TO.N,Net-(J2-Pad6)*%
X169150000Y-132837500D03*
D19*
X165650000Y-130137500D03*
D20*
%TO.P,J2,2*%
%TO.N,USB_CONN_D-*%
X167500000Y-130137500D03*
%TO.P,J2,1*%
%TO.N,+5V*%
X166850000Y-130137500D03*
%TO.P,J2,5*%
%TO.N,GND*%
X169450000Y-130137500D03*
%TO.P,J2,4*%
%TO.N,Net-(J2-Pad4)*%
X168800000Y-130137500D03*
%TO.P,J2,3*%
%TO.N,USB_CONN_D+*%
X168150000Y-130137500D03*
D19*
%TO.P,J2,6*%
%TO.N,Net-(J2-Pad6)*%
X170650000Y-130137500D03*
D18*
X167150000Y-132837500D03*
D21*
X164650000Y-132837500D03*
X171650000Y-132837500D03*
D22*
X171050000Y-132837500D03*
X165250000Y-132837500D03*
%TD*%
D12*
%TO.P,J4,4*%
%TO.N,GND*%
X106790000Y-75580000D03*
%TO.P,J4,3*%
%TO.N,I2C1_SDA*%
X110290000Y-75580000D03*
%TO.P,J4,2*%
%TO.N,I2C1_SCL*%
X113790000Y-75580000D03*
D11*
%TO.P,J4,1*%
%TO.N,+3V3*%
X117290000Y-75580000D03*
%TD*%
D12*
%TO.P,J5,5*%
%TO.N,Net-(J5-Pad5)*%
X185120000Y-82670000D03*
%TO.P,J5,4*%
%TO.N,Net-(J5-Pad4)*%
X185120000Y-86170000D03*
%TO.P,J5,3*%
%TO.N,Net-(J5-Pad3)*%
X185120000Y-89670000D03*
%TO.P,J5,2*%
%TO.N,Net-(J5-Pad2)*%
X185120000Y-93170000D03*
D11*
%TO.P,J5,1*%
%TO.N,+5V*%
X185120000Y-96670000D03*
%TD*%
%TO.P,J6,1*%
%TO.N,+3V3*%
X106100000Y-130170000D03*
D12*
%TO.P,J6,2*%
%TO.N,PA4*%
X109600000Y-130170000D03*
%TO.P,J6,3*%
%TO.N,PA5*%
X113100000Y-130170000D03*
%TO.P,J6,4*%
%TO.N,PA6*%
X116600000Y-130170000D03*
%TO.P,J6,5*%
%TO.N,PA7*%
X120100000Y-130170000D03*
%TO.P,J6,6*%
%TO.N,PC4*%
X123600000Y-130170000D03*
%TO.P,J6,7*%
%TO.N,PC5*%
X127100000Y-130170000D03*
%TO.P,J6,8*%
%TO.N,PB0*%
X130600000Y-130170000D03*
%TO.P,J6,9*%
%TO.N,PB1*%
X134100000Y-130170000D03*
%TO.P,J6,10*%
%TO.N,PB2*%
X137600000Y-130170000D03*
%TO.P,J6,11*%
%TO.N,GND*%
X141100000Y-130170000D03*
%TD*%
D11*
%TO.P,J7,1*%
%TO.N,+3V3*%
X148010000Y-130120000D03*
D12*
%TO.P,J7,2*%
%TO.N,UART3_TX*%
X151510000Y-130120000D03*
%TO.P,J7,3*%
%TO.N,UART3_RX*%
X155010000Y-130120000D03*
%TO.P,J7,4*%
%TO.N,GND*%
X158510000Y-130120000D03*
%TD*%
D23*
%TO.P,L1,1*%
%TO.N,BUCK_SW*%
X110570000Y-111140000D03*
%TO.P,L1,2*%
%TO.N,+3V3*%
X110570000Y-107040000D03*
%TD*%
D24*
%TO.P,Q1,1*%
%TO.N,GND*%
X119954000Y-113776000D03*
%TO.P,Q1,2*%
%TO.N,Net-(D2-Pad1)*%
X121854000Y-113776000D03*
%TO.P,Q1,3*%
%TO.N,Net-(F1-Pad1)*%
X120904000Y-111776000D03*
%TD*%
%TO.P,R1,1*%
%TO.N,Net-(D1-Pad1)*%
%TA.AperFunction,SMDPad,CuDef*%
G36*
G01*
X126701000Y-108183000D02*
X126701000Y-108733000D01*
G75*
G02*
X126501000Y-108933000I-200000J0D01*
G01*
X126101000Y-108933000D01*
G75*
G02*
X125901000Y-108733000I0J200000D01*
G01*
X125901000Y-108183000D01*
G75*
G02*
X126101000Y-107983000I200000J0D01*
G01*
X126501000Y-107983000D01*
G75*
G02*
X126701000Y-108183000I0J-200000D01*
G01*
G37*
%TD.AperFunction*%
%TO.P,R1,2*%
%TO.N,GND*%
%TA.AperFunction,SMDPad,CuDef*%
G36*
G01*
X125051000Y-108183000D02*
X125051000Y-108733000D01*
G75*
G02*
X124851000Y-108933000I-200000J0D01*
G01*
X124451000Y-108933000D01*
G75*
G02*
X124251000Y-108733000I0J200000D01*
G01*
X124251000Y-108183000D01*
G75*
G02*
X124451000Y-107983000I200000J0D01*
G01*
X124851000Y-107983000D01*
G75*
G02*
X125051000Y-108183000I0J-200000D01*
G01*
G37*
%TD.AperFunction*%
%TD*%
%TO.P,R2,1*%
%TO.N,Net-(R2-Pad1)*%
%TA.AperFunction,SMDPad,CuDef*%
G36*
G01*
X135451000Y-76434000D02*
X135821000Y-76434000D01*
G75*
G02*
X135956000Y-76569000I0J-135000D01*
G01*
X135956000Y-76839000D01*
G75*
G02*
X135821000Y-76974000I-135000J0D01*
G01*
X135451000Y-76974000D01*
G75*
G02*
X135316000Y-76839000I0J135000D01*
G01*
X135316000Y-76569000D01*
G75*
G02*
X135451000Y-76434000I135000J0D01*
G01*
G37*
%TD.AperFunction*%
%TO.P,R2,2*%
%TO.N,BOOT0*%
%TA.AperFunction,SMDPad,CuDef*%
G36*
G01*
X135451000Y-77454000D02*
X135821000Y-77454000D01*
G75*
G02*
X135956000Y-77589000I0J-135000D01*
G01*
X135956000Y-77859000D01*
G75*
G02*
X135821000Y-77994000I-135000J0D01*
G01*
X135451000Y-77994000D01*
G75*
G02*
X135316000Y-77859000I0J135000D01*
G01*
X135316000Y-77589000D01*
G75*
G02*
X135451000Y-77454000I135000J0D01*
G01*
G37*
%TD.AperFunction*%
%TD*%
%TO.P,R4,1*%
%TO.N,GND*%
%TA.AperFunction,SMDPad,CuDef*%
G36*
G01*
X126785000Y-120835000D02*
X126235000Y-120835000D01*
G75*
G02*
X126035000Y-120635000I0J200000D01*
G01*
X126035000Y-120235000D01*
G75*
G02*
X126235000Y-120035000I200000J0D01*
G01*
X126785000Y-120035000D01*
G75*
G02*
X126985000Y-120235000I0J-200000D01*
G01*
X126985000Y-120635000D01*
G75*
G02*
X126785000Y-120835000I-200000J0D01*
G01*
G37*
%TD.AperFunction*%
%TO.P,R4,2*%
%TO.N,BUCK_EN*%
%TA.AperFunction,SMDPad,CuDef*%
G36*
G01*
X126785000Y-119185000D02*
X126235000Y-119185000D01*
G75*
G02*
X126035000Y-118985000I0J200000D01*
G01*
X126035000Y-118585000D01*
G75*
G02*
X126235000Y-118385000I200000J0D01*
G01*
X126785000Y-118385000D01*
G75*
G02*
X126985000Y-118585000I0J-200000D01*
G01*
X126985000Y-118985000D01*
G75*
G02*
X126785000Y-119185000I-200000J0D01*
G01*
G37*
%TD.AperFunction*%
%TD*%
%TO.P,R5,2*%
%TO.N,+3V3*%
%TA.AperFunction,SMDPad,CuDef*%
G36*
G01*
X140476000Y-90239000D02*
X140476000Y-90609000D01*
G75*
G02*
X140341000Y-90744000I-135000J0D01*
G01*
X140071000Y-90744000D01*
G75*
G02*
X139936000Y-90609000I0J135000D01*
G01*
X139936000Y-90239000D01*
G75*
G02*
X140071000Y-90104000I135000J0D01*
G01*
X140341000Y-90104000D01*
G75*
G02*
X140476000Y-90239000I0J-135000D01*
G01*
G37*
%TD.AperFunction*%
%TO.P,R5,1*%
%TO.N,I2C1_SCL*%
%TA.AperFunction,SMDPad,CuDef*%
G36*
G01*
X141496000Y-90239000D02*
X141496000Y-90609000D01*
G75*
G02*
X141361000Y-90744000I-135000J0D01*
G01*
X141091000Y-90744000D01*
G75*
G02*
X140956000Y-90609000I0J135000D01*
G01*
X140956000Y-90239000D01*
G75*
G02*
X141091000Y-90104000I135000J0D01*
G01*
X141361000Y-90104000D01*
G75*
G02*
X141496000Y-90239000I0J-135000D01*
G01*
G37*
%TD.AperFunction*%
%TD*%
%TO.P,R6,1*%
%TO.N,I2C1_SDA*%
%TA.AperFunction,SMDPad,CuDef*%
G36*
G01*
X138448000Y-90239000D02*
X138448000Y-90609000D01*
G75*
G02*
X138313000Y-90744000I-135000J0D01*
G01*
X138043000Y-90744000D01*
G75*
G02*
X137908000Y-90609000I0J135000D01*
G01*
X137908000Y-90239000D01*
G75*
G02*
X138043000Y-90104000I135000J0D01*
G01*
X138313000Y-90104000D01*
G75*
G02*
X138448000Y-90239000I0J-135000D01*
G01*
G37*
%TD.AperFunction*%
%TO.P,R6,2*%
%TO.N,+3V3*%
%TA.AperFunction,SMDPad,CuDef*%
G36*
G01*
X137428000Y-90239000D02*
X137428000Y-90609000D01*
G75*
G02*
X137293000Y-90744000I-135000J0D01*
G01*
X137023000Y-90744000D01*
G75*
G02*
X136888000Y-90609000I0J135000D01*
G01*
X136888000Y-90239000D01*
G75*
G02*
X137023000Y-90104000I135000J0D01*
G01*
X137293000Y-90104000D01*
G75*
G02*
X137428000Y-90239000I0J-135000D01*
G01*
G37*
%TD.AperFunction*%
%TD*%
%TO.P,R7,1*%
%TO.N,BUCK_FB*%
%TA.AperFunction,SMDPad,CuDef*%
G36*
G01*
X105705000Y-117205000D02*
X106255000Y-117205000D01*
G75*
G02*
X106455000Y-117405000I0J-200000D01*
G01*
X106455000Y-117805000D01*
G75*
G02*
X106255000Y-118005000I-200000J0D01*
G01*
X105705000Y-118005000D01*
G75*
G02*
X105505000Y-117805000I0J200000D01*
G01*
X105505000Y-117405000D01*
G75*
G02*
X105705000Y-117205000I200000J0D01*
G01*
G37*
%TD.AperFunction*%
%TO.P,R7,2*%
%TO.N,+3V3*%
%TA.AperFunction,SMDPad,CuDef*%
G36*
G01*
X105705000Y-118855000D02*
X106255000Y-118855000D01*
G75*
G02*
X106455000Y-119055000I0J-200000D01*
G01*
X106455000Y-119455000D01*
G75*
G02*
X106255000Y-119655000I-200000J0D01*
G01*
X105705000Y-119655000D01*
G75*
G02*
X105505000Y-119455000I0J200000D01*
G01*
X105505000Y-119055000D01*
G75*
G02*
X105705000Y-118855000I200000J0D01*
G01*
G37*
%TD.AperFunction*%
%TD*%
%TO.P,R8,2*%
%TO.N,BUCK_FB*%
%TA.AperFunction,SMDPad,CuDef*%
G36*
G01*
X108505000Y-117985000D02*
X107955000Y-117985000D01*
G75*
G02*
X107755000Y-117785000I0J200000D01*
G01*
X107755000Y-117385000D01*
G75*
G02*
X107955000Y-117185000I200000J0D01*
G01*
X108505000Y-117185000D01*
G75*
G02*
X108705000Y-117385000I0J-200000D01*
G01*
X108705000Y-117785000D01*
G75*
G02*
X108505000Y-117985000I-200000J0D01*
G01*
G37*
%TD.AperFunction*%
%TO.P,R8,1*%
%TO.N,Net-(R8-Pad1)*%
%TA.AperFunction,SMDPad,CuDef*%
G36*
G01*
X108505000Y-119635000D02*
X107955000Y-119635000D01*
G75*
G02*
X107755000Y-119435000I0J200000D01*
G01*
X107755000Y-119035000D01*
G75*
G02*
X107955000Y-118835000I200000J0D01*
G01*
X108505000Y-118835000D01*
G75*
G02*
X108705000Y-119035000I0J-200000D01*
G01*
X108705000Y-119435000D01*
G75*
G02*
X108505000Y-119635000I-200000J0D01*
G01*
G37*
%TD.AperFunction*%
%TD*%
%TO.P,R9,1*%
%TO.N,GND*%
%TA.AperFunction,SMDPad,CuDef*%
G36*
G01*
X108505000Y-122995000D02*
X107955000Y-122995000D01*
G75*
G02*
X107755000Y-122795000I0J200000D01*
G01*
X107755000Y-122395000D01*
G75*
G02*
X107955000Y-122195000I200000J0D01*
G01*
X108505000Y-122195000D01*
G75*
G02*
X108705000Y-122395000I0J-200000D01*
G01*
X108705000Y-122795000D01*
G75*
G02*
X108505000Y-122995000I-200000J0D01*
G01*
G37*
%TD.AperFunction*%
%TO.P,R9,2*%
%TO.N,Net-(R8-Pad1)*%
%TA.AperFunction,SMDPad,CuDef*%
G36*
G01*
X108505000Y-121345000D02*
X107955000Y-121345000D01*
G75*
G02*
X107755000Y-121145000I0J200000D01*
G01*
X107755000Y-120745000D01*
G75*
G02*
X107955000Y-120545000I200000J0D01*
G01*
X108505000Y-120545000D01*
G75*
G02*
X108705000Y-120745000I0J-200000D01*
G01*
X108705000Y-121145000D01*
G75*
G02*
X108505000Y-121345000I-200000J0D01*
G01*
G37*
%TD.AperFunction*%
%TD*%
%TO.P,R10,2*%
%TO.N,Net-(D4-Pad1)*%
%TA.AperFunction,SMDPad,CuDef*%
G36*
G01*
X150031000Y-86889000D02*
X150031000Y-86339000D01*
G75*
G02*
X150231000Y-86139000I200000J0D01*
G01*
X150631000Y-86139000D01*
G75*
G02*
X150831000Y-86339000I0J-200000D01*
G01*
X150831000Y-86889000D01*
G75*
G02*
X150631000Y-87089000I-200000J0D01*
G01*
X150231000Y-87089000D01*
G75*
G02*
X150031000Y-86889000I0J200000D01*
G01*
G37*
%TD.AperFunction*%
%TO.P,R10,1*%
%TO.N,GND*%
%TA.AperFunction,SMDPad,CuDef*%
G36*
G01*
X148381000Y-86889000D02*
X148381000Y-86339000D01*
G75*
G02*
X148581000Y-86139000I200000J0D01*
G01*
X148981000Y-86139000D01*
G75*
G02*
X149181000Y-86339000I0J-200000D01*
G01*
X149181000Y-86889000D01*
G75*
G02*
X148981000Y-87089000I-200000J0D01*
G01*
X148581000Y-87089000D01*
G75*
G02*
X148381000Y-86889000I0J200000D01*
G01*
G37*
%TD.AperFunction*%
%TD*%
%TO.P,R11,2*%
%TO.N,Net-(C18-Pad1)*%
%TA.AperFunction,SMDPad,CuDef*%
G36*
G01*
X130316000Y-100145000D02*
X130316000Y-100515000D01*
G75*
G02*
X130181000Y-100650000I-135000J0D01*
G01*
X129911000Y-100650000D01*
G75*
G02*
X129776000Y-100515000I0J135000D01*
G01*
X129776000Y-100145000D01*
G75*
G02*
X129911000Y-100010000I135000J0D01*
G01*
X130181000Y-100010000D01*
G75*
G02*
X130316000Y-100145000I0J-135000D01*
G01*
G37*
%TD.AperFunction*%
%TO.P,R11,1*%
%TO.N,HSE_OUT*%
%TA.AperFunction,SMDPad,CuDef*%
G36*
G01*
X131336000Y-100145000D02*
X131336000Y-100515000D01*
G75*
G02*
X131201000Y-100650000I-135000J0D01*
G01*
X130931000Y-100650000D01*
G75*
G02*
X130796000Y-100515000I0J135000D01*
G01*
X130796000Y-100145000D01*
G75*
G02*
X130931000Y-100010000I135000J0D01*
G01*
X131201000Y-100010000D01*
G75*
G02*
X131336000Y-100145000I0J-135000D01*
G01*
G37*
%TD.AperFunction*%
%TD*%
D25*
%TO.P,SW1,1*%
%TO.N,+3V3*%
X138660000Y-73880000D03*
%TO.P,SW1,2*%
%TO.N,Net-(R2-Pad1)*%
X135660000Y-73880000D03*
%TO.P,SW1,3*%
%TO.N,GND*%
X134160000Y-73880000D03*
D26*
%TO.P,SW1,*%
%TO.N,*%
X140060000Y-71020000D03*
X132760000Y-71020000D03*
X132760000Y-73230000D03*
X140060000Y-73230000D03*
%TD*%
D27*
%TO.P,U2,5*%
%TO.N,BUCK_IN*%
X115908000Y-116586000D03*
%TO.P,U2,6*%
%TO.N,BUCK_SW*%
X115908000Y-115636000D03*
%TO.P,U2,4*%
%TO.N,BUCK_EN*%
X115908000Y-117536000D03*
%TO.P,U2,3*%
%TO.N,BUCK_FB*%
X113708000Y-117536000D03*
%TO.P,U2,2*%
%TO.N,GND*%
X113708000Y-116586000D03*
%TO.P,U2,1*%
%TO.N,BUCK_BST*%
X113708000Y-115636000D03*
%TD*%
%TO.P,U3,1*%
%TO.N,GND*%
%TA.AperFunction,SMDPad,CuDef*%
G36*
G01*
X114973000Y-85439000D02*
X114973000Y-85289000D01*
G75*
G02*
X115048000Y-85214000I75000J0D01*
G01*
X115748000Y-85214000D01*
G75*
G02*
X115823000Y-85289000I0J-75000D01*
G01*
X115823000Y-85439000D01*
G75*
G02*
X115748000Y-85514000I-75000J0D01*
G01*
X115048000Y-85514000D01*
G75*
G02*
X114973000Y-85439000I0J75000D01*
G01*
G37*
%TD.AperFunction*%
%TO.P,U3,2*%
%TO.N,N/C*%
%TA.AperFunction,SMDPad,CuDef*%
G36*
G01*
X114973000Y-85939000D02*
X114973000Y-85789000D01*
G75*
G02*
X115048000Y-85714000I75000J0D01*
G01*
X115748000Y-85714000D01*
G75*
G02*
X115823000Y-85789000I0J-75000D01*
G01*
X115823000Y-85939000D01*
G75*
G02*
X115748000Y-86014000I-75000J0D01*
G01*
X115048000Y-86014000D01*
G75*
G02*
X114973000Y-85939000I0J75000D01*
G01*
G37*
%TD.AperFunction*%
%TO.P,U3,3*%
%TA.AperFunction,SMDPad,CuDef*%
G36*
G01*
X114973000Y-86439000D02*
X114973000Y-86289000D01*
G75*
G02*
X115048000Y-86214000I75000J0D01*
G01*
X115748000Y-86214000D01*
G75*
G02*
X115823000Y-86289000I0J-75000D01*
G01*
X115823000Y-86439000D01*
G75*
G02*
X115748000Y-86514000I-75000J0D01*
G01*
X115048000Y-86514000D01*
G75*
G02*
X114973000Y-86439000I0J75000D01*
G01*
G37*
%TD.AperFunction*%
%TO.P,U3,4*%
%TA.AperFunction,SMDPad,CuDef*%
G36*
G01*
X114973000Y-86939000D02*
X114973000Y-86789000D01*
G75*
G02*
X115048000Y-86714000I75000J0D01*
G01*
X115748000Y-86714000D01*
G75*
G02*
X115823000Y-86789000I0J-75000D01*
G01*
X115823000Y-86939000D01*
G75*
G02*
X115748000Y-87014000I-75000J0D01*
G01*
X115048000Y-87014000D01*
G75*
G02*
X114973000Y-86939000I0J75000D01*
G01*
G37*
%TD.AperFunction*%
%TO.P,U3,5*%
%TA.AperFunction,SMDPad,CuDef*%
G36*
G01*
X114973000Y-87439000D02*
X114973000Y-87289000D01*
G75*
G02*
X115048000Y-87214000I75000J0D01*
G01*
X115748000Y-87214000D01*
G75*
G02*
X115823000Y-87289000I0J-75000D01*
G01*
X115823000Y-87439000D01*
G75*
G02*
X115748000Y-87514000I-75000J0D01*
G01*
X115048000Y-87514000D01*
G75*
G02*
X114973000Y-87439000I0J75000D01*
G01*
G37*
%TD.AperFunction*%
%TO.P,U3,6*%
%TO.N,Net-(U3-Pad6)*%
%TA.AperFunction,SMDPad,CuDef*%
G36*
G01*
X114973000Y-87939000D02*
X114973000Y-87789000D01*
G75*
G02*
X115048000Y-87714000I75000J0D01*
G01*
X115748000Y-87714000D01*
G75*
G02*
X115823000Y-87789000I0J-75000D01*
G01*
X115823000Y-87939000D01*
G75*
G02*
X115748000Y-88014000I-75000J0D01*
G01*
X115048000Y-88014000D01*
G75*
G02*
X114973000Y-87939000I0J75000D01*
G01*
G37*
%TD.AperFunction*%
%TO.P,U3,7*%
%TO.N,Net-(U3-Pad7)*%
%TA.AperFunction,SMDPad,CuDef*%
G36*
G01*
X116173000Y-88989000D02*
X116023000Y-88989000D01*
G75*
G02*
X115948000Y-88914000I0J75000D01*
G01*
X115948000Y-88214000D01*
G75*
G02*
X116023000Y-88139000I75000J0D01*
G01*
X116173000Y-88139000D01*
G75*
G02*
X116248000Y-88214000I0J-75000D01*
G01*
X116248000Y-88914000D01*
G75*
G02*
X116173000Y-88989000I-75000J0D01*
G01*
G37*
%TD.AperFunction*%
%TO.P,U3,8*%
%TO.N,+3V3*%
%TA.AperFunction,SMDPad,CuDef*%
G36*
G01*
X116673000Y-88989000D02*
X116523000Y-88989000D01*
G75*
G02*
X116448000Y-88914000I0J75000D01*
G01*
X116448000Y-88214000D01*
G75*
G02*
X116523000Y-88139000I75000J0D01*
G01*
X116673000Y-88139000D01*
G75*
G02*
X116748000Y-88214000I0J-75000D01*
G01*
X116748000Y-88914000D01*
G75*
G02*
X116673000Y-88989000I-75000J0D01*
G01*
G37*
%TD.AperFunction*%
%TO.P,U3,9*%
%TO.N,GND*%
%TA.AperFunction,SMDPad,CuDef*%
G36*
G01*
X117173000Y-88989000D02*
X117023000Y-88989000D01*
G75*
G02*
X116948000Y-88914000I0J75000D01*
G01*
X116948000Y-88214000D01*
G75*
G02*
X117023000Y-88139000I75000J0D01*
G01*
X117173000Y-88139000D01*
G75*
G02*
X117248000Y-88214000I0J-75000D01*
G01*
X117248000Y-88914000D01*
G75*
G02*
X117173000Y-88989000I-75000J0D01*
G01*
G37*
%TD.AperFunction*%
%TO.P,U3,10*%
%TO.N,Net-(C11-Pad1)*%
%TA.AperFunction,SMDPad,CuDef*%
G36*
G01*
X117673000Y-88989000D02*
X117523000Y-88989000D01*
G75*
G02*
X117448000Y-88914000I0J75000D01*
G01*
X117448000Y-88214000D01*
G75*
G02*
X117523000Y-88139000I75000J0D01*
G01*
X117673000Y-88139000D01*
G75*
G02*
X117748000Y-88214000I0J-75000D01*
G01*
X117748000Y-88914000D01*
G75*
G02*
X117673000Y-88989000I-75000J0D01*
G01*
G37*
%TD.AperFunction*%
%TO.P,U3,11*%
%TO.N,GND*%
%TA.AperFunction,SMDPad,CuDef*%
G36*
G01*
X118173000Y-88989000D02*
X118023000Y-88989000D01*
G75*
G02*
X117948000Y-88914000I0J75000D01*
G01*
X117948000Y-88214000D01*
G75*
G02*
X118023000Y-88139000I75000J0D01*
G01*
X118173000Y-88139000D01*
G75*
G02*
X118248000Y-88214000I0J-75000D01*
G01*
X118248000Y-88914000D01*
G75*
G02*
X118173000Y-88989000I-75000J0D01*
G01*
G37*
%TD.AperFunction*%
%TO.P,U3,12*%
%TO.N,Net-(U3-Pad12)*%
%TA.AperFunction,SMDPad,CuDef*%
G36*
G01*
X118673000Y-88989000D02*
X118523000Y-88989000D01*
G75*
G02*
X118448000Y-88914000I0J75000D01*
G01*
X118448000Y-88214000D01*
G75*
G02*
X118523000Y-88139000I75000J0D01*
G01*
X118673000Y-88139000D01*
G75*
G02*
X118748000Y-88214000I0J-75000D01*
G01*
X118748000Y-88914000D01*
G75*
G02*
X118673000Y-88989000I-75000J0D01*
G01*
G37*
%TD.AperFunction*%
%TO.P,U3,13*%
%TO.N,+3V3*%
%TA.AperFunction,SMDPad,CuDef*%
G36*
G01*
X118873000Y-87939000D02*
X118873000Y-87789000D01*
G75*
G02*
X118948000Y-87714000I75000J0D01*
G01*
X119648000Y-87714000D01*
G75*
G02*
X119723000Y-87789000I0J-75000D01*
G01*
X119723000Y-87939000D01*
G75*
G02*
X119648000Y-88014000I-75000J0D01*
G01*
X118948000Y-88014000D01*
G75*
G02*
X118873000Y-87939000I0J75000D01*
G01*
G37*
%TD.AperFunction*%
%TO.P,U3,14*%
%TO.N,N/C*%
%TA.AperFunction,SMDPad,CuDef*%
G36*
G01*
X118873000Y-87439000D02*
X118873000Y-87289000D01*
G75*
G02*
X118948000Y-87214000I75000J0D01*
G01*
X119648000Y-87214000D01*
G75*
G02*
X119723000Y-87289000I0J-75000D01*
G01*
X119723000Y-87439000D01*
G75*
G02*
X119648000Y-87514000I-75000J0D01*
G01*
X118948000Y-87514000D01*
G75*
G02*
X118873000Y-87439000I0J75000D01*
G01*
G37*
%TD.AperFunction*%
%TO.P,U3,15*%
%TA.AperFunction,SMDPad,CuDef*%
G36*
G01*
X118873000Y-86939000D02*
X118873000Y-86789000D01*
G75*
G02*
X118948000Y-86714000I75000J0D01*
G01*
X119648000Y-86714000D01*
G75*
G02*
X119723000Y-86789000I0J-75000D01*
G01*
X119723000Y-86939000D01*
G75*
G02*
X119648000Y-87014000I-75000J0D01*
G01*
X118948000Y-87014000D01*
G75*
G02*
X118873000Y-86939000I0J75000D01*
G01*
G37*
%TD.AperFunction*%
%TO.P,U3,16*%
%TA.AperFunction,SMDPad,CuDef*%
G36*
G01*
X118873000Y-86439000D02*
X118873000Y-86289000D01*
G75*
G02*
X118948000Y-86214000I75000J0D01*
G01*
X119648000Y-86214000D01*
G75*
G02*
X119723000Y-86289000I0J-75000D01*
G01*
X119723000Y-86439000D01*
G75*
G02*
X119648000Y-86514000I-75000J0D01*
G01*
X118948000Y-86514000D01*
G75*
G02*
X118873000Y-86439000I0J75000D01*
G01*
G37*
%TD.AperFunction*%
%TO.P,U3,17*%
%TA.AperFunction,SMDPad,CuDef*%
G36*
G01*
X118873000Y-85939000D02*
X118873000Y-85789000D01*
G75*
G02*
X118948000Y-85714000I75000J0D01*
G01*
X119648000Y-85714000D01*
G75*
G02*
X119723000Y-85789000I0J-75000D01*
G01*
X119723000Y-85939000D01*
G75*
G02*
X119648000Y-86014000I-75000J0D01*
G01*
X118948000Y-86014000D01*
G75*
G02*
X118873000Y-85939000I0J75000D01*
G01*
G37*
%TD.AperFunction*%
%TO.P,U3,18*%
%TO.N,GND*%
%TA.AperFunction,SMDPad,CuDef*%
G36*
G01*
X118873000Y-85439000D02*
X118873000Y-85289000D01*
G75*
G02*
X118948000Y-85214000I75000J0D01*
G01*
X119648000Y-85214000D01*
G75*
G02*
X119723000Y-85289000I0J-75000D01*
G01*
X119723000Y-85439000D01*
G75*
G02*
X119648000Y-85514000I-75000J0D01*
G01*
X118948000Y-85514000D01*
G75*
G02*
X118873000Y-85439000I0J75000D01*
G01*
G37*
%TD.AperFunction*%
%TO.P,U3,19*%
%TO.N,N/C*%
%TA.AperFunction,SMDPad,CuDef*%
G36*
G01*
X118673000Y-85089000D02*
X118523000Y-85089000D01*
G75*
G02*
X118448000Y-85014000I0J75000D01*
G01*
X118448000Y-84314000D01*
G75*
G02*
X118523000Y-84239000I75000J0D01*
G01*
X118673000Y-84239000D01*
G75*
G02*
X118748000Y-84314000I0J-75000D01*
G01*
X118748000Y-85014000D01*
G75*
G02*
X118673000Y-85089000I-75000J0D01*
G01*
G37*
%TD.AperFunction*%
%TO.P,U3,20*%
%TO.N,Net-(C12-Pad1)*%
%TA.AperFunction,SMDPad,CuDef*%
G36*
G01*
X118173000Y-85089000D02*
X118023000Y-85089000D01*
G75*
G02*
X117948000Y-85014000I0J75000D01*
G01*
X117948000Y-84314000D01*
G75*
G02*
X118023000Y-84239000I75000J0D01*
G01*
X118173000Y-84239000D01*
G75*
G02*
X118248000Y-84314000I0J-75000D01*
G01*
X118248000Y-85014000D01*
G75*
G02*
X118173000Y-85089000I-75000J0D01*
G01*
G37*
%TD.AperFunction*%
%TO.P,U3,21*%
%TO.N,N/C*%
%TA.AperFunction,SMDPad,CuDef*%
G36*
G01*
X117673000Y-85089000D02*
X117523000Y-85089000D01*
G75*
G02*
X117448000Y-85014000I0J75000D01*
G01*
X117448000Y-84314000D01*
G75*
G02*
X117523000Y-84239000I75000J0D01*
G01*
X117673000Y-84239000D01*
G75*
G02*
X117748000Y-84314000I0J-75000D01*
G01*
X117748000Y-85014000D01*
G75*
G02*
X117673000Y-85089000I-75000J0D01*
G01*
G37*
%TD.AperFunction*%
%TO.P,U3,22*%
%TA.AperFunction,SMDPad,CuDef*%
G36*
G01*
X117173000Y-85089000D02*
X117023000Y-85089000D01*
G75*
G02*
X116948000Y-85014000I0J75000D01*
G01*
X116948000Y-84314000D01*
G75*
G02*
X117023000Y-84239000I75000J0D01*
G01*
X117173000Y-84239000D01*
G75*
G02*
X117248000Y-84314000I0J-75000D01*
G01*
X117248000Y-85014000D01*
G75*
G02*
X117173000Y-85089000I-75000J0D01*
G01*
G37*
%TD.AperFunction*%
%TO.P,U3,23*%
%TO.N,I2C1_SCL*%
%TA.AperFunction,SMDPad,CuDef*%
G36*
G01*
X116673000Y-85089000D02*
X116523000Y-85089000D01*
G75*
G02*
X116448000Y-85014000I0J75000D01*
G01*
X116448000Y-84314000D01*
G75*
G02*
X116523000Y-84239000I75000J0D01*
G01*
X116673000Y-84239000D01*
G75*
G02*
X116748000Y-84314000I0J-75000D01*
G01*
X116748000Y-85014000D01*
G75*
G02*
X116673000Y-85089000I-75000J0D01*
G01*
G37*
%TD.AperFunction*%
%TO.P,U3,24*%
%TO.N,I2C1_SDA*%
%TA.AperFunction,SMDPad,CuDef*%
G36*
G01*
X116173000Y-85089000D02*
X116023000Y-85089000D01*
G75*
G02*
X115948000Y-85014000I0J75000D01*
G01*
X115948000Y-84314000D01*
G75*
G02*
X116023000Y-84239000I75000J0D01*
G01*
X116173000Y-84239000D01*
G75*
G02*
X116248000Y-84314000I0J-75000D01*
G01*
X116248000Y-85014000D01*
G75*
G02*
X116173000Y-85089000I-75000J0D01*
G01*
G37*
%TD.AperFunction*%
%TD*%
D28*
%TO.P,U4,1*%
%TO.N,USB_CONN_D-*%
X166944000Y-123274000D03*
%TO.P,U4,2*%
%TO.N,GND*%
X167894000Y-123274000D03*
%TO.P,U4,3*%
%TO.N,USB_CONN_D+*%
X168844000Y-123274000D03*
%TO.P,U4,4*%
%TO.N,USB_D+*%
X168844000Y-121074000D03*
%TO.P,U4,6*%
%TO.N,USB_D-*%
X166944000Y-121074000D03*
%TO.P,U4,5*%
%TO.N,+5V*%
X167894000Y-121074000D03*
%TD*%
%TO.P,U5,1*%
%TO.N,STEP_1-1*%
%TA.AperFunction,SMDPad,CuDef*%
G36*
G01*
X162412000Y-89905000D02*
X162412000Y-89605000D01*
G75*
G02*
X162562000Y-89455000I150000J0D01*
G01*
X164212000Y-89455000D01*
G75*
G02*
X164362000Y-89605000I0J-150000D01*
G01*
X164362000Y-89905000D01*
G75*
G02*
X164212000Y-90055000I-150000J0D01*
G01*
X162562000Y-90055000D01*
G75*
G02*
X162412000Y-89905000I0J150000D01*
G01*
G37*
%TD.AperFunction*%
%TO.P,U5,2*%
%TO.N,STEP_1-2*%
%TA.AperFunction,SMDPad,CuDef*%
G36*
G01*
X162412000Y-91175000D02*
X162412000Y-90875000D01*
G75*
G02*
X162562000Y-90725000I150000J0D01*
G01*
X164212000Y-90725000D01*
G75*
G02*
X164362000Y-90875000I0J-150000D01*
G01*
X164362000Y-91175000D01*
G75*
G02*
X164212000Y-91325000I-150000J0D01*
G01*
X162562000Y-91325000D01*
G75*
G02*
X162412000Y-91175000I0J150000D01*
G01*
G37*
%TD.AperFunction*%
%TO.P,U5,3*%
%TO.N,STEP_1-3*%
%TA.AperFunction,SMDPad,CuDef*%
G36*
G01*
X162412000Y-92445000D02*
X162412000Y-92145000D01*
G75*
G02*
X162562000Y-91995000I150000J0D01*
G01*
X164212000Y-91995000D01*
G75*
G02*
X164362000Y-92145000I0J-150000D01*
G01*
X164362000Y-92445000D01*
G75*
G02*
X164212000Y-92595000I-150000J0D01*
G01*
X162562000Y-92595000D01*
G75*
G02*
X162412000Y-92445000I0J150000D01*
G01*
G37*
%TD.AperFunction*%
%TO.P,U5,4*%
%TO.N,STEP_1-4*%
%TA.AperFunction,SMDPad,CuDef*%
G36*
G01*
X162412000Y-93715000D02*
X162412000Y-93415000D01*
G75*
G02*
X162562000Y-93265000I150000J0D01*
G01*
X164212000Y-93265000D01*
G75*
G02*
X164362000Y-93415000I0J-150000D01*
G01*
X164362000Y-93715000D01*
G75*
G02*
X164212000Y-93865000I-150000J0D01*
G01*
X162562000Y-93865000D01*
G75*
G02*
X162412000Y-93715000I0J150000D01*
G01*
G37*
%TD.AperFunction*%
%TO.P,U5,5*%
%TO.N,Net-(U5-Pad5)*%
%TA.AperFunction,SMDPad,CuDef*%
G36*
G01*
X162412000Y-94985000D02*
X162412000Y-94685000D01*
G75*
G02*
X162562000Y-94535000I150000J0D01*
G01*
X164212000Y-94535000D01*
G75*
G02*
X164362000Y-94685000I0J-150000D01*
G01*
X164362000Y-94985000D01*
G75*
G02*
X164212000Y-95135000I-150000J0D01*
G01*
X162562000Y-95135000D01*
G75*
G02*
X162412000Y-94985000I0J150000D01*
G01*
G37*
%TD.AperFunction*%
%TO.P,U5,6*%
%TO.N,Net-(U5-Pad6)*%
%TA.AperFunction,SMDPad,CuDef*%
G36*
G01*
X162412000Y-96255000D02*
X162412000Y-95955000D01*
G75*
G02*
X162562000Y-95805000I150000J0D01*
G01*
X164212000Y-95805000D01*
G75*
G02*
X164362000Y-95955000I0J-150000D01*
G01*
X164362000Y-96255000D01*
G75*
G02*
X164212000Y-96405000I-150000J0D01*
G01*
X162562000Y-96405000D01*
G75*
G02*
X162412000Y-96255000I0J150000D01*
G01*
G37*
%TD.AperFunction*%
%TO.P,U5,7*%
%TO.N,Net-(U5-Pad7)*%
%TA.AperFunction,SMDPad,CuDef*%
G36*
G01*
X162412000Y-97525000D02*
X162412000Y-97225000D01*
G75*
G02*
X162562000Y-97075000I150000J0D01*
G01*
X164212000Y-97075000D01*
G75*
G02*
X164362000Y-97225000I0J-150000D01*
G01*
X164362000Y-97525000D01*
G75*
G02*
X164212000Y-97675000I-150000J0D01*
G01*
X162562000Y-97675000D01*
G75*
G02*
X162412000Y-97525000I0J150000D01*
G01*
G37*
%TD.AperFunction*%
%TO.P,U5,8*%
%TO.N,GND*%
%TA.AperFunction,SMDPad,CuDef*%
G36*
G01*
X162412000Y-98795000D02*
X162412000Y-98495000D01*
G75*
G02*
X162562000Y-98345000I150000J0D01*
G01*
X164212000Y-98345000D01*
G75*
G02*
X164362000Y-98495000I0J-150000D01*
G01*
X164362000Y-98795000D01*
G75*
G02*
X164212000Y-98945000I-150000J0D01*
G01*
X162562000Y-98945000D01*
G75*
G02*
X162412000Y-98795000I0J150000D01*
G01*
G37*
%TD.AperFunction*%
%TO.P,U5,9*%
%TO.N,Net-(U5-Pad9)*%
%TA.AperFunction,SMDPad,CuDef*%
G36*
G01*
X167362000Y-98795000D02*
X167362000Y-98495000D01*
G75*
G02*
X167512000Y-98345000I150000J0D01*
G01*
X169162000Y-98345000D01*
G75*
G02*
X169312000Y-98495000I0J-150000D01*
G01*
X169312000Y-98795000D01*
G75*
G02*
X169162000Y-98945000I-150000J0D01*
G01*
X167512000Y-98945000D01*
G75*
G02*
X167362000Y-98795000I0J150000D01*
G01*
G37*
%TD.AperFunction*%
%TO.P,U5,10*%
%TO.N,Net-(U5-Pad10)*%
%TA.AperFunction,SMDPad,CuDef*%
G36*
G01*
X167362000Y-97525000D02*
X167362000Y-97225000D01*
G75*
G02*
X167512000Y-97075000I150000J0D01*
G01*
X169162000Y-97075000D01*
G75*
G02*
X169312000Y-97225000I0J-150000D01*
G01*
X169312000Y-97525000D01*
G75*
G02*
X169162000Y-97675000I-150000J0D01*
G01*
X167512000Y-97675000D01*
G75*
G02*
X167362000Y-97525000I0J150000D01*
G01*
G37*
%TD.AperFunction*%
%TO.P,U5,11*%
%TO.N,Net-(U5-Pad11)*%
%TA.AperFunction,SMDPad,CuDef*%
G36*
G01*
X167362000Y-96255000D02*
X167362000Y-95955000D01*
G75*
G02*
X167512000Y-95805000I150000J0D01*
G01*
X169162000Y-95805000D01*
G75*
G02*
X169312000Y-95955000I0J-150000D01*
G01*
X169312000Y-96255000D01*
G75*
G02*
X169162000Y-96405000I-150000J0D01*
G01*
X167512000Y-96405000D01*
G75*
G02*
X167362000Y-96255000I0J150000D01*
G01*
G37*
%TD.AperFunction*%
%TO.P,U5,12*%
%TO.N,Net-(U5-Pad12)*%
%TA.AperFunction,SMDPad,CuDef*%
G36*
G01*
X167362000Y-94985000D02*
X167362000Y-94685000D01*
G75*
G02*
X167512000Y-94535000I150000J0D01*
G01*
X169162000Y-94535000D01*
G75*
G02*
X169312000Y-94685000I0J-150000D01*
G01*
X169312000Y-94985000D01*
G75*
G02*
X169162000Y-95135000I-150000J0D01*
G01*
X167512000Y-95135000D01*
G75*
G02*
X167362000Y-94985000I0J150000D01*
G01*
G37*
%TD.AperFunction*%
%TO.P,U5,13*%
%TO.N,Net-(J5-Pad2)*%
%TA.AperFunction,SMDPad,CuDef*%
G36*
G01*
X167362000Y-93715000D02*
X167362000Y-93415000D01*
G75*
G02*
X167512000Y-93265000I150000J0D01*
G01*
X169162000Y-93265000D01*
G75*
G02*
X169312000Y-93415000I0J-150000D01*
G01*
X169312000Y-93715000D01*
G75*
G02*
X169162000Y-93865000I-150000J0D01*
G01*
X167512000Y-93865000D01*
G75*
G02*
X167362000Y-93715000I0J150000D01*
G01*
G37*
%TD.AperFunction*%
%TO.P,U5,14*%
%TO.N,Net-(J5-Pad3)*%
%TA.AperFunction,SMDPad,CuDef*%
G36*
G01*
X167362000Y-92445000D02*
X167362000Y-92145000D01*
G75*
G02*
X167512000Y-91995000I150000J0D01*
G01*
X169162000Y-91995000D01*
G75*
G02*
X169312000Y-92145000I0J-150000D01*
G01*
X169312000Y-92445000D01*
G75*
G02*
X169162000Y-92595000I-150000J0D01*
G01*
X167512000Y-92595000D01*
G75*
G02*
X167362000Y-92445000I0J150000D01*
G01*
G37*
%TD.AperFunction*%
%TO.P,U5,15*%
%TO.N,Net-(J5-Pad4)*%
%TA.AperFunction,SMDPad,CuDef*%
G36*
G01*
X167362000Y-91175000D02*
X167362000Y-90875000D01*
G75*
G02*
X167512000Y-90725000I150000J0D01*
G01*
X169162000Y-90725000D01*
G75*
G02*
X169312000Y-90875000I0J-150000D01*
G01*
X169312000Y-91175000D01*
G75*
G02*
X169162000Y-91325000I-150000J0D01*
G01*
X167512000Y-91325000D01*
G75*
G02*
X167362000Y-91175000I0J150000D01*
G01*
G37*
%TD.AperFunction*%
%TO.P,U5,16*%
%TO.N,Net-(J5-Pad5)*%
%TA.AperFunction,SMDPad,CuDef*%
G36*
G01*
X167362000Y-89905000D02*
X167362000Y-89605000D01*
G75*
G02*
X167512000Y-89455000I150000J0D01*
G01*
X169162000Y-89455000D01*
G75*
G02*
X169312000Y-89605000I0J-150000D01*
G01*
X169312000Y-89905000D01*
G75*
G02*
X169162000Y-90055000I-150000J0D01*
G01*
X167512000Y-90055000D01*
G75*
G02*
X167362000Y-89905000I0J150000D01*
G01*
G37*
%TD.AperFunction*%
%TD*%
%TO.P,U6,16*%
%TO.N,Net-(J8-Pad5)*%
%TA.AperFunction,SMDPad,CuDef*%
G36*
G01*
X167362000Y-101635000D02*
X167362000Y-101335000D01*
G75*
G02*
X167512000Y-101185000I150000J0D01*
G01*
X169162000Y-101185000D01*
G75*
G02*
X169312000Y-101335000I0J-150000D01*
G01*
X169312000Y-101635000D01*
G75*
G02*
X169162000Y-101785000I-150000J0D01*
G01*
X167512000Y-101785000D01*
G75*
G02*
X167362000Y-101635000I0J150000D01*
G01*
G37*
%TD.AperFunction*%
%TO.P,U6,15*%
%TO.N,Net-(J8-Pad4)*%
%TA.AperFunction,SMDPad,CuDef*%
G36*
G01*
X167362000Y-102905000D02*
X167362000Y-102605000D01*
G75*
G02*
X167512000Y-102455000I150000J0D01*
G01*
X169162000Y-102455000D01*
G75*
G02*
X169312000Y-102605000I0J-150000D01*
G01*
X169312000Y-102905000D01*
G75*
G02*
X169162000Y-103055000I-150000J0D01*
G01*
X167512000Y-103055000D01*
G75*
G02*
X167362000Y-102905000I0J150000D01*
G01*
G37*
%TD.AperFunction*%
%TO.P,U6,14*%
%TO.N,Net-(J8-Pad3)*%
%TA.AperFunction,SMDPad,CuDef*%
G36*
G01*
X167362000Y-104175000D02*
X167362000Y-103875000D01*
G75*
G02*
X167512000Y-103725000I150000J0D01*
G01*
X169162000Y-103725000D01*
G75*
G02*
X169312000Y-103875000I0J-150000D01*
G01*
X169312000Y-104175000D01*
G75*
G02*
X169162000Y-104325000I-150000J0D01*
G01*
X167512000Y-104325000D01*
G75*
G02*
X167362000Y-104175000I0J150000D01*
G01*
G37*
%TD.AperFunction*%
%TO.P,U6,13*%
%TO.N,Net-(J8-Pad2)*%
%TA.AperFunction,SMDPad,CuDef*%
G36*
G01*
X167362000Y-105445000D02*
X167362000Y-105145000D01*
G75*
G02*
X167512000Y-104995000I150000J0D01*
G01*
X169162000Y-104995000D01*
G75*
G02*
X169312000Y-105145000I0J-150000D01*
G01*
X169312000Y-105445000D01*
G75*
G02*
X169162000Y-105595000I-150000J0D01*
G01*
X167512000Y-105595000D01*
G75*
G02*
X167362000Y-105445000I0J150000D01*
G01*
G37*
%TD.AperFunction*%
%TO.P,U6,12*%
%TO.N,Net-(U6-Pad12)*%
%TA.AperFunction,SMDPad,CuDef*%
G36*
G01*
X167362000Y-106715000D02*
X167362000Y-106415000D01*
G75*
G02*
X167512000Y-106265000I150000J0D01*
G01*
X169162000Y-106265000D01*
G75*
G02*
X169312000Y-106415000I0J-150000D01*
G01*
X169312000Y-106715000D01*
G75*
G02*
X169162000Y-106865000I-150000J0D01*
G01*
X167512000Y-106865000D01*
G75*
G02*
X167362000Y-106715000I0J150000D01*
G01*
G37*
%TD.AperFunction*%
%TO.P,U6,11*%
%TO.N,Net-(U6-Pad11)*%
%TA.AperFunction,SMDPad,CuDef*%
G36*
G01*
X167362000Y-107985000D02*
X167362000Y-107685000D01*
G75*
G02*
X167512000Y-107535000I150000J0D01*
G01*
X169162000Y-107535000D01*
G75*
G02*
X169312000Y-107685000I0J-150000D01*
G01*
X169312000Y-107985000D01*
G75*
G02*
X169162000Y-108135000I-150000J0D01*
G01*
X167512000Y-108135000D01*
G75*
G02*
X167362000Y-107985000I0J150000D01*
G01*
G37*
%TD.AperFunction*%
%TO.P,U6,10*%
%TO.N,Net-(U6-Pad10)*%
%TA.AperFunction,SMDPad,CuDef*%
G36*
G01*
X167362000Y-109255000D02*
X167362000Y-108955000D01*
G75*
G02*
X167512000Y-108805000I150000J0D01*
G01*
X169162000Y-108805000D01*
G75*
G02*
X169312000Y-108955000I0J-150000D01*
G01*
X169312000Y-109255000D01*
G75*
G02*
X169162000Y-109405000I-150000J0D01*
G01*
X167512000Y-109405000D01*
G75*
G02*
X167362000Y-109255000I0J150000D01*
G01*
G37*
%TD.AperFunction*%
%TO.P,U6,9*%
%TO.N,Net-(U6-Pad9)*%
%TA.AperFunction,SMDPad,CuDef*%
G36*
G01*
X167362000Y-110525000D02*
X167362000Y-110225000D01*
G75*
G02*
X167512000Y-110075000I150000J0D01*
G01*
X169162000Y-110075000D01*
G75*
G02*
X169312000Y-110225000I0J-150000D01*
G01*
X169312000Y-110525000D01*
G75*
G02*
X169162000Y-110675000I-150000J0D01*
G01*
X167512000Y-110675000D01*
G75*
G02*
X167362000Y-110525000I0J150000D01*
G01*
G37*
%TD.AperFunction*%
%TO.P,U6,8*%
%TO.N,GND*%
%TA.AperFunction,SMDPad,CuDef*%
G36*
G01*
X162412000Y-110525000D02*
X162412000Y-110225000D01*
G75*
G02*
X162562000Y-110075000I150000J0D01*
G01*
X164212000Y-110075000D01*
G75*
G02*
X164362000Y-110225000I0J-150000D01*
G01*
X164362000Y-110525000D01*
G75*
G02*
X164212000Y-110675000I-150000J0D01*
G01*
X162562000Y-110675000D01*
G75*
G02*
X162412000Y-110525000I0J150000D01*
G01*
G37*
%TD.AperFunction*%
%TO.P,U6,7*%
%TO.N,Net-(U6-Pad7)*%
%TA.AperFunction,SMDPad,CuDef*%
G36*
G01*
X162412000Y-109255000D02*
X162412000Y-108955000D01*
G75*
G02*
X162562000Y-108805000I150000J0D01*
G01*
X164212000Y-108805000D01*
G75*
G02*
X164362000Y-108955000I0J-150000D01*
G01*
X164362000Y-109255000D01*
G75*
G02*
X164212000Y-109405000I-150000J0D01*
G01*
X162562000Y-109405000D01*
G75*
G02*
X162412000Y-109255000I0J150000D01*
G01*
G37*
%TD.AperFunction*%
%TO.P,U6,6*%
%TO.N,Net-(U6-Pad6)*%
%TA.AperFunction,SMDPad,CuDef*%
G36*
G01*
X162412000Y-107985000D02*
X162412000Y-107685000D01*
G75*
G02*
X162562000Y-107535000I150000J0D01*
G01*
X164212000Y-107535000D01*
G75*
G02*
X164362000Y-107685000I0J-150000D01*
G01*
X164362000Y-107985000D01*
G75*
G02*
X164212000Y-108135000I-150000J0D01*
G01*
X162562000Y-108135000D01*
G75*
G02*
X162412000Y-107985000I0J150000D01*
G01*
G37*
%TD.AperFunction*%
%TO.P,U6,5*%
%TO.N,Net-(U6-Pad5)*%
%TA.AperFunction,SMDPad,CuDef*%
G36*
G01*
X162412000Y-106715000D02*
X162412000Y-106415000D01*
G75*
G02*
X162562000Y-106265000I150000J0D01*
G01*
X164212000Y-106265000D01*
G75*
G02*
X164362000Y-106415000I0J-150000D01*
G01*
X164362000Y-106715000D01*
G75*
G02*
X164212000Y-106865000I-150000J0D01*
G01*
X162562000Y-106865000D01*
G75*
G02*
X162412000Y-106715000I0J150000D01*
G01*
G37*
%TD.AperFunction*%
%TO.P,U6,4*%
%TO.N,STEP_2-4*%
%TA.AperFunction,SMDPad,CuDef*%
G36*
G01*
X162412000Y-105445000D02*
X162412000Y-105145000D01*
G75*
G02*
X162562000Y-104995000I150000J0D01*
G01*
X164212000Y-104995000D01*
G75*
G02*
X164362000Y-105145000I0J-150000D01*
G01*
X164362000Y-105445000D01*
G75*
G02*
X164212000Y-105595000I-150000J0D01*
G01*
X162562000Y-105595000D01*
G75*
G02*
X162412000Y-105445000I0J150000D01*
G01*
G37*
%TD.AperFunction*%
%TO.P,U6,3*%
%TO.N,STEP_2-3*%
%TA.AperFunction,SMDPad,CuDef*%
G36*
G01*
X162412000Y-104175000D02*
X162412000Y-103875000D01*
G75*
G02*
X162562000Y-103725000I150000J0D01*
G01*
X164212000Y-103725000D01*
G75*
G02*
X164362000Y-103875000I0J-150000D01*
G01*
X164362000Y-104175000D01*
G75*
G02*
X164212000Y-104325000I-150000J0D01*
G01*
X162562000Y-104325000D01*
G75*
G02*
X162412000Y-104175000I0J150000D01*
G01*
G37*
%TD.AperFunction*%
%TO.P,U6,2*%
%TO.N,STEP_2-2*%
%TA.AperFunction,SMDPad,CuDef*%
G36*
G01*
X162412000Y-102905000D02*
X162412000Y-102605000D01*
G75*
G02*
X162562000Y-102455000I150000J0D01*
G01*
X164212000Y-102455000D01*
G75*
G02*
X164362000Y-102605000I0J-150000D01*
G01*
X164362000Y-102905000D01*
G75*
G02*
X164212000Y-103055000I-150000J0D01*
G01*
X162562000Y-103055000D01*
G75*
G02*
X162412000Y-102905000I0J150000D01*
G01*
G37*
%TD.AperFunction*%
%TO.P,U6,1*%
%TO.N,STEP_2-1*%
%TA.AperFunction,SMDPad,CuDef*%
G36*
G01*
X162412000Y-101635000D02*
X162412000Y-101335000D01*
G75*
G02*
X162562000Y-101185000I150000J0D01*
G01*
X164212000Y-101185000D01*
G75*
G02*
X164362000Y-101335000I0J-150000D01*
G01*
X164362000Y-101635000D01*
G75*
G02*
X164212000Y-101785000I-150000J0D01*
G01*
X162562000Y-101785000D01*
G75*
G02*
X162412000Y-101635000I0J150000D01*
G01*
G37*
%TD.AperFunction*%
%TD*%
D29*
%TO.N,+3V3*%
X135450000Y-110400000D03*
X135382000Y-90424000D03*
X155956000Y-90424000D03*
X147066000Y-90678000D03*
X131572000Y-91694000D03*
X121158000Y-87884000D03*
X115570000Y-90170000D03*
X146558000Y-107188000D03*
X140208000Y-89662000D03*
X138600000Y-76390000D03*
X178120000Y-71070000D03*
X105960000Y-120370000D03*
X134060000Y-120720000D03*
X132860000Y-122260000D03*
X139760000Y-118790000D03*
X138430000Y-120390000D03*
X109710000Y-105110000D03*
X111330000Y-105110000D03*
X104720000Y-119280000D03*
X131310000Y-104520000D03*
%TO.N,GND*%
X120630000Y-91260000D03*
X113900000Y-85390000D03*
X123760000Y-108440000D03*
X134112000Y-75438000D03*
X161720000Y-110390000D03*
X161720000Y-98670000D03*
X130048000Y-91694000D03*
X116332000Y-90932000D03*
X112450000Y-116590000D03*
X150160000Y-107320000D03*
X135200000Y-106070000D03*
X173020000Y-71070000D03*
X175580000Y-71080000D03*
X176800000Y-71110000D03*
X125240000Y-101580000D03*
X129300000Y-101380000D03*
X143600000Y-120420000D03*
X119960000Y-114770000D03*
X115330000Y-106580000D03*
X119860000Y-121440000D03*
X118250000Y-120080000D03*
X121480000Y-120080000D03*
X108230000Y-123730000D03*
X129660000Y-119040000D03*
X124870000Y-99320000D03*
X127480000Y-93840000D03*
X118610000Y-113780000D03*
X109510000Y-122630000D03*
X106930000Y-122600000D03*
X117060000Y-107890000D03*
X126530000Y-121540000D03*
X125190000Y-120430000D03*
X128520000Y-120620000D03*
X136750000Y-92820000D03*
X151480000Y-95330000D03*
X150180000Y-93710000D03*
X147670000Y-86600000D03*
X123350000Y-82630000D03*
X122190000Y-81400000D03*
%TO.N,+5V*%
X164200000Y-118000000D03*
X170600000Y-115600000D03*
%TO.N,NRST*%
X173020000Y-85020000D03*
X172970000Y-80410000D03*
%TO.N,I2C1_SCL*%
X136652000Y-84836000D03*
%TO.N,I2C1_SDA*%
X136652000Y-86360000D03*
%TO.N,PA4*%
X137360000Y-109570000D03*
%TO.N,PA5*%
X138176000Y-110744000D03*
%TO.N,PA6*%
X138938000Y-111506000D03*
%TO.N,PA7*%
X139700000Y-112268000D03*
%TO.N,PC4*%
X140462000Y-113030000D03*
%TO.N,PC5*%
X141224000Y-112268000D03*
%TO.N,PB0*%
X141986000Y-111506000D03*
%TO.N,PB1*%
X142748000Y-110744000D03*
%TO.N,PB2*%
X142000000Y-108458000D03*
%TO.N,UART3_RX*%
X155020000Y-115070000D03*
%TO.N,UART3_TX*%
X151530000Y-115220000D03*
%TO.N,BOOT0*%
X137668000Y-89408000D03*
X137663347Y-91698653D03*
%TO.N,STEP_2-4*%
X152600000Y-105400000D03*
X156000000Y-105400000D03*
%TO.N,STEP_2-3*%
X151800000Y-104200000D03*
X154600000Y-104200000D03*
%TO.N,STEP_2-2*%
X150400000Y-102600000D03*
X153200000Y-102600000D03*
%TO.N,STEP_2-1*%
X150200000Y-101400000D03*
X152800000Y-101400000D03*
%TO.N,STEP_1-4*%
X149000000Y-101200000D03*
X155200000Y-100600000D03*
%TO.N,STEP_1-3*%
X148200000Y-99975000D03*
X159287347Y-95487347D03*
%TO.N,STEP_1-2*%
X149200000Y-99475000D03*
X158215703Y-95533686D03*
%TO.N,STEP_1-1*%
X150200000Y-98962712D03*
X157708694Y-94425980D03*
%TO.N,PC15*%
X129320000Y-97549990D03*
%TO.N,PC14*%
X130272034Y-97025000D03*
%TO.N,PC13*%
X131180000Y-96400000D03*
%TO.N,PC8*%
X132450000Y-100120000D03*
%TD*%
D30*
%TO.N,+3V3*%
X146302000Y-105675000D02*
X146545000Y-105918000D01*
X143750000Y-105675000D02*
X146302000Y-105675000D01*
X147270000Y-94655000D02*
X145675000Y-96250000D01*
X147270000Y-93730000D02*
X147270000Y-94655000D01*
D31*
X135395000Y-93570010D02*
X136149990Y-94325000D01*
X135395000Y-91948000D02*
X135395000Y-93570010D01*
D32*
X135395000Y-91948000D02*
X135395000Y-91935000D01*
X135395000Y-90411000D02*
X135382000Y-90424000D01*
X135395000Y-88646000D02*
X135395000Y-90411000D01*
X135382000Y-91935000D02*
X135395000Y-91948000D01*
X135382000Y-90424000D02*
X135382000Y-91935000D01*
X135382000Y-90424000D02*
X137158000Y-90424000D01*
X133047000Y-120396000D02*
X132793000Y-120650000D01*
D30*
X147066000Y-93526000D02*
X147270000Y-93730000D01*
X147066000Y-90678000D02*
X147066000Y-93526000D01*
X155930500Y-90449500D02*
X155956000Y-90424000D01*
X153924000Y-90449500D02*
X155930500Y-90449500D01*
X131585000Y-93218000D02*
X131585000Y-94996000D01*
X133071000Y-94996000D02*
X134325000Y-96250000D01*
X131585000Y-94996000D02*
X133071000Y-94996000D01*
X131572000Y-93205000D02*
X131585000Y-93218000D01*
X131572000Y-91694000D02*
X131572000Y-93205000D01*
X121138000Y-87864000D02*
X121158000Y-87884000D01*
X119298000Y-87864000D02*
X121138000Y-87864000D01*
X116598000Y-89142000D02*
X115570000Y-90170000D01*
X116598000Y-88564000D02*
X116598000Y-89142000D01*
X146545000Y-107175000D02*
X146558000Y-107188000D01*
X146545000Y-105918000D02*
X146545000Y-107175000D01*
X140206000Y-89664000D02*
X140208000Y-89662000D01*
X140206000Y-90424000D02*
X140206000Y-89664000D01*
D32*
X138648000Y-76342000D02*
X138600000Y-76390000D01*
X138660000Y-76330000D02*
X138600000Y-76390000D01*
X138660000Y-73880000D02*
X138660000Y-76330000D01*
X137200010Y-107454990D02*
X135420000Y-109235000D01*
X137200010Y-106559990D02*
X137200010Y-107454990D01*
X137250000Y-106510000D02*
X137200010Y-106559990D01*
X137250000Y-105675000D02*
X137250000Y-106510000D01*
X135420000Y-109235000D02*
X135155000Y-109235000D01*
X178120000Y-72950000D02*
X178100000Y-72970000D01*
D31*
X178120000Y-71070000D02*
X178120000Y-72950000D01*
D33*
X105980000Y-120350000D02*
X105960000Y-120370000D01*
X105980000Y-119255000D02*
X105980000Y-120350000D01*
X132793000Y-122193000D02*
X132860000Y-122260000D01*
X132793000Y-120650000D02*
X132793000Y-122193000D01*
X133990000Y-120650000D02*
X134060000Y-120720000D01*
X132793000Y-120650000D02*
X133990000Y-120650000D01*
X139743000Y-120390000D02*
X139749000Y-120396000D01*
X138430000Y-120390000D02*
X139743000Y-120390000D01*
X139760000Y-120385000D02*
X139749000Y-120396000D01*
X139760000Y-118790000D02*
X139760000Y-120385000D01*
X111330000Y-106280000D02*
X110570000Y-107040000D01*
X111330000Y-105110000D02*
X111330000Y-106280000D01*
X135420000Y-110370000D02*
X135450000Y-110400000D01*
X135420000Y-109235000D02*
X135420000Y-110370000D01*
X104745000Y-119255000D02*
X104720000Y-119280000D01*
X105980000Y-119255000D02*
X104745000Y-119255000D01*
X109710000Y-106180000D02*
X110570000Y-107040000D01*
X109710000Y-105110000D02*
X109710000Y-106180000D01*
D32*
X131310000Y-104520000D02*
X130290000Y-104520000D01*
D30*
%TO.N,GND*%
X131868980Y-101374000D02*
X131826000Y-101374000D01*
X132244980Y-101750000D02*
X131868980Y-101374000D01*
X134325000Y-101750000D02*
X132244980Y-101750000D01*
D31*
X119585000Y-120396000D02*
X119888000Y-120093000D01*
X129652000Y-120459000D02*
X129843000Y-120650000D01*
D32*
X117073010Y-88588990D02*
X117098000Y-88564000D01*
X117073010Y-89079692D02*
X117073010Y-88588990D01*
D30*
X134148000Y-75402000D02*
X134112000Y-75438000D01*
X148844000Y-93706000D02*
X148820000Y-93730000D01*
X163226000Y-98806000D02*
X163387000Y-98645000D01*
X133845000Y-88646000D02*
X133845000Y-91948000D01*
X130035000Y-91707000D02*
X130048000Y-91694000D01*
X130035000Y-93218000D02*
X130035000Y-91707000D01*
X130035000Y-94996000D02*
X130035000Y-93218000D01*
X130302000Y-101374000D02*
X131826000Y-101374000D01*
X118098000Y-88564000D02*
X118098000Y-89891000D01*
X117098000Y-90166000D02*
X116332000Y-90932000D01*
X117098000Y-88564000D02*
X117098000Y-90166000D01*
X133845000Y-88646000D02*
X131572000Y-88646000D01*
X130048000Y-90170000D02*
X130048000Y-91694000D01*
X131572000Y-88646000D02*
X130048000Y-90170000D01*
D32*
X148758000Y-105918000D02*
X150160000Y-107320000D01*
X148095000Y-105918000D02*
X148758000Y-105918000D01*
X148790000Y-108690000D02*
X150160000Y-107320000D01*
X148225000Y-108690000D02*
X148790000Y-108690000D01*
X169429001Y-122418999D02*
X169950000Y-122939998D01*
X168258999Y-122418999D02*
X169429001Y-122418999D01*
X167894000Y-122783998D02*
X168258999Y-122418999D01*
X167894000Y-123274000D02*
X167894000Y-122783998D01*
X169450000Y-129212500D02*
X169450000Y-130137500D01*
X169950000Y-128712500D02*
X169450000Y-129212500D01*
X169950000Y-122939998D02*
X169950000Y-128712500D01*
X169210001Y-131187501D02*
X159577501Y-131187501D01*
X169450000Y-130947502D02*
X169210001Y-131187501D01*
X159577501Y-131187501D02*
X158510000Y-130120000D01*
X169450000Y-130137500D02*
X169450000Y-130947502D01*
X134160000Y-75390000D02*
X134112000Y-75438000D01*
D31*
X134160000Y-73880000D02*
X134160000Y-75390000D01*
D32*
X135200000Y-107465000D02*
X135420000Y-107685000D01*
X135200000Y-106070000D02*
X135200000Y-107465000D01*
X135895000Y-107685000D02*
X135420000Y-107685000D01*
X136750000Y-106830000D02*
X135895000Y-107685000D01*
X136750000Y-105675000D02*
X136750000Y-106830000D01*
D31*
X173020000Y-71070000D02*
X173020000Y-72970000D01*
D32*
X175580000Y-72950000D02*
X175560000Y-72970000D01*
D31*
X175580000Y-71080000D02*
X175580000Y-72950000D01*
D32*
X176800000Y-72940000D02*
X176830000Y-72970000D01*
D31*
X176800000Y-71110000D02*
X176800000Y-72940000D01*
D32*
X125260000Y-101600000D02*
X125240000Y-101580000D01*
X126520000Y-101600000D02*
X125260000Y-101600000D01*
X126150000Y-101230000D02*
X126520000Y-101600000D01*
X126150000Y-99398000D02*
X126150000Y-101230000D01*
X127480000Y-96828000D02*
X127850000Y-97198000D01*
X127480000Y-94742000D02*
X127480000Y-96828000D01*
X127734000Y-94996000D02*
X127480000Y-94742000D01*
X130035000Y-94996000D02*
X127734000Y-94996000D01*
D31*
X161745000Y-98645000D02*
X161720000Y-98670000D01*
X163387000Y-98645000D02*
X161745000Y-98645000D01*
X161735000Y-110375000D02*
X161720000Y-110390000D01*
X163387000Y-110375000D02*
X161735000Y-110375000D01*
D32*
X122106000Y-85364000D02*
X122125000Y-85345000D01*
X119298000Y-85364000D02*
X122106000Y-85364000D01*
X122125000Y-82580000D02*
X122125000Y-85345000D01*
D30*
X118098000Y-89891000D02*
X119393000Y-91186000D01*
D32*
X129306000Y-101374000D02*
X129300000Y-101380000D01*
D31*
X130302000Y-101374000D02*
X129306000Y-101374000D01*
D33*
X126072000Y-99320000D02*
X126150000Y-99398000D01*
X124870000Y-99320000D02*
X126072000Y-99320000D01*
X127480000Y-93840000D02*
X127480000Y-94742000D01*
X123778000Y-108458000D02*
X123760000Y-108440000D01*
X124651000Y-108458000D02*
X123778000Y-108458000D01*
X119950000Y-113780000D02*
X119954000Y-113776000D01*
X118610000Y-113780000D02*
X119950000Y-113780000D01*
X119954000Y-114764000D02*
X119960000Y-114770000D01*
X119954000Y-113776000D02*
X119954000Y-114764000D01*
X112454000Y-116586000D02*
X112450000Y-116590000D01*
X113708000Y-116586000D02*
X112454000Y-116586000D01*
X108230000Y-122595000D02*
X108230000Y-123730000D01*
X109475000Y-122595000D02*
X109510000Y-122630000D01*
X108230000Y-122595000D02*
X109475000Y-122595000D01*
X106935000Y-122595000D02*
X106930000Y-122600000D01*
X108230000Y-122595000D02*
X106935000Y-122595000D01*
X118263000Y-120093000D02*
X118250000Y-120080000D01*
X119888000Y-120093000D02*
X118263000Y-120093000D01*
X119888000Y-121412000D02*
X119860000Y-121440000D01*
X119888000Y-120093000D02*
X119888000Y-121412000D01*
X121467000Y-120093000D02*
X121480000Y-120080000D01*
X119888000Y-120093000D02*
X121467000Y-120093000D01*
X129813000Y-120680000D02*
X129843000Y-120650000D01*
X129660000Y-120467000D02*
X129843000Y-120650000D01*
X129660000Y-119040000D02*
X129660000Y-120467000D01*
X142723000Y-120420000D02*
X142699000Y-120396000D01*
X143600000Y-120420000D02*
X142723000Y-120420000D01*
X115330000Y-107830000D02*
X115320000Y-107840000D01*
X115330000Y-106580000D02*
X115330000Y-107830000D01*
X115370000Y-107890000D02*
X115320000Y-107840000D01*
X117060000Y-107890000D02*
X115370000Y-107890000D01*
X126505000Y-120430000D02*
X126510000Y-120435000D01*
X125190000Y-120430000D02*
X126505000Y-120430000D01*
X126510000Y-121520000D02*
X126530000Y-121540000D01*
X126510000Y-120435000D02*
X126510000Y-121520000D01*
X128550000Y-120650000D02*
X128520000Y-120620000D01*
X129843000Y-120650000D02*
X128550000Y-120650000D01*
D32*
X136750000Y-94325000D02*
X136750000Y-92820000D01*
D33*
X148767000Y-86600000D02*
X148781000Y-86614000D01*
X147670000Y-86600000D02*
X148767000Y-86600000D01*
X150160000Y-93730000D02*
X150180000Y-93710000D01*
X148820000Y-93730000D02*
X150160000Y-93730000D01*
X151470000Y-95340000D02*
X151480000Y-95330000D01*
X150295000Y-95340000D02*
X151470000Y-95340000D01*
D32*
X113926000Y-85364000D02*
X113900000Y-85390000D01*
X115398000Y-85364000D02*
X113926000Y-85364000D01*
X119467000Y-91260000D02*
X119393000Y-91186000D01*
X120630000Y-91260000D02*
X119467000Y-91260000D01*
X122190000Y-82515000D02*
X122125000Y-82580000D01*
X122190000Y-81400000D02*
X122190000Y-82515000D01*
X122175000Y-82630000D02*
X122125000Y-82580000D01*
X123350000Y-82630000D02*
X122175000Y-82630000D01*
%TO.N,Net-(C2-Pad1)*%
X145424298Y-108690000D02*
X146675000Y-108690000D01*
X143250000Y-106515702D02*
X145424298Y-108690000D01*
X143250000Y-105675000D02*
X143250000Y-106515702D01*
%TO.N,Net-(C4-Pad1)*%
X147925702Y-95340000D02*
X148745000Y-95340000D01*
X146515702Y-96750000D02*
X147925702Y-95340000D01*
X145675000Y-96750000D02*
X146515702Y-96750000D01*
D33*
%TO.N,BUCK_IN*%
X119331000Y-116586000D02*
X119888000Y-117143000D01*
X115908000Y-116586000D02*
X119331000Y-116586000D01*
X124132000Y-117143000D02*
X124140000Y-117135000D01*
X119888000Y-117143000D02*
X124132000Y-117143000D01*
X126982500Y-117135000D02*
X126987500Y-117130000D01*
X124140000Y-117135000D02*
X126982500Y-117135000D01*
D32*
%TO.N,Net-(C11-Pad1)*%
X117598000Y-90941000D02*
X117843000Y-91186000D01*
X117598000Y-88564000D02*
X117598000Y-90941000D01*
%TO.N,Net-(C12-Pad1)*%
X118098000Y-84173298D02*
X119691298Y-82580000D01*
X118098000Y-84664000D02*
X118098000Y-84173298D01*
X119691298Y-82580000D02*
X120575000Y-82580000D01*
D30*
%TO.N,BUCK_BST*%
X114488000Y-113030000D02*
X114300000Y-113030000D01*
D31*
X113708000Y-113622000D02*
X113708000Y-115636000D01*
X114300000Y-113030000D02*
X113708000Y-113622000D01*
D30*
%TO.N,BUCK_SW*%
X115128000Y-113030000D02*
X115316000Y-113030000D01*
D31*
X115908000Y-113622000D02*
X115908000Y-115636000D01*
X115316000Y-113030000D02*
X115908000Y-113622000D01*
D30*
X115316000Y-112842000D02*
X115128000Y-113030000D01*
D33*
X115320000Y-112998000D02*
X115288000Y-113030000D01*
X115320000Y-111140000D02*
X115320000Y-112998000D01*
X115320000Y-111140000D02*
X110570000Y-111140000D01*
D32*
%TO.N,HSE_IN*%
X126520000Y-96828000D02*
X126150000Y-97198000D01*
X126520000Y-94742000D02*
X126520000Y-96828000D01*
X134300010Y-98274990D02*
X134325000Y-98250000D01*
X126276990Y-98274990D02*
X134300010Y-98274990D01*
X126150000Y-98148000D02*
X126276990Y-98274990D01*
X126150000Y-97198000D02*
X126150000Y-98148000D01*
D30*
%TO.N,+3.3VA*%
X131910000Y-102250000D02*
X131826000Y-102334000D01*
X134325000Y-102250000D02*
X131910000Y-102250000D01*
D32*
X130302000Y-102334000D02*
X131826000Y-102334000D01*
X130302000Y-103538000D02*
X130290000Y-103550000D01*
X130302000Y-102334000D02*
X130302000Y-103538000D01*
%TO.N,Net-(C18-Pad1)*%
X127850000Y-101230000D02*
X127480000Y-101600000D01*
X127850000Y-99398000D02*
X127850000Y-101230000D01*
X129114000Y-99398000D02*
X130046000Y-100330000D01*
X127850000Y-99398000D02*
X129114000Y-99398000D01*
D30*
%TO.N,LED_STATUS*%
X132105500Y-108712000D02*
X131851500Y-108458000D01*
X134112000Y-108712000D02*
X132105500Y-108712000D01*
X134366000Y-108458000D02*
X134112000Y-108712000D01*
X134366000Y-103791000D02*
X134366000Y-108458000D01*
X134325000Y-103750000D02*
X134366000Y-103791000D01*
D31*
%TO.N,Net-(D1-Pad1)*%
X126301000Y-108458000D02*
X130276500Y-108458000D01*
D33*
%TO.N,Net-(D2-Pad1)*%
X129112500Y-117130000D02*
X132300000Y-117130000D01*
X125758500Y-113776000D02*
X129112500Y-117130000D01*
X121854000Y-113776000D02*
X125758500Y-113776000D01*
D32*
%TO.N,+5V*%
X166105999Y-122671999D02*
X166848997Y-121929001D01*
X162817000Y-119383000D02*
X164200000Y-118000000D01*
X162817000Y-119383000D02*
X166105999Y-122671999D01*
X166848000Y-130135500D02*
X166850000Y-130137500D01*
X166848000Y-125882500D02*
X166848000Y-130135500D01*
X165354000Y-124388500D02*
X166848000Y-125882500D01*
X165354000Y-123423998D02*
X165354000Y-124388500D01*
X166105999Y-122671999D02*
X165354000Y-123423998D01*
X184880000Y-115600000D02*
X185110000Y-115830000D01*
X170600000Y-115600000D02*
X184880000Y-115600000D01*
X185110000Y-115830000D02*
X186860000Y-115830000D01*
X186860000Y-115830000D02*
X188380000Y-114310000D01*
X188380000Y-99930000D02*
X185120000Y-96670000D01*
X188380000Y-114310000D02*
X188380000Y-99930000D01*
X166848997Y-121929001D02*
X167499001Y-121929001D01*
X167894000Y-121534002D02*
X167894000Y-121074000D01*
X167499001Y-121929001D02*
X167894000Y-121534002D01*
X160564000Y-117130000D02*
X162817000Y-119383000D01*
X135600000Y-117130000D02*
X160564000Y-117130000D01*
%TO.N,Net-(D4-Pad1)*%
X153924000Y-87376000D02*
X153924000Y-88874500D01*
X153162000Y-86614000D02*
X153924000Y-87376000D01*
X150431000Y-86614000D02*
X153162000Y-86614000D01*
D34*
%TO.N,Net-(F1-Pad1)*%
X120950000Y-111730000D02*
X120904000Y-111776000D01*
X120950000Y-109840000D02*
X120950000Y-111730000D01*
%TO.N,+12V*%
X94874000Y-88646000D02*
X94860000Y-88660000D01*
X120142000Y-98298000D02*
X110490000Y-88646000D01*
X95814000Y-88646000D02*
X95760000Y-88700000D01*
X110490000Y-88646000D02*
X95814000Y-88646000D01*
X120142000Y-98298000D02*
X120168000Y-98298000D01*
X120950000Y-99080000D02*
X120950000Y-107040000D01*
X120168000Y-98298000D02*
X120950000Y-99080000D01*
D35*
%TO.N,USB_CONN_D-*%
X166944000Y-124069001D02*
X167661844Y-124786845D01*
X166944000Y-123274000D02*
X166944000Y-124069001D01*
X167661844Y-124786845D02*
X167661844Y-128149836D01*
D32*
X167670590Y-128540590D02*
X167500000Y-128711180D01*
X167500000Y-128711180D02*
X167500000Y-130137500D01*
X167670590Y-128150590D02*
X167670590Y-128540590D01*
X167669836Y-128149836D02*
X167670590Y-128150590D01*
X167661844Y-128149836D02*
X167669836Y-128149836D01*
D35*
%TO.N,USB_CONN_D+*%
X168844000Y-124069001D02*
X168126156Y-124786845D01*
X168844000Y-123274000D02*
X168844000Y-124069001D01*
X168126156Y-124786845D02*
X168126156Y-128342164D01*
D32*
X168150000Y-128366008D02*
X168126156Y-128342164D01*
X168150000Y-130137500D02*
X168150000Y-128366008D01*
D30*
%TO.N,SWDIO*%
X145675000Y-97250000D02*
X147352000Y-97250000D01*
D32*
X178090000Y-77550002D02*
X178090000Y-76810000D01*
X178100000Y-84620000D02*
X178100000Y-76870000D01*
X173980000Y-88740000D02*
X178100000Y-84620000D01*
X160960000Y-88740000D02*
X173980000Y-88740000D01*
X152450000Y-97250000D02*
X160960000Y-88740000D01*
X147352000Y-97250000D02*
X152450000Y-97250000D01*
%TO.N,SWCLK*%
X176830000Y-78320000D02*
X176830000Y-76870000D01*
X171050000Y-84100000D02*
X176830000Y-78320000D01*
X147663590Y-84100000D02*
X171050000Y-84100000D01*
X143750000Y-88013590D02*
X147663590Y-84100000D01*
X143750000Y-94325000D02*
X143750000Y-88013590D01*
%TO.N,SWO*%
X140750000Y-93484298D02*
X142740000Y-91494298D01*
X140750000Y-94325000D02*
X140750000Y-93484298D01*
X142740000Y-91494298D02*
X142740000Y-84020000D01*
X142740000Y-84020000D02*
X151710000Y-75050000D01*
X175190000Y-75050000D02*
X175560000Y-75420000D01*
X175560000Y-75420000D02*
X175560000Y-76870000D01*
X151710000Y-75050000D02*
X175190000Y-75050000D01*
%TO.N,Net-(J3-Pad8)*%
X174280000Y-77550002D02*
X174280000Y-76810000D01*
%TO.N,NRST*%
X140165702Y-99250000D02*
X146150000Y-93265702D01*
X134325000Y-99250000D02*
X140165702Y-99250000D01*
X146150000Y-93265702D02*
X146150000Y-86250000D01*
X146150000Y-86250000D02*
X147360000Y-85040000D01*
X147360000Y-85040000D02*
X170600002Y-85040000D01*
X173000000Y-85040000D02*
X173020000Y-85020000D01*
X170600002Y-85040000D02*
X173000000Y-85040000D01*
X172970000Y-76920000D02*
X173020000Y-76870000D01*
X172970000Y-80410000D02*
X172970000Y-76920000D01*
D30*
%TO.N,I2C1_SCL*%
X139250000Y-93350000D02*
X139250000Y-94325000D01*
X141226000Y-91374000D02*
X139250000Y-93350000D01*
X141226000Y-90424000D02*
X141226000Y-91374000D01*
X141226000Y-90424000D02*
X141226000Y-87226000D01*
X138836000Y-84836000D02*
X136652000Y-84836000D01*
X141226000Y-87226000D02*
X138836000Y-84836000D01*
D32*
X116598000Y-78388000D02*
X113790000Y-75580000D01*
X116598000Y-84664000D02*
X116598000Y-78388000D01*
%TO.N,I2C1_SDA*%
X116078000Y-84644000D02*
X116098000Y-84664000D01*
D30*
X138750000Y-90996000D02*
X138178000Y-90424000D01*
X138750000Y-94325000D02*
X138750000Y-90996000D01*
X138418001Y-90183999D02*
X138178000Y-90424000D01*
X138418001Y-88126001D02*
X138418001Y-90183999D01*
X136652000Y-86360000D02*
X138418001Y-88126001D01*
D32*
X116098000Y-84664000D02*
X114314000Y-84664000D01*
X110290000Y-80640000D02*
X110290000Y-75580000D01*
X114314000Y-84664000D02*
X110290000Y-80640000D01*
%TO.N,Net-(J5-Pad4)*%
X180265000Y-91025000D02*
X185120000Y-86170000D01*
X168337000Y-91025000D02*
X180265000Y-91025000D01*
%TO.N,Net-(J5-Pad3)*%
X182495000Y-92295000D02*
X185120000Y-89670000D01*
X168337000Y-92295000D02*
X182495000Y-92295000D01*
%TO.N,Net-(J5-Pad2)*%
X184725000Y-93565000D02*
X185120000Y-93170000D01*
X168337000Y-93565000D02*
X184725000Y-93565000D01*
%TO.N,PA4*%
X137750000Y-109180000D02*
X137360000Y-109570000D01*
X137750000Y-105675000D02*
X137750000Y-109180000D01*
D30*
%TO.N,PA5*%
X138250000Y-110670000D02*
X138176000Y-110744000D01*
X138250000Y-105675000D02*
X138250000Y-110670000D01*
%TO.N,PA6*%
X138938000Y-110395998D02*
X138938000Y-111506000D01*
X138750000Y-110207998D02*
X138938000Y-110395998D01*
X138750000Y-105675000D02*
X138750000Y-110207998D01*
%TO.N,PA7*%
X139700000Y-110450878D02*
X139700000Y-112268000D01*
X139250000Y-110000878D02*
X139700000Y-110450878D01*
X139250000Y-105675000D02*
X139250000Y-110000878D01*
%TO.N,PC4*%
X140462000Y-110505758D02*
X140462000Y-113030000D01*
X139750000Y-109793758D02*
X140462000Y-110505758D01*
X139750000Y-105675000D02*
X139750000Y-109793758D01*
%TO.N,PC5*%
X141224000Y-110560638D02*
X141224000Y-112268000D01*
X140250000Y-109586638D02*
X141224000Y-110560638D01*
X140250000Y-105675000D02*
X140250000Y-109586638D01*
%TO.N,PB0*%
X141986000Y-110615518D02*
X141986000Y-111506000D01*
X140750000Y-109379518D02*
X141986000Y-110615518D01*
X140750000Y-105675000D02*
X140750000Y-109379518D01*
%TO.N,PB1*%
X142748000Y-110670398D02*
X142748000Y-110744000D01*
X141250000Y-109172398D02*
X142748000Y-110670398D01*
X141250000Y-105675000D02*
X141250000Y-109172398D01*
%TO.N,PB2*%
X141750000Y-108208000D02*
X142000000Y-108458000D01*
X141750000Y-105675000D02*
X141750000Y-108208000D01*
D32*
%TO.N,UART3_RX*%
X149440010Y-109490010D02*
X155020000Y-115070000D01*
X145587898Y-109490010D02*
X149440010Y-109490010D01*
X142750000Y-106652112D02*
X145587898Y-109490010D01*
X142750000Y-105675000D02*
X142750000Y-106652112D01*
%TO.N,UART3_TX*%
X149835002Y-115220000D02*
X151530000Y-115220000D01*
X142250000Y-107634998D02*
X149835002Y-115220000D01*
X142250000Y-105675000D02*
X142250000Y-107634998D01*
%TO.N,Net-(J8-Pad2)*%
X168337000Y-105295000D02*
X169312000Y-105295000D01*
X178075000Y-105295000D02*
X185110000Y-112330000D01*
X168337000Y-105295000D02*
X178075000Y-105295000D01*
%TO.N,Net-(J8-Pad3)*%
X180305000Y-104025000D02*
X185110000Y-108830000D01*
X168337000Y-104025000D02*
X180305000Y-104025000D01*
%TO.N,Net-(J8-Pad4)*%
X182535000Y-102755000D02*
X185110000Y-105330000D01*
X168337000Y-102755000D02*
X182535000Y-102755000D01*
%TO.N,Net-(R2-Pad1)*%
X135648000Y-76692000D02*
X135636000Y-76704000D01*
X135660000Y-76680000D02*
X135636000Y-76704000D01*
X135660000Y-73880000D02*
X135660000Y-76680000D01*
%TO.N,BOOT0*%
X135636000Y-77724000D02*
X135636000Y-86614000D01*
X135636000Y-86614000D02*
X137668000Y-88646000D01*
X137668000Y-88646000D02*
X137668000Y-89408000D01*
X138250000Y-92285306D02*
X138250000Y-94325000D01*
X137663347Y-91698653D02*
X138250000Y-92285306D01*
D33*
%TO.N,BUCK_EN*%
X124140000Y-118785000D02*
X126510000Y-118785000D01*
X117157000Y-118785000D02*
X115908000Y-117536000D01*
X124140000Y-118785000D02*
X117157000Y-118785000D01*
%TO.N,BUCK_FB*%
X113659000Y-117585000D02*
X113708000Y-117536000D01*
X108230000Y-117585000D02*
X113659000Y-117585000D01*
X108210000Y-117605000D02*
X108230000Y-117585000D01*
X105980000Y-117605000D02*
X108210000Y-117605000D01*
%TO.N,Net-(R8-Pad1)*%
X108230000Y-119235000D02*
X108230000Y-120945000D01*
D30*
%TO.N,HSE_OUT*%
X134325000Y-98750000D02*
X133406000Y-98750000D01*
D32*
X132646000Y-98750000D02*
X131066000Y-100330000D01*
X133406000Y-98750000D02*
X132646000Y-98750000D01*
%TO.N,STEP_2-4*%
X163010232Y-105295000D02*
X163387000Y-105295000D01*
D30*
X163292000Y-105200000D02*
X163387000Y-105295000D01*
D32*
X149665702Y-105400000D02*
X152600000Y-105400000D01*
X163282000Y-105400000D02*
X163387000Y-105295000D01*
X156000000Y-105400000D02*
X163282000Y-105400000D01*
X146515702Y-102250000D02*
X146800000Y-102534298D01*
X145675000Y-102250000D02*
X146515702Y-102250000D01*
X146800000Y-102534298D02*
X146800000Y-104400000D01*
X146800000Y-104400000D02*
X147400000Y-105000000D01*
X149265702Y-105000000D02*
X149665702Y-105400000D01*
X147400000Y-105000000D02*
X149265702Y-105000000D01*
%TO.N,STEP_2-3*%
X163010232Y-104025000D02*
X163387000Y-104025000D01*
X149400000Y-104200000D02*
X151800000Y-104200000D01*
X163212000Y-104200000D02*
X163387000Y-104025000D01*
X154600000Y-104200000D02*
X163212000Y-104200000D01*
X146652112Y-101750000D02*
X147250010Y-102347898D01*
X145675000Y-101750000D02*
X146652112Y-101750000D01*
X147250010Y-102347898D02*
X147250010Y-104050010D01*
X147400000Y-104200000D02*
X149400000Y-104200000D01*
X147250010Y-104050010D02*
X147400000Y-104200000D01*
%TO.N,STEP_2-2*%
X163010232Y-102755000D02*
X163387000Y-102755000D01*
X150400000Y-102600000D02*
X148800000Y-102600000D01*
X163232000Y-102600000D02*
X163387000Y-102755000D01*
X153200000Y-102600000D02*
X163232000Y-102600000D01*
X146788522Y-101250000D02*
X147700019Y-102161497D01*
X145675000Y-101250000D02*
X146788522Y-101250000D01*
X147700019Y-102161497D02*
X147700019Y-102300019D01*
X148000000Y-102600000D02*
X148800000Y-102600000D01*
X147700019Y-102300019D02*
X148000000Y-102600000D01*
%TO.N,STEP_2-1*%
X163302000Y-101400000D02*
X163387000Y-101485000D01*
X152800000Y-101400000D02*
X163302000Y-101400000D01*
X149450010Y-102149990D02*
X150200000Y-101400000D01*
X148324922Y-102149990D02*
X149450010Y-102149990D01*
X146924932Y-100750000D02*
X148324922Y-102149990D01*
X145675000Y-100750000D02*
X146924932Y-100750000D01*
%TO.N,STEP_1-4*%
X162235000Y-93565000D02*
X163387000Y-93565000D01*
X155200000Y-100600000D02*
X162235000Y-93565000D01*
X148200000Y-101200000D02*
X149000000Y-101200000D01*
X147250000Y-100250000D02*
X148200000Y-101200000D01*
X145675000Y-100250000D02*
X147250000Y-100250000D01*
%TO.N,STEP_1-3*%
X147975000Y-99750000D02*
X148200000Y-99975000D01*
X145675000Y-99750000D02*
X147975000Y-99750000D01*
X162479694Y-92295000D02*
X159287347Y-95487347D01*
X163387000Y-92295000D02*
X162479694Y-92295000D01*
%TO.N,STEP_1-2*%
X145732000Y-99250000D02*
X145756990Y-99274990D01*
X145675000Y-99250000D02*
X145732000Y-99250000D01*
X148975000Y-99250000D02*
X149200000Y-99475000D01*
X145675000Y-99250000D02*
X148975000Y-99250000D01*
X162724389Y-91025000D02*
X158215703Y-95533686D01*
X163387000Y-91025000D02*
X162724389Y-91025000D01*
%TO.N,STEP_1-1*%
X145740000Y-98750000D02*
X145764990Y-98774990D01*
X145675000Y-98750000D02*
X145740000Y-98750000D01*
X149987288Y-98750000D02*
X150200000Y-98962712D01*
X145675000Y-98750000D02*
X149987288Y-98750000D01*
X157741020Y-94425980D02*
X157708694Y-94425980D01*
X162412000Y-89755000D02*
X157741020Y-94425980D01*
X163387000Y-89755000D02*
X162412000Y-89755000D01*
D35*
%TO.N,USB_D-*%
X166944000Y-120278999D02*
X167661844Y-119561155D01*
X166944000Y-121074000D02*
X166944000Y-120278999D01*
X167661844Y-119561155D02*
X167661844Y-118990164D01*
X167661844Y-118990164D02*
X151167844Y-102496164D01*
X151167844Y-102496164D02*
X151167844Y-98896164D01*
X150503836Y-98232156D02*
X145692844Y-98232156D01*
X145692844Y-98232156D02*
X145675000Y-98250000D01*
X151167844Y-98896164D02*
X150503836Y-98232156D01*
D32*
%TO.N,USB_D+*%
X168844000Y-121074000D02*
X168844000Y-120716000D01*
D35*
X168844000Y-120278999D02*
X168126156Y-119561155D01*
X168844000Y-121074000D02*
X168844000Y-120278999D01*
X168126156Y-119561155D02*
X168126156Y-118797836D01*
X168126156Y-118797836D02*
X151632156Y-102303836D01*
X151632156Y-102303836D02*
X151632156Y-98703836D01*
X145692844Y-97767844D02*
X145675000Y-97750000D01*
X150696164Y-97767844D02*
X145692844Y-97767844D01*
X151632156Y-98703836D02*
X150696164Y-97767844D01*
D32*
%TO.N,PC15*%
X129520010Y-97750000D02*
X129320000Y-97549990D01*
X134325000Y-97750000D02*
X129520010Y-97750000D01*
%TO.N,PC14*%
X130497034Y-97250000D02*
X130272034Y-97025000D01*
X134325000Y-97250000D02*
X130497034Y-97250000D01*
%TO.N,PC13*%
X131530000Y-96750000D02*
X131180000Y-96400000D01*
X134325000Y-96750000D02*
X131530000Y-96750000D01*
%TO.N,Net-(J5-Pad5)*%
X178035000Y-89755000D02*
X185120000Y-82670000D01*
X168337000Y-89755000D02*
X178035000Y-89755000D01*
%TO.N,Net-(J8-Pad5)*%
X184765000Y-101485000D02*
X185110000Y-101830000D01*
X168337000Y-101485000D02*
X184765000Y-101485000D01*
%TO.N,PC8*%
X132820000Y-99750000D02*
X132450000Y-100120000D01*
X134325000Y-99750000D02*
X132820000Y-99750000D01*
%TD*%
M02*
