%TF.GenerationSoftware,KiCad,Pcbnew,(5.1.8)-1*%
%TF.CreationDate,2020-12-28T13:01:50-08:00*%
%TF.ProjectId,STMboard,53544d62-6f61-4726-942e-6b696361645f,rev?*%
%TF.SameCoordinates,Original*%
%TF.FileFunction,Legend,Top*%
%TF.FilePolarity,Positive*%
%FSLAX46Y46*%
G04 Gerber Fmt 4.6, Leading zero omitted, Abs format (unit mm)*
G04 Created by KiCad (PCBNEW (5.1.8)-1) date 2020-12-28 13:01:50*
%MOMM*%
%LPD*%
G01*
G04 APERTURE LIST*
%ADD10C,0.150000*%
%ADD11C,0.200000*%
%ADD12C,0.300000*%
%ADD13C,0.120000*%
G04 APERTURE END LIST*
D10*
X135822857Y-99707142D02*
X135822857Y-100350000D01*
X135780000Y-100478571D01*
X135694285Y-100564285D01*
X135565714Y-100607142D01*
X135480000Y-100607142D01*
X136680000Y-100607142D02*
X136251428Y-100607142D01*
X136251428Y-99707142D01*
X137494285Y-100521428D02*
X137451428Y-100564285D01*
X137322857Y-100607142D01*
X137237142Y-100607142D01*
X137108571Y-100564285D01*
X137022857Y-100478571D01*
X136980000Y-100392857D01*
X136937142Y-100221428D01*
X136937142Y-100092857D01*
X136980000Y-99921428D01*
X137022857Y-99835714D01*
X137108571Y-99750000D01*
X137237142Y-99707142D01*
X137322857Y-99707142D01*
X137451428Y-99750000D01*
X137494285Y-99792857D01*
X138137142Y-99707142D02*
X138137142Y-100350000D01*
X138094285Y-100478571D01*
X138008571Y-100564285D01*
X137880000Y-100607142D01*
X137794285Y-100607142D01*
X138994285Y-100607142D02*
X138565714Y-100607142D01*
X138565714Y-99707142D01*
X139808571Y-100521428D02*
X139765714Y-100564285D01*
X139637142Y-100607142D01*
X139551428Y-100607142D01*
X139422857Y-100564285D01*
X139337142Y-100478571D01*
X139294285Y-100392857D01*
X139251428Y-100221428D01*
X139251428Y-100092857D01*
X139294285Y-99921428D01*
X139337142Y-99835714D01*
X139422857Y-99750000D01*
X139551428Y-99707142D01*
X139637142Y-99707142D01*
X139765714Y-99750000D01*
X139808571Y-99792857D01*
X140451428Y-99707142D02*
X140451428Y-100350000D01*
X140408571Y-100478571D01*
X140322857Y-100564285D01*
X140194285Y-100607142D01*
X140108571Y-100607142D01*
X141308571Y-100607142D02*
X140880000Y-100607142D01*
X140880000Y-99707142D01*
X142122857Y-100521428D02*
X142080000Y-100564285D01*
X141951428Y-100607142D01*
X141865714Y-100607142D01*
X141737142Y-100564285D01*
X141651428Y-100478571D01*
X141608571Y-100392857D01*
X141565714Y-100221428D01*
X141565714Y-100092857D01*
X141608571Y-99921428D01*
X141651428Y-99835714D01*
X141737142Y-99750000D01*
X141865714Y-99707142D01*
X141951428Y-99707142D01*
X142080000Y-99750000D01*
X142122857Y-99792857D01*
X142765714Y-99707142D02*
X142765714Y-100350000D01*
X142722857Y-100478571D01*
X142637142Y-100564285D01*
X142508571Y-100607142D01*
X142422857Y-100607142D01*
X143622857Y-100607142D02*
X143194285Y-100607142D01*
X143194285Y-99707142D01*
X144437142Y-100521428D02*
X144394285Y-100564285D01*
X144265714Y-100607142D01*
X144180000Y-100607142D01*
X144051428Y-100564285D01*
X143965714Y-100478571D01*
X143922857Y-100392857D01*
X143880000Y-100221428D01*
X143880000Y-100092857D01*
X143922857Y-99921428D01*
X143965714Y-99835714D01*
X144051428Y-99750000D01*
X144180000Y-99707142D01*
X144265714Y-99707142D01*
X144394285Y-99750000D01*
X144437142Y-99792857D01*
X132267619Y-76551904D02*
X132743809Y-76218571D01*
X132267619Y-75980476D02*
X133267619Y-75980476D01*
X133267619Y-76361428D01*
X133220000Y-76456666D01*
X133172380Y-76504285D01*
X133077142Y-76551904D01*
X132934285Y-76551904D01*
X132839047Y-76504285D01*
X132791428Y-76456666D01*
X132743809Y-76361428D01*
X132743809Y-75980476D01*
X133267619Y-76980476D02*
X132458095Y-76980476D01*
X132362857Y-77028095D01*
X132315238Y-77075714D01*
X132267619Y-77170952D01*
X132267619Y-77361428D01*
X132315238Y-77456666D01*
X132362857Y-77504285D01*
X132458095Y-77551904D01*
X133267619Y-77551904D01*
X132267619Y-78028095D02*
X133267619Y-78028095D01*
X132267619Y-78599523D01*
X133267619Y-78599523D01*
D11*
X128893333Y-107204761D02*
X129036190Y-107252380D01*
X129274285Y-107252380D01*
X129369523Y-107204761D01*
X129417142Y-107157142D01*
X129464761Y-107061904D01*
X129464761Y-106966666D01*
X129417142Y-106871428D01*
X129369523Y-106823809D01*
X129274285Y-106776190D01*
X129083809Y-106728571D01*
X128988571Y-106680952D01*
X128940952Y-106633333D01*
X128893333Y-106538095D01*
X128893333Y-106442857D01*
X128940952Y-106347619D01*
X128988571Y-106300000D01*
X129083809Y-106252380D01*
X129321904Y-106252380D01*
X129464761Y-106300000D01*
X129750476Y-106585714D02*
X130131428Y-106585714D01*
X129893333Y-106252380D02*
X129893333Y-107109523D01*
X129940952Y-107204761D01*
X130036190Y-107252380D01*
X130131428Y-107252380D01*
X130893333Y-107252380D02*
X130893333Y-106728571D01*
X130845714Y-106633333D01*
X130750476Y-106585714D01*
X130560000Y-106585714D01*
X130464761Y-106633333D01*
X130893333Y-107204761D02*
X130798095Y-107252380D01*
X130560000Y-107252380D01*
X130464761Y-107204761D01*
X130417142Y-107109523D01*
X130417142Y-107014285D01*
X130464761Y-106919047D01*
X130560000Y-106871428D01*
X130798095Y-106871428D01*
X130893333Y-106823809D01*
X131226666Y-106585714D02*
X131607619Y-106585714D01*
X131369523Y-106252380D02*
X131369523Y-107109523D01*
X131417142Y-107204761D01*
X131512380Y-107252380D01*
X131607619Y-107252380D01*
X132369523Y-106585714D02*
X132369523Y-107252380D01*
X131940952Y-106585714D02*
X131940952Y-107109523D01*
X131988571Y-107204761D01*
X132083809Y-107252380D01*
X132226666Y-107252380D01*
X132321904Y-107204761D01*
X132369523Y-107157142D01*
X132798095Y-107204761D02*
X132893333Y-107252380D01*
X133083809Y-107252380D01*
X133179047Y-107204761D01*
X133226666Y-107109523D01*
X133226666Y-107061904D01*
X133179047Y-106966666D01*
X133083809Y-106919047D01*
X132940952Y-106919047D01*
X132845714Y-106871428D01*
X132798095Y-106776190D01*
X132798095Y-106728571D01*
X132845714Y-106633333D01*
X132940952Y-106585714D01*
X133083809Y-106585714D01*
X133179047Y-106633333D01*
D10*
X155161904Y-88652380D02*
X155780952Y-88652380D01*
X155447619Y-89033333D01*
X155590476Y-89033333D01*
X155685714Y-89080952D01*
X155733333Y-89128571D01*
X155780952Y-89223809D01*
X155780952Y-89461904D01*
X155733333Y-89557142D01*
X155685714Y-89604761D01*
X155590476Y-89652380D01*
X155304761Y-89652380D01*
X155209523Y-89604761D01*
X155161904Y-89557142D01*
X156066666Y-88652380D02*
X156400000Y-89652380D01*
X156733333Y-88652380D01*
X156971428Y-88652380D02*
X157590476Y-88652380D01*
X157257142Y-89033333D01*
X157400000Y-89033333D01*
X157495238Y-89080952D01*
X157542857Y-89128571D01*
X157590476Y-89223809D01*
X157590476Y-89461904D01*
X157542857Y-89557142D01*
X157495238Y-89604761D01*
X157400000Y-89652380D01*
X157114285Y-89652380D01*
X157019047Y-89604761D01*
X156971428Y-89557142D01*
X140291428Y-75712857D02*
X140243809Y-75855714D01*
X140196190Y-75903333D01*
X140100952Y-75950952D01*
X139958095Y-75950952D01*
X139862857Y-75903333D01*
X139815238Y-75855714D01*
X139767619Y-75760476D01*
X139767619Y-75379523D01*
X140767619Y-75379523D01*
X140767619Y-75712857D01*
X140720000Y-75808095D01*
X140672380Y-75855714D01*
X140577142Y-75903333D01*
X140481904Y-75903333D01*
X140386666Y-75855714D01*
X140339047Y-75808095D01*
X140291428Y-75712857D01*
X140291428Y-75379523D01*
X140767619Y-76570000D02*
X140767619Y-76760476D01*
X140720000Y-76855714D01*
X140624761Y-76950952D01*
X140434285Y-76998571D01*
X140100952Y-76998571D01*
X139910476Y-76950952D01*
X139815238Y-76855714D01*
X139767619Y-76760476D01*
X139767619Y-76570000D01*
X139815238Y-76474761D01*
X139910476Y-76379523D01*
X140100952Y-76331904D01*
X140434285Y-76331904D01*
X140624761Y-76379523D01*
X140720000Y-76474761D01*
X140767619Y-76570000D01*
X140767619Y-77617619D02*
X140767619Y-77808095D01*
X140720000Y-77903333D01*
X140624761Y-77998571D01*
X140434285Y-78046190D01*
X140100952Y-78046190D01*
X139910476Y-77998571D01*
X139815238Y-77903333D01*
X139767619Y-77808095D01*
X139767619Y-77617619D01*
X139815238Y-77522380D01*
X139910476Y-77427142D01*
X140100952Y-77379523D01*
X140434285Y-77379523D01*
X140624761Y-77427142D01*
X140720000Y-77522380D01*
X140767619Y-77617619D01*
X140767619Y-78331904D02*
X140767619Y-78903333D01*
X139767619Y-78617619D02*
X140767619Y-78617619D01*
D11*
X146982857Y-125148571D02*
X146982857Y-123648571D01*
X147340000Y-123648571D01*
X147554285Y-123720000D01*
X147697142Y-123862857D01*
X147768571Y-124005714D01*
X147840000Y-124291428D01*
X147840000Y-124505714D01*
X147768571Y-124791428D01*
X147697142Y-124934285D01*
X147554285Y-125077142D01*
X147340000Y-125148571D01*
X146982857Y-125148571D01*
X149125714Y-125148571D02*
X149125714Y-124362857D01*
X149054285Y-124220000D01*
X148911428Y-124148571D01*
X148625714Y-124148571D01*
X148482857Y-124220000D01*
X149125714Y-125077142D02*
X148982857Y-125148571D01*
X148625714Y-125148571D01*
X148482857Y-125077142D01*
X148411428Y-124934285D01*
X148411428Y-124791428D01*
X148482857Y-124648571D01*
X148625714Y-124577142D01*
X148982857Y-124577142D01*
X149125714Y-124505714D01*
X149840000Y-125148571D02*
X149840000Y-124148571D01*
X149840000Y-124434285D02*
X149911428Y-124291428D01*
X149982857Y-124220000D01*
X150125714Y-124148571D01*
X150268571Y-124148571D01*
X150768571Y-125148571D02*
X150768571Y-124148571D01*
X150768571Y-124434285D02*
X150840000Y-124291428D01*
X150911428Y-124220000D01*
X151054285Y-124148571D01*
X151197142Y-124148571D01*
X152268571Y-125077142D02*
X152125714Y-125148571D01*
X151840000Y-125148571D01*
X151697142Y-125077142D01*
X151625714Y-124934285D01*
X151625714Y-124362857D01*
X151697142Y-124220000D01*
X151840000Y-124148571D01*
X152125714Y-124148571D01*
X152268571Y-124220000D01*
X152340000Y-124362857D01*
X152340000Y-124505714D01*
X151625714Y-124648571D01*
X152982857Y-124148571D02*
X152982857Y-125148571D01*
X152982857Y-124291428D02*
X153054285Y-124220000D01*
X153197142Y-124148571D01*
X153411428Y-124148571D01*
X153554285Y-124220000D01*
X153625714Y-124362857D01*
X153625714Y-125148571D01*
X156340000Y-125005714D02*
X156268571Y-125077142D01*
X156054285Y-125148571D01*
X155911428Y-125148571D01*
X155697142Y-125077142D01*
X155554285Y-124934285D01*
X155482857Y-124791428D01*
X155411428Y-124505714D01*
X155411428Y-124291428D01*
X155482857Y-124005714D01*
X155554285Y-123862857D01*
X155697142Y-123720000D01*
X155911428Y-123648571D01*
X156054285Y-123648571D01*
X156268571Y-123720000D01*
X156340000Y-123791428D01*
X156982857Y-125148571D02*
X156982857Y-123648571D01*
X157625714Y-125148571D02*
X157625714Y-124362857D01*
X157554285Y-124220000D01*
X157411428Y-124148571D01*
X157197142Y-124148571D01*
X157054285Y-124220000D01*
X156982857Y-124291428D01*
X158340000Y-125148571D02*
X158340000Y-124148571D01*
X158340000Y-123648571D02*
X158268571Y-123720000D01*
X158340000Y-123791428D01*
X158411428Y-123720000D01*
X158340000Y-123648571D01*
X158340000Y-123791428D01*
X159697142Y-124148571D02*
X159697142Y-125148571D01*
X159054285Y-124148571D02*
X159054285Y-124934285D01*
X159125714Y-125077142D01*
X159268571Y-125148571D01*
X159482857Y-125148571D01*
X159625714Y-125077142D01*
X159697142Y-125005714D01*
D12*
X110918571Y-124963333D02*
X111870952Y-124963333D01*
X110728095Y-125534761D02*
X111394761Y-123534761D01*
X112061428Y-125534761D01*
X112632857Y-125439523D02*
X112823333Y-125534761D01*
X113204285Y-125534761D01*
X113394761Y-125439523D01*
X113490000Y-125249047D01*
X113490000Y-125153809D01*
X113394761Y-124963333D01*
X113204285Y-124868095D01*
X112918571Y-124868095D01*
X112728095Y-124772857D01*
X112632857Y-124582380D01*
X112632857Y-124487142D01*
X112728095Y-124296666D01*
X112918571Y-124201428D01*
X113204285Y-124201428D01*
X113394761Y-124296666D01*
X114061428Y-124201428D02*
X114823333Y-124201428D01*
X114347142Y-123534761D02*
X114347142Y-125249047D01*
X114442380Y-125439523D01*
X114632857Y-125534761D01*
X114823333Y-125534761D01*
X115490000Y-125534761D02*
X115490000Y-124201428D01*
X115490000Y-124582380D02*
X115585238Y-124391904D01*
X115680476Y-124296666D01*
X115870952Y-124201428D01*
X116061428Y-124201428D01*
X117013809Y-125534761D02*
X116823333Y-125439523D01*
X116728095Y-125344285D01*
X116632857Y-125153809D01*
X116632857Y-124582380D01*
X116728095Y-124391904D01*
X116823333Y-124296666D01*
X117013809Y-124201428D01*
X117299523Y-124201428D01*
X117490000Y-124296666D01*
X117585238Y-124391904D01*
X117680476Y-124582380D01*
X117680476Y-125153809D01*
X117585238Y-125344285D01*
X117490000Y-125439523D01*
X117299523Y-125534761D01*
X117013809Y-125534761D01*
X118537619Y-125534761D02*
X118537619Y-124201428D01*
X118537619Y-124391904D02*
X118632857Y-124296666D01*
X118823333Y-124201428D01*
X119109047Y-124201428D01*
X119299523Y-124296666D01*
X119394761Y-124487142D01*
X119394761Y-125534761D01*
X119394761Y-124487142D02*
X119490000Y-124296666D01*
X119680476Y-124201428D01*
X119966190Y-124201428D01*
X120156666Y-124296666D01*
X120251904Y-124487142D01*
X120251904Y-125534761D01*
X121966190Y-125439523D02*
X121775714Y-125534761D01*
X121394761Y-125534761D01*
X121204285Y-125439523D01*
X121109047Y-125249047D01*
X121109047Y-124487142D01*
X121204285Y-124296666D01*
X121394761Y-124201428D01*
X121775714Y-124201428D01*
X121966190Y-124296666D01*
X122061428Y-124487142D01*
X122061428Y-124677619D01*
X121109047Y-124868095D01*
X123775714Y-125439523D02*
X123585238Y-125534761D01*
X123204285Y-125534761D01*
X123013809Y-125439523D01*
X122918571Y-125344285D01*
X122823333Y-125153809D01*
X122823333Y-124582380D01*
X122918571Y-124391904D01*
X123013809Y-124296666D01*
X123204285Y-124201428D01*
X123585238Y-124201428D01*
X123775714Y-124296666D01*
X124632857Y-125534761D02*
X124632857Y-123534761D01*
X125490000Y-125534761D02*
X125490000Y-124487142D01*
X125394761Y-124296666D01*
X125204285Y-124201428D01*
X124918571Y-124201428D01*
X124728095Y-124296666D01*
X124632857Y-124391904D01*
X128632857Y-124487142D02*
X128918571Y-124582380D01*
X129013809Y-124677619D01*
X129109047Y-124868095D01*
X129109047Y-125153809D01*
X129013809Y-125344285D01*
X128918571Y-125439523D01*
X128728095Y-125534761D01*
X127966190Y-125534761D01*
X127966190Y-123534761D01*
X128632857Y-123534761D01*
X128823333Y-123630000D01*
X128918571Y-123725238D01*
X129013809Y-123915714D01*
X129013809Y-124106190D01*
X128918571Y-124296666D01*
X128823333Y-124391904D01*
X128632857Y-124487142D01*
X127966190Y-124487142D01*
X130251904Y-125534761D02*
X130061428Y-125439523D01*
X129966190Y-125344285D01*
X129870952Y-125153809D01*
X129870952Y-124582380D01*
X129966190Y-124391904D01*
X130061428Y-124296666D01*
X130251904Y-124201428D01*
X130537619Y-124201428D01*
X130728095Y-124296666D01*
X130823333Y-124391904D01*
X130918571Y-124582380D01*
X130918571Y-125153809D01*
X130823333Y-125344285D01*
X130728095Y-125439523D01*
X130537619Y-125534761D01*
X130251904Y-125534761D01*
X132632857Y-125534761D02*
X132632857Y-124487142D01*
X132537619Y-124296666D01*
X132347142Y-124201428D01*
X131966190Y-124201428D01*
X131775714Y-124296666D01*
X132632857Y-125439523D02*
X132442380Y-125534761D01*
X131966190Y-125534761D01*
X131775714Y-125439523D01*
X131680476Y-125249047D01*
X131680476Y-125058571D01*
X131775714Y-124868095D01*
X131966190Y-124772857D01*
X132442380Y-124772857D01*
X132632857Y-124677619D01*
X133585238Y-125534761D02*
X133585238Y-124201428D01*
X133585238Y-124582380D02*
X133680476Y-124391904D01*
X133775714Y-124296666D01*
X133966190Y-124201428D01*
X134156666Y-124201428D01*
X135680476Y-125534761D02*
X135680476Y-123534761D01*
X135680476Y-125439523D02*
X135490000Y-125534761D01*
X135109047Y-125534761D01*
X134918571Y-125439523D01*
X134823333Y-125344285D01*
X134728095Y-125153809D01*
X134728095Y-124582380D01*
X134823333Y-124391904D01*
X134918571Y-124296666D01*
X135109047Y-124201428D01*
X135490000Y-124201428D01*
X135680476Y-124296666D01*
X139204285Y-125534761D02*
X138061428Y-125534761D01*
X138632857Y-125534761D02*
X138632857Y-123534761D01*
X138442380Y-123820476D01*
X138251904Y-124010952D01*
X138061428Y-124106190D01*
X140061428Y-125344285D02*
X140156666Y-125439523D01*
X140061428Y-125534761D01*
X139966190Y-125439523D01*
X140061428Y-125344285D01*
X140061428Y-125534761D01*
X140823333Y-123534761D02*
X142061428Y-123534761D01*
X141394761Y-124296666D01*
X141680476Y-124296666D01*
X141870952Y-124391904D01*
X141966190Y-124487142D01*
X142061428Y-124677619D01*
X142061428Y-125153809D01*
X141966190Y-125344285D01*
X141870952Y-125439523D01*
X141680476Y-125534761D01*
X141109047Y-125534761D01*
X140918571Y-125439523D01*
X140823333Y-125344285D01*
D13*
%TO.C,FB1*%
X127650378Y-116570000D02*
X128449622Y-116570000D01*
X127650378Y-117690000D02*
X128449622Y-117690000D01*
%TO.C,C13*%
X114700164Y-112670000D02*
X114915836Y-112670000D01*
X114700164Y-113390000D02*
X114915836Y-113390000D01*
%TO.C,J3*%
X178795000Y-73155000D02*
X178795000Y-76685000D01*
X172325000Y-73155000D02*
X172325000Y-76685000D01*
X178730000Y-71830000D02*
X178730000Y-73155000D01*
X178795000Y-73155000D02*
X178730000Y-73155000D01*
X178795000Y-76685000D02*
X178730000Y-76685000D01*
X172390000Y-73155000D02*
X172325000Y-73155000D01*
X172390000Y-76685000D02*
X172325000Y-76685000D01*
%TO.C,C12*%
X121209420Y-82070000D02*
X121490580Y-82070000D01*
X121209420Y-83090000D02*
X121490580Y-83090000D01*
%TO.C,C4*%
X149379420Y-94830000D02*
X149660580Y-94830000D01*
X149379420Y-95850000D02*
X149660580Y-95850000D01*
%TO.C,U1*%
X144160000Y-105110000D02*
X145110000Y-105110000D01*
X145110000Y-105110000D02*
X145110000Y-104160000D01*
X135840000Y-105110000D02*
X134890000Y-105110000D01*
X134890000Y-105110000D02*
X134890000Y-104160000D01*
X144160000Y-94890000D02*
X145110000Y-94890000D01*
X145110000Y-94890000D02*
X145110000Y-95840000D01*
X135840000Y-94890000D02*
X134890000Y-94890000D01*
X134890000Y-94890000D02*
X134890000Y-95840000D01*
X134890000Y-95840000D02*
X133550000Y-95840000D01*
%TO.C,J8*%
X186790000Y-112330000D02*
G75*
G03*
X186790000Y-112330000I-1680000J0D01*
G01*
X186790000Y-108830000D02*
G75*
G03*
X186790000Y-108830000I-1680000J0D01*
G01*
X186790000Y-105330000D02*
G75*
G03*
X186790000Y-105330000I-1680000J0D01*
G01*
X186790000Y-101830000D02*
G75*
G03*
X186790000Y-101830000I-1680000J0D01*
G01*
X189210000Y-117640000D02*
X189210000Y-100020000D01*
X188110000Y-117640000D02*
X188110000Y-100020000D01*
X181950000Y-117640000D02*
X181950000Y-100020000D01*
X189670000Y-117640000D02*
X189670000Y-100020000D01*
X181950000Y-117640000D02*
X189670000Y-117640000D01*
X181950000Y-100020000D02*
X189670000Y-100020000D01*
X184041000Y-111055000D02*
X184169000Y-111184000D01*
X186291000Y-113305000D02*
X186384000Y-113399000D01*
X183835000Y-111260000D02*
X183929000Y-111354000D01*
X186051000Y-113475000D02*
X186179000Y-113604000D01*
X184041000Y-107555000D02*
X184169000Y-107684000D01*
X186291000Y-109805000D02*
X186384000Y-109899000D01*
X183835000Y-107760000D02*
X183929000Y-107854000D01*
X186051000Y-109975000D02*
X186179000Y-110104000D01*
X184041000Y-104055000D02*
X184169000Y-104184000D01*
X186291000Y-106305000D02*
X186384000Y-106399000D01*
X183835000Y-104260000D02*
X183929000Y-104354000D01*
X186051000Y-106475000D02*
X186179000Y-106604000D01*
X184041000Y-100555000D02*
X184169000Y-100684000D01*
X186291000Y-102805000D02*
X186384000Y-102899000D01*
X183835000Y-100760000D02*
X183929000Y-100854000D01*
X186051000Y-102975000D02*
X186179000Y-103104000D01*
X189270000Y-117880000D02*
X189910000Y-117880000D01*
X189910000Y-117880000D02*
X189910000Y-117480000D01*
X186534721Y-114939736D02*
G75*
G02*
X186790000Y-115830000I-1424721J-890264D01*
G01*
X184219807Y-114404495D02*
G75*
G02*
X186001000Y-114405000I890193J-1425505D01*
G01*
X183684642Y-116719894D02*
G75*
G02*
X183670000Y-114964000I1425358J889894D01*
G01*
X185999894Y-117255358D02*
G75*
G02*
X184244000Y-117270000I-889894J1425358D01*
G01*
X186790099Y-115801326D02*
G75*
G02*
X186550000Y-116696000I-1680099J-28674D01*
G01*
%TO.C,R3*%
X124662500Y-118197258D02*
X124662500Y-117722742D01*
X123617500Y-118197258D02*
X123617500Y-117722742D01*
%TO.C,C1*%
X130950580Y-94486000D02*
X130669420Y-94486000D01*
X130950580Y-95506000D02*
X130669420Y-95506000D01*
%TO.C,C2*%
X147309420Y-109200000D02*
X147590580Y-109200000D01*
X147309420Y-108180000D02*
X147590580Y-108180000D01*
%TO.C,C3*%
X130950580Y-93728000D02*
X130669420Y-93728000D01*
X130950580Y-92708000D02*
X130669420Y-92708000D01*
%TO.C,C5*%
X147179420Y-105408000D02*
X147460580Y-105408000D01*
X147179420Y-106428000D02*
X147460580Y-106428000D01*
%TO.C,C6*%
X134760580Y-91438000D02*
X134479420Y-91438000D01*
X134760580Y-92458000D02*
X134479420Y-92458000D01*
%TO.C,C7*%
X120798000Y-117906748D02*
X120798000Y-119329252D01*
X118978000Y-117906748D02*
X118978000Y-119329252D01*
%TO.C,C8*%
X134910000Y-108600580D02*
X134910000Y-108319420D01*
X135930000Y-108600580D02*
X135930000Y-108319420D01*
%TO.C,C9*%
X147904420Y-94240000D02*
X148185580Y-94240000D01*
X147904420Y-93220000D02*
X148185580Y-93220000D01*
%TO.C,C10*%
X134760580Y-88136000D02*
X134479420Y-88136000D01*
X134760580Y-89156000D02*
X134479420Y-89156000D01*
%TO.C,C11*%
X118477420Y-90676000D02*
X118758580Y-90676000D01*
X118477420Y-91696000D02*
X118758580Y-91696000D01*
%TO.C,C14*%
X132029252Y-121560000D02*
X130606748Y-121560000D01*
X132029252Y-119740000D02*
X130606748Y-119740000D01*
%TO.C,C15*%
X140512748Y-121306000D02*
X141935252Y-121306000D01*
X140512748Y-119486000D02*
X141935252Y-119486000D01*
%TO.C,C16*%
X126892164Y-94382000D02*
X127107836Y-94382000D01*
X126892164Y-95102000D02*
X127107836Y-95102000D01*
%TO.C,C17*%
X132186000Y-101961836D02*
X132186000Y-101746164D01*
X131466000Y-101961836D02*
X131466000Y-101746164D01*
%TO.C,C18*%
X127107836Y-101240000D02*
X126892164Y-101240000D01*
X127107836Y-101960000D02*
X126892164Y-101960000D01*
%TO.C,C19*%
X129942000Y-101961836D02*
X129942000Y-101746164D01*
X130662000Y-101961836D02*
X130662000Y-101746164D01*
%TO.C,D1*%
X131864000Y-107723000D02*
X129579000Y-107723000D01*
X129579000Y-107723000D02*
X129579000Y-109193000D01*
X129579000Y-109193000D02*
X131864000Y-109193000D01*
%TO.C,D2*%
X131700000Y-116130000D02*
X135600000Y-116130000D01*
X131700000Y-118130000D02*
X135600000Y-118130000D01*
X131700000Y-116130000D02*
X131700000Y-118130000D01*
%TO.C,D3*%
X114320000Y-111740000D02*
X116320000Y-111740000D01*
X116320000Y-111740000D02*
X116320000Y-107840000D01*
X114320000Y-111740000D02*
X114320000Y-107840000D01*
%TO.C,D4*%
X153189000Y-88177000D02*
X153189000Y-90462000D01*
X154659000Y-88177000D02*
X153189000Y-88177000D01*
X154659000Y-90462000D02*
X154659000Y-88177000D01*
%TO.C,F1*%
X120040000Y-109042064D02*
X120040000Y-107837936D01*
X121860000Y-109042064D02*
X121860000Y-107837936D01*
%TO.C,HSE1*%
X128650000Y-96298000D02*
X125350000Y-96298000D01*
X125350000Y-96298000D02*
X125350000Y-100298000D01*
%TO.C,J1*%
X97440000Y-92200000D02*
G75*
G03*
X97440000Y-92200000I-1680000J0D01*
G01*
X97440000Y-95700000D02*
G75*
G03*
X97440000Y-95700000I-1680000J0D01*
G01*
X97440000Y-99200000D02*
G75*
G03*
X97440000Y-99200000I-1680000J0D01*
G01*
X97440000Y-102700000D02*
G75*
G03*
X97440000Y-102700000I-1680000J0D01*
G01*
X97440000Y-106200000D02*
G75*
G03*
X97440000Y-106200000I-1680000J0D01*
G01*
X91660000Y-86890000D02*
X91660000Y-108011000D01*
X92760000Y-86890000D02*
X92760000Y-108011000D01*
X98920000Y-86890000D02*
X98920000Y-108011000D01*
X91200000Y-86890000D02*
X91200000Y-108011000D01*
X98920000Y-86890000D02*
X91200000Y-86890000D01*
X98920000Y-108011000D02*
X91200000Y-108011000D01*
X96829000Y-93475000D02*
X96701000Y-93346000D01*
X94579000Y-91225000D02*
X94486000Y-91131000D01*
X97035000Y-93270000D02*
X96941000Y-93176000D01*
X94819000Y-91055000D02*
X94691000Y-90926000D01*
X96829000Y-96975000D02*
X96701000Y-96846000D01*
X94579000Y-94725000D02*
X94486000Y-94631000D01*
X97035000Y-96770000D02*
X96941000Y-96676000D01*
X94819000Y-94555000D02*
X94691000Y-94426000D01*
X96829000Y-100475000D02*
X96701000Y-100346000D01*
X94579000Y-98225000D02*
X94486000Y-98131000D01*
X97035000Y-100270000D02*
X96941000Y-100176000D01*
X94819000Y-98055000D02*
X94691000Y-97926000D01*
X96829000Y-103975000D02*
X96701000Y-103846000D01*
X94579000Y-101725000D02*
X94486000Y-101631000D01*
X97035000Y-103770000D02*
X96941000Y-103676000D01*
X94819000Y-101555000D02*
X94691000Y-101426000D01*
X96829000Y-107475000D02*
X96701000Y-107346000D01*
X94579000Y-105225000D02*
X94486000Y-105131000D01*
X97035000Y-107270000D02*
X96941000Y-107176000D01*
X94819000Y-105055000D02*
X94691000Y-104926000D01*
X91600000Y-86650000D02*
X90960000Y-86650000D01*
X90960000Y-86650000D02*
X90960000Y-87050000D01*
X94335279Y-89590264D02*
G75*
G02*
X94080000Y-88700000I1424721J890264D01*
G01*
X96650193Y-90125505D02*
G75*
G02*
X94869000Y-90125000I-890193J1425505D01*
G01*
X97185358Y-87810106D02*
G75*
G02*
X97200000Y-89566000I-1425358J-889894D01*
G01*
X94870106Y-87274642D02*
G75*
G02*
X96626000Y-87260000I889894J-1425358D01*
G01*
X94079901Y-88728674D02*
G75*
G02*
X94320000Y-87834000I1680099J28674D01*
G01*
%TO.C,J2*%
X164250000Y-129837500D02*
X164700000Y-129837500D01*
X164250000Y-131687500D02*
X164250000Y-129837500D01*
X172050000Y-134237500D02*
X172050000Y-133987500D01*
X164250000Y-134237500D02*
X164250000Y-133987500D01*
X172050000Y-131687500D02*
X172050000Y-129837500D01*
X172050000Y-129837500D02*
X171600000Y-129837500D01*
X166450000Y-129287500D02*
X166900000Y-129287500D01*
X166450000Y-129287500D02*
X166450000Y-129737500D01*
%TO.C,J4*%
X119340000Y-70780000D02*
X118940000Y-70780000D01*
X119340000Y-71420000D02*
X119340000Y-70780000D01*
X107935000Y-74639000D02*
X108064000Y-74511000D01*
X105720000Y-76855000D02*
X105814000Y-76761000D01*
X107765000Y-74399000D02*
X107859000Y-74306000D01*
X105515000Y-76649000D02*
X105644000Y-76521000D01*
X111435000Y-74639000D02*
X111564000Y-74511000D01*
X109220000Y-76855000D02*
X109314000Y-76761000D01*
X111265000Y-74399000D02*
X111359000Y-74306000D01*
X109015000Y-76649000D02*
X109144000Y-76521000D01*
X114935000Y-74639000D02*
X115064000Y-74511000D01*
X112720000Y-76855000D02*
X112814000Y-76761000D01*
X114765000Y-74399000D02*
X114859000Y-74306000D01*
X112515000Y-76649000D02*
X112644000Y-76521000D01*
X104980000Y-78740000D02*
X104980000Y-71020000D01*
X119100000Y-78740000D02*
X119100000Y-71020000D01*
X119100000Y-71020000D02*
X104980000Y-71020000D01*
X119100000Y-78740000D02*
X104980000Y-78740000D01*
X119100000Y-72580000D02*
X104980000Y-72580000D01*
X119100000Y-71480000D02*
X104980000Y-71480000D01*
X108470000Y-75580000D02*
G75*
G03*
X108470000Y-75580000I-1680000J0D01*
G01*
X111970000Y-75580000D02*
G75*
G03*
X111970000Y-75580000I-1680000J0D01*
G01*
X115470000Y-75580000D02*
G75*
G03*
X115470000Y-75580000I-1680000J0D01*
G01*
X117261326Y-73899901D02*
G75*
G02*
X118156000Y-74140000I28674J-1680099D01*
G01*
X118715358Y-74690106D02*
G75*
G02*
X118730000Y-76446000I-1425358J-889894D01*
G01*
X118179894Y-77005358D02*
G75*
G02*
X116424000Y-77020000I-889894J1425358D01*
G01*
X115864495Y-76470193D02*
G75*
G02*
X115865000Y-74689000I1425505J890193D01*
G01*
X116399736Y-74155279D02*
G75*
G02*
X117290000Y-73900000I890264J-1424721D01*
G01*
%TO.C,J5*%
X189920000Y-98720000D02*
X189920000Y-98320000D01*
X189280000Y-98720000D02*
X189920000Y-98720000D01*
X186061000Y-83815000D02*
X186189000Y-83944000D01*
X183845000Y-81600000D02*
X183939000Y-81694000D01*
X186301000Y-83645000D02*
X186394000Y-83739000D01*
X184051000Y-81395000D02*
X184179000Y-81524000D01*
X186061000Y-87315000D02*
X186189000Y-87444000D01*
X183845000Y-85100000D02*
X183939000Y-85194000D01*
X186301000Y-87145000D02*
X186394000Y-87239000D01*
X184051000Y-84895000D02*
X184179000Y-85024000D01*
X186061000Y-90815000D02*
X186189000Y-90944000D01*
X183845000Y-88600000D02*
X183939000Y-88694000D01*
X186301000Y-90645000D02*
X186394000Y-90739000D01*
X184051000Y-88395000D02*
X184179000Y-88524000D01*
X186061000Y-94315000D02*
X186189000Y-94444000D01*
X183845000Y-92100000D02*
X183939000Y-92194000D01*
X186301000Y-94145000D02*
X186394000Y-94239000D01*
X184051000Y-91895000D02*
X184179000Y-92024000D01*
X181960000Y-80860000D02*
X189680000Y-80860000D01*
X181960000Y-98480000D02*
X189680000Y-98480000D01*
X189680000Y-98480000D02*
X189680000Y-80860000D01*
X181960000Y-98480000D02*
X181960000Y-80860000D01*
X188120000Y-98480000D02*
X188120000Y-80860000D01*
X189220000Y-98480000D02*
X189220000Y-80860000D01*
X186800000Y-82670000D02*
G75*
G03*
X186800000Y-82670000I-1680000J0D01*
G01*
X186800000Y-86170000D02*
G75*
G03*
X186800000Y-86170000I-1680000J0D01*
G01*
X186800000Y-89670000D02*
G75*
G03*
X186800000Y-89670000I-1680000J0D01*
G01*
X186800000Y-93170000D02*
G75*
G03*
X186800000Y-93170000I-1680000J0D01*
G01*
X186800099Y-96641326D02*
G75*
G02*
X186560000Y-97536000I-1680099J-28674D01*
G01*
X186009894Y-98095358D02*
G75*
G02*
X184254000Y-98110000I-889894J1425358D01*
G01*
X183694642Y-97559894D02*
G75*
G02*
X183680000Y-95804000I1425358J889894D01*
G01*
X184229807Y-95244495D02*
G75*
G02*
X186011000Y-95245000I890193J-1425505D01*
G01*
X186544721Y-95779736D02*
G75*
G02*
X186800000Y-96670000I-1424721J-890264D01*
G01*
%TO.C,J6*%
X111280000Y-130170000D02*
G75*
G03*
X111280000Y-130170000I-1680000J0D01*
G01*
X114780000Y-130170000D02*
G75*
G03*
X114780000Y-130170000I-1680000J0D01*
G01*
X118280000Y-130170000D02*
G75*
G03*
X118280000Y-130170000I-1680000J0D01*
G01*
X121780000Y-130170000D02*
G75*
G03*
X121780000Y-130170000I-1680000J0D01*
G01*
X125280000Y-130170000D02*
G75*
G03*
X125280000Y-130170000I-1680000J0D01*
G01*
X128780000Y-130170000D02*
G75*
G03*
X128780000Y-130170000I-1680000J0D01*
G01*
X132280000Y-130170000D02*
G75*
G03*
X132280000Y-130170000I-1680000J0D01*
G01*
X135780000Y-130170000D02*
G75*
G03*
X135780000Y-130170000I-1680000J0D01*
G01*
X139280000Y-130170000D02*
G75*
G03*
X139280000Y-130170000I-1680000J0D01*
G01*
X142780000Y-130170000D02*
G75*
G03*
X142780000Y-130170000I-1680000J0D01*
G01*
X104290000Y-134270000D02*
X142910000Y-134270000D01*
X104290000Y-133170000D02*
X142910000Y-133170000D01*
X104290000Y-127010000D02*
X142910000Y-127010000D01*
X104290000Y-134730000D02*
X142910000Y-134730000D01*
X104290000Y-127010000D02*
X104290000Y-134730000D01*
X142910000Y-127010000D02*
X142910000Y-134730000D01*
X110875000Y-129101000D02*
X110746000Y-129229000D01*
X108625000Y-131351000D02*
X108531000Y-131444000D01*
X110670000Y-128895000D02*
X110576000Y-128989000D01*
X108455000Y-131111000D02*
X108326000Y-131239000D01*
X114375000Y-129101000D02*
X114246000Y-129229000D01*
X112125000Y-131351000D02*
X112031000Y-131444000D01*
X114170000Y-128895000D02*
X114076000Y-128989000D01*
X111955000Y-131111000D02*
X111826000Y-131239000D01*
X117875000Y-129101000D02*
X117746000Y-129229000D01*
X115625000Y-131351000D02*
X115531000Y-131444000D01*
X117670000Y-128895000D02*
X117576000Y-128989000D01*
X115455000Y-131111000D02*
X115326000Y-131239000D01*
X121375000Y-129101000D02*
X121246000Y-129229000D01*
X119125000Y-131351000D02*
X119031000Y-131444000D01*
X121170000Y-128895000D02*
X121076000Y-128989000D01*
X118955000Y-131111000D02*
X118826000Y-131239000D01*
X124875000Y-129101000D02*
X124746000Y-129229000D01*
X122625000Y-131351000D02*
X122531000Y-131444000D01*
X124670000Y-128895000D02*
X124576000Y-128989000D01*
X122455000Y-131111000D02*
X122326000Y-131239000D01*
X128375000Y-129101000D02*
X128246000Y-129229000D01*
X126125000Y-131351000D02*
X126031000Y-131444000D01*
X128170000Y-128895000D02*
X128076000Y-128989000D01*
X125955000Y-131111000D02*
X125826000Y-131239000D01*
X131875000Y-129101000D02*
X131746000Y-129229000D01*
X129625000Y-131351000D02*
X129531000Y-131444000D01*
X131670000Y-128895000D02*
X131576000Y-128989000D01*
X129455000Y-131111000D02*
X129326000Y-131239000D01*
X135375000Y-129101000D02*
X135246000Y-129229000D01*
X133125000Y-131351000D02*
X133031000Y-131444000D01*
X135170000Y-128895000D02*
X135076000Y-128989000D01*
X132955000Y-131111000D02*
X132826000Y-131239000D01*
X138875000Y-129101000D02*
X138746000Y-129229000D01*
X136625000Y-131351000D02*
X136531000Y-131444000D01*
X138670000Y-128895000D02*
X138576000Y-128989000D01*
X136455000Y-131111000D02*
X136326000Y-131239000D01*
X142375000Y-129101000D02*
X142246000Y-129229000D01*
X140125000Y-131351000D02*
X140031000Y-131444000D01*
X142170000Y-128895000D02*
X142076000Y-128989000D01*
X139955000Y-131111000D02*
X139826000Y-131239000D01*
X104050000Y-134330000D02*
X104050000Y-134970000D01*
X104050000Y-134970000D02*
X104450000Y-134970000D01*
X106990264Y-131594721D02*
G75*
G02*
X106100000Y-131850000I-890264J1424721D01*
G01*
X107525505Y-129279807D02*
G75*
G02*
X107525000Y-131061000I-1425505J-890193D01*
G01*
X105210106Y-128744642D02*
G75*
G02*
X106966000Y-128730000I889894J-1425358D01*
G01*
X104674642Y-131059894D02*
G75*
G02*
X104660000Y-129304000I1425358J889894D01*
G01*
X106128674Y-131850099D02*
G75*
G02*
X105234000Y-131610000I-28674J1680099D01*
G01*
%TO.C,J7*%
X153190000Y-130120000D02*
G75*
G03*
X153190000Y-130120000I-1680000J0D01*
G01*
X156690000Y-130120000D02*
G75*
G03*
X156690000Y-130120000I-1680000J0D01*
G01*
X160190000Y-130120000D02*
G75*
G03*
X160190000Y-130120000I-1680000J0D01*
G01*
X146200000Y-134220000D02*
X160320000Y-134220000D01*
X146200000Y-133120000D02*
X160320000Y-133120000D01*
X146200000Y-126960000D02*
X160320000Y-126960000D01*
X146200000Y-134680000D02*
X160320000Y-134680000D01*
X146200000Y-126960000D02*
X146200000Y-134680000D01*
X160320000Y-126960000D02*
X160320000Y-134680000D01*
X152785000Y-129051000D02*
X152656000Y-129179000D01*
X150535000Y-131301000D02*
X150441000Y-131394000D01*
X152580000Y-128845000D02*
X152486000Y-128939000D01*
X150365000Y-131061000D02*
X150236000Y-131189000D01*
X156285000Y-129051000D02*
X156156000Y-129179000D01*
X154035000Y-131301000D02*
X153941000Y-131394000D01*
X156080000Y-128845000D02*
X155986000Y-128939000D01*
X153865000Y-131061000D02*
X153736000Y-131189000D01*
X159785000Y-129051000D02*
X159656000Y-129179000D01*
X157535000Y-131301000D02*
X157441000Y-131394000D01*
X159580000Y-128845000D02*
X159486000Y-128939000D01*
X157365000Y-131061000D02*
X157236000Y-131189000D01*
X145960000Y-134280000D02*
X145960000Y-134920000D01*
X145960000Y-134920000D02*
X146360000Y-134920000D01*
X148900264Y-131544721D02*
G75*
G02*
X148010000Y-131800000I-890264J1424721D01*
G01*
X149435505Y-129229807D02*
G75*
G02*
X149435000Y-131011000I-1425505J-890193D01*
G01*
X147120106Y-128694642D02*
G75*
G02*
X148876000Y-128680000I889894J-1425358D01*
G01*
X146584642Y-131009894D02*
G75*
G02*
X146570000Y-129254000I1425358J889894D01*
G01*
X148038674Y-131800099D02*
G75*
G02*
X147144000Y-131560000I-28674J1680099D01*
G01*
%TO.C,L1*%
X107870000Y-111890000D02*
X107870000Y-106290000D01*
X113270000Y-111890000D02*
X113270000Y-106290000D01*
X107870000Y-111890000D02*
X109020000Y-111890000D01*
X113270000Y-111890000D02*
X112120000Y-111890000D01*
X107870000Y-106290000D02*
X109020000Y-106290000D01*
X113270000Y-106290000D02*
X112120000Y-106290000D01*
%TO.C,Q1*%
X122484000Y-112016000D02*
X121554000Y-112016000D01*
X119324000Y-112016000D02*
X120254000Y-112016000D01*
X119324000Y-112016000D02*
X119324000Y-114176000D01*
X122484000Y-112016000D02*
X122484000Y-113476000D01*
%TO.C,R1*%
X125713258Y-108980500D02*
X125238742Y-108980500D01*
X125713258Y-107935500D02*
X125238742Y-107935500D01*
%TO.C,R2*%
X136016000Y-77060359D02*
X136016000Y-77367641D01*
X135256000Y-77060359D02*
X135256000Y-77367641D01*
%TO.C,R4*%
X125987500Y-119847258D02*
X125987500Y-119372742D01*
X127032500Y-119847258D02*
X127032500Y-119372742D01*
%TO.C,R5*%
X140869641Y-90044000D02*
X140562359Y-90044000D01*
X140869641Y-90804000D02*
X140562359Y-90804000D01*
%TO.C,R6*%
X137821641Y-90804000D02*
X137514359Y-90804000D01*
X137821641Y-90044000D02*
X137514359Y-90044000D01*
%TO.C,R7*%
X106502500Y-118192742D02*
X106502500Y-118667258D01*
X105457500Y-118192742D02*
X105457500Y-118667258D01*
%TO.C,R8*%
X108752500Y-118647258D02*
X108752500Y-118172742D01*
X107707500Y-118647258D02*
X107707500Y-118172742D01*
%TO.C,R9*%
X107707500Y-122007258D02*
X107707500Y-121532742D01*
X108752500Y-122007258D02*
X108752500Y-121532742D01*
%TO.C,R10*%
X149368742Y-87136500D02*
X149843258Y-87136500D01*
X149368742Y-86091500D02*
X149843258Y-86091500D01*
%TO.C,R11*%
X130709641Y-99950000D02*
X130402359Y-99950000D01*
X130709641Y-100710000D02*
X130402359Y-100710000D01*
%TO.C,SW1*%
X135010000Y-73570000D02*
X134810000Y-73570000D01*
X137810000Y-69430000D02*
X137610000Y-69220000D01*
X136510000Y-69430000D02*
X136710000Y-69220000D01*
X137810000Y-70720000D02*
X137810000Y-69430000D01*
X137610000Y-69220000D02*
X136710000Y-69220000D01*
X136510000Y-69430000D02*
X136510000Y-70720000D01*
X139260000Y-70720000D02*
X133560000Y-70720000D01*
X138010000Y-73570000D02*
X136310000Y-73570000D01*
X139860000Y-72520000D02*
X139860000Y-71730000D01*
X132960000Y-71730000D02*
X132960000Y-72520000D01*
%TO.C,U2*%
X115708000Y-114976000D02*
X113258000Y-114976000D01*
X113908000Y-118196000D02*
X115708000Y-118196000D01*
D10*
%TO.C,U3*%
X119498000Y-84464000D02*
X119498000Y-84989000D01*
X115198000Y-88764000D02*
X115198000Y-88239000D01*
X119498000Y-88764000D02*
X119498000Y-88239000D01*
X115198000Y-84464000D02*
X115723000Y-84464000D01*
X115198000Y-88764000D02*
X115723000Y-88764000D01*
X119498000Y-88764000D02*
X118973000Y-88764000D01*
X119498000Y-84464000D02*
X118973000Y-84464000D01*
D13*
%TO.C,U4*%
X169504000Y-123074000D02*
X169504000Y-121274000D01*
X166284000Y-121274000D02*
X166284000Y-123724000D01*
%TO.C,U5*%
X165862000Y-99260000D02*
X167812000Y-99260000D01*
X165862000Y-99260000D02*
X163912000Y-99260000D01*
X165862000Y-89140000D02*
X167812000Y-89140000D01*
X165862000Y-89140000D02*
X162412000Y-89140000D01*
%TO.C,U6*%
X165862000Y-100870000D02*
X162412000Y-100870000D01*
X165862000Y-100870000D02*
X167812000Y-100870000D01*
X165862000Y-110990000D02*
X163912000Y-110990000D01*
X165862000Y-110990000D02*
X167812000Y-110990000D01*
%TO.C,J3*%
D10*
X179247380Y-75253333D02*
X179961666Y-75253333D01*
X180104523Y-75300952D01*
X180199761Y-75396190D01*
X180247380Y-75539047D01*
X180247380Y-75634285D01*
X179247380Y-74872380D02*
X179247380Y-74253333D01*
X179628333Y-74586666D01*
X179628333Y-74443809D01*
X179675952Y-74348571D01*
X179723571Y-74300952D01*
X179818809Y-74253333D01*
X180056904Y-74253333D01*
X180152142Y-74300952D01*
X180199761Y-74348571D01*
X180247380Y-74443809D01*
X180247380Y-74729523D01*
X180199761Y-74824761D01*
X180152142Y-74872380D01*
%TD*%
M02*
